solid OpenSCAD_Model
  facet normal 0 0 1
    outer loop
      vertex 2.98858 15.2615 3
      vertex 1.3649 15.3115 3
      vertex 1.4 15 3
    endloop
  endfacet
  facet normal 0 0 1
    outer loop
      vertex 0.607437 16.2614 3
      vertex 1.5 17.5981 3
      vertex 1.26785 17.7189 3
    endloop
  endfacet
  facet normal 0 0 1
    outer loop
      vertex 1.72073 17.4575 3
      vertex 1.26136 15.6074 3
      vertex 1.3649 15.3115 3
    endloop
  endfacet
  facet normal 0 0 1
    outer loop
      vertex 1.72073 17.4575 3
      vertex 1.09456 15.8729 3
      vertex 1.26136 15.6074 3
    endloop
  endfacet
  facet normal 0 0 1
    outer loop
      vertex 0.607437 16.2614 3
      vertex 1.26785 17.7189 3
      vertex 1.02606 17.8191 3
    endloop
  endfacet
  facet normal 0 0 1
    outer loop
      vertex 1.72073 17.4575 3
      vertex 0.872886 16.0946 3
      vertex 1.09456 15.8729 3
    endloop
  endfacet
  facet normal 0 0 1
    outer loop
      vertex 0.311529 16.3649 3
      vertex 1.02606 17.8191 3
      vertex 0.776457 17.8978 3
    endloop
  endfacet
  facet normal 0 0 1
    outer loop
      vertex 1.5 17.5981 3
      vertex 0.607437 16.2614 3
      vertex 0.872886 16.0946 3
    endloop
  endfacet
  facet normal 0 0 1
    outer loop
      vertex 0.311529 16.3649 3
      vertex 0.776457 17.8978 3
      vertex 0.520944 17.9544 3
    endloop
  endfacet
  facet normal 0 0 1
    outer loop
      vertex 1.02606 17.8191 3
      vertex 0.311529 16.3649 3
      vertex 0.607437 16.2614 3
    endloop
  endfacet
  facet normal 0 0 1
    outer loop
      vertex 0.261467 17.9886 3
      vertex 0.311529 16.3649 3
      vertex 0.520944 17.9544 3
    endloop
  endfacet
  facet normal 0 0 1
    outer loop
      vertex 0 16.4 3
      vertex 0.261467 17.9886 3
      vertex 0 18 3
    endloop
  endfacet
  facet normal 0 0 1
    outer loop
      vertex 0.261467 17.9886 3
      vertex 0 16.4 3
      vertex 0.311529 16.3649 3
    endloop
  endfacet
  facet normal -0 0 1
    outer loop
      vertex -0.261467 17.9886 3
      vertex 0 16.4 3
      vertex 0 18 3
    endloop
  endfacet
  facet normal 0 0 1
    outer loop
      vertex -0.261467 17.9886 3
      vertex -0.311529 16.3649 3
      vertex 0 16.4 3
    endloop
  endfacet
  facet normal -0 0 1
    outer loop
      vertex -0.520944 17.9544 3
      vertex -0.311529 16.3649 3
      vertex -0.261467 17.9886 3
    endloop
  endfacet
  facet normal -0 0 1
    outer loop
      vertex -0.776457 17.8978 3
      vertex -0.311529 16.3649 3
      vertex -0.520944 17.9544 3
    endloop
  endfacet
  facet normal -0 0 1
    outer loop
      vertex -1.02606 17.8191 3
      vertex -0.311529 16.3649 3
      vertex -0.776457 17.8978 3
    endloop
  endfacet
  facet normal 0 0 1
    outer loop
      vertex -0.311529 16.3649 3
      vertex -1.02606 17.8191 3
      vertex -0.607437 16.2614 3
    endloop
  endfacet
  facet normal -0 0 1
    outer loop
      vertex -1.26785 17.7189 3
      vertex -0.607437 16.2614 3
      vertex -1.02606 17.8191 3
    endloop
  endfacet
  facet normal -0 0 1
    outer loop
      vertex -1.5 17.5981 3
      vertex -0.607437 16.2614 3
      vertex -1.26785 17.7189 3
    endloop
  endfacet
  facet normal 0 0 1
    outer loop
      vertex -0.607437 16.2614 3
      vertex -1.5 17.5981 3
      vertex -0.872886 16.0946 3
    endloop
  endfacet
  facet normal -0 0 1
    outer loop
      vertex -1.72073 17.4575 3
      vertex -0.872886 16.0946 3
      vertex -1.5 17.5981 3
    endloop
  endfacet
  facet normal -0 0 1
    outer loop
      vertex -1.92836 17.2981 3
      vertex -0.872886 16.0946 3
      vertex -1.72073 17.4575 3
    endloop
  endfacet
  facet normal -0 0 1
    outer loop
      vertex -2.12132 17.1213 3
      vertex -0.872886 16.0946 3
      vertex -1.92836 17.2981 3
    endloop
  endfacet
  facet normal 0 0 1
    outer loop
      vertex -0.872886 16.0946 3
      vertex -2.12132 17.1213 3
      vertex -1.09456 15.8729 3
    endloop
  endfacet
  facet normal 0 0 1
    outer loop
      vertex 1.4 15 3
      vertex 3 15 3
      vertex 2.98858 15.2615 3
    endloop
  endfacet
  facet normal -0 0 1
    outer loop
      vertex 1.3649 15.3115 3
      vertex 2.98858 15.2615 3
      vertex 2.95442 15.5209 3
    endloop
  endfacet
  facet normal 0 0 1
    outer loop
      vertex 1.3649 15.3115 3
      vertex 2.95442 15.5209 3
      vertex 2.89778 15.7765 3
    endloop
  endfacet
  facet normal 0 0 1
    outer loop
      vertex 1.3649 15.3115 3
      vertex 2.89778 15.7765 3
      vertex 2.81908 16.0261 3
    endloop
  endfacet
  facet normal 0 0 1
    outer loop
      vertex 1.3649 15.3115 3
      vertex 2.81908 16.0261 3
      vertex 2.71892 16.2679 3
    endloop
  endfacet
  facet normal 0 0 1
    outer loop
      vertex 1.3649 15.3115 3
      vertex 2.71892 16.2679 3
      vertex 2.59808 16.5 3
    endloop
  endfacet
  facet normal 0 0 1
    outer loop
      vertex 1.3649 15.3115 3
      vertex 2.59808 16.5 3
      vertex 2.45746 16.7207 3
    endloop
  endfacet
  facet normal 0 0 1
    outer loop
      vertex 1.3649 15.3115 3
      vertex 2.45746 16.7207 3
      vertex 2.29813 16.9284 3
    endloop
  endfacet
  facet normal 0 0 1
    outer loop
      vertex 1.3649 15.3115 3
      vertex 2.29813 16.9284 3
      vertex 2.12132 17.1213 3
    endloop
  endfacet
  facet normal 0 0 1
    outer loop
      vertex 1.3649 15.3115 3
      vertex 2.12132 17.1213 3
      vertex 1.92836 17.2981 3
    endloop
  endfacet
  facet normal 0 0 1
    outer loop
      vertex 1.3649 15.3115 3
      vertex 1.92836 17.2981 3
      vertex 1.72073 17.4575 3
    endloop
  endfacet
  facet normal 0 0 1
    outer loop
      vertex 0.872886 16.0946 3
      vertex 1.72073 17.4575 3
      vertex 1.5 17.5981 3
    endloop
  endfacet
  facet normal 0 0 1
    outer loop
      vertex 3 15 3
      vertex 1.4 15 3
      vertex 1.3649 14.6885 3
    endloop
  endfacet
  facet normal 0 0 1
    outer loop
      vertex 3 15 3
      vertex 1.3649 14.6885 3
      vertex 1.26136 14.3926 3
    endloop
  endfacet
  facet normal 0 0 1
    outer loop
      vertex 3 15 3
      vertex 1.26136 14.3926 3
      vertex 1.09456 14.1271 3
    endloop
  endfacet
  facet normal 0 0 1
    outer loop
      vertex 0.872886 13.9054 3
      vertex 3 15 3
      vertex 1.09456 14.1271 3
    endloop
  endfacet
  facet normal 0 0 1
    outer loop
      vertex 3 15 3
      vertex 0.872886 13.9054 3
      vertex 3 5.75 3
    endloop
  endfacet
  facet normal -0 0 1
    outer loop
      vertex 0.607437 13.7386 3
      vertex 3 5.75 3
      vertex 0.872886 13.9054 3
    endloop
  endfacet
  facet normal -0 0 1
    outer loop
      vertex 0.311529 13.6351 3
      vertex 3 5.75 3
      vertex 0.607437 13.7386 3
    endloop
  endfacet
  facet normal -0 0 1
    outer loop
      vertex 0 13.6 3
      vertex 3 5.75 3
      vertex 0.311529 13.6351 3
    endloop
  endfacet
  facet normal 0 0 1
    outer loop
      vertex -3 5.75 3
      vertex 0 13.6 3
      vertex -0.311529 13.6351 3
    endloop
  endfacet
  facet normal 0 0 1
    outer loop
      vertex -3 5.75 3
      vertex -0.311529 13.6351 3
      vertex -0.607437 13.7386 3
    endloop
  endfacet
  facet normal 0 0 1
    outer loop
      vertex -3 5.75 3
      vertex -0.607437 13.7386 3
      vertex -0.872886 13.9054 3
    endloop
  endfacet
  facet normal 0 0 1
    outer loop
      vertex -3 15 3
      vertex -0.872886 13.9054 3
      vertex -1.09456 14.1271 3
    endloop
  endfacet
  facet normal 0 0 1
    outer loop
      vertex -3 15 3
      vertex -1.09456 14.1271 3
      vertex -1.26136 14.3926 3
    endloop
  endfacet
  facet normal -0 0 1
    outer loop
      vertex -2.29813 16.9284 3
      vertex -1.09456 15.8729 3
      vertex -2.12132 17.1213 3
    endloop
  endfacet
  facet normal -0 0 1
    outer loop
      vertex -2.45746 16.7207 3
      vertex -1.09456 15.8729 3
      vertex -2.29813 16.9284 3
    endloop
  endfacet
  facet normal -0 0 1
    outer loop
      vertex -2.59808 16.5 3
      vertex -1.09456 15.8729 3
      vertex -2.45746 16.7207 3
    endloop
  endfacet
  facet normal 0 0 1
    outer loop
      vertex -1.09456 15.8729 3
      vertex -2.59808 16.5 3
      vertex -1.26136 15.6074 3
    endloop
  endfacet
  facet normal -0 0 1
    outer loop
      vertex -2.71892 16.2679 3
      vertex -1.26136 15.6074 3
      vertex -2.59808 16.5 3
    endloop
  endfacet
  facet normal -0 0 1
    outer loop
      vertex -2.81908 16.0261 3
      vertex -1.26136 15.6074 3
      vertex -2.71892 16.2679 3
    endloop
  endfacet
  facet normal 0 0 1
    outer loop
      vertex -1.26136 15.6074 3
      vertex -2.81908 16.0261 3
      vertex -1.3649 15.3115 3
    endloop
  endfacet
  facet normal -0 0 1
    outer loop
      vertex -2.89778 15.7765 3
      vertex -1.3649 15.3115 3
      vertex -2.81908 16.0261 3
    endloop
  endfacet
  facet normal -0 0 1
    outer loop
      vertex -2.95442 15.5209 3
      vertex -1.3649 15.3115 3
      vertex -2.89778 15.7765 3
    endloop
  endfacet
  facet normal 0 0 1
    outer loop
      vertex -2.98858 15.2615 3
      vertex -1.3649 15.3115 3
      vertex -2.95442 15.5209 3
    endloop
  endfacet
  facet normal 0 0 1
    outer loop
      vertex -1.3649 15.3115 3
      vertex -2.98858 15.2615 3
      vertex -1.4 15 3
    endloop
  endfacet
  facet normal 0 0 1
    outer loop
      vertex -3 15 3
      vertex -1.4 15 3
      vertex -2.98858 15.2615 3
    endloop
  endfacet
  facet normal 0 0 1
    outer loop
      vertex -1.4 15 3
      vertex -3 15 3
      vertex -1.3649 14.6885 3
    endloop
  endfacet
  facet normal 0 0 1
    outer loop
      vertex -1.3649 14.6885 3
      vertex -3 15 3
      vertex -1.26136 14.3926 3
    endloop
  endfacet
  facet normal 0 0 1
    outer loop
      vertex -0.872886 13.9054 3
      vertex -3 15 3
      vertex -3 5.75 3
    endloop
  endfacet
  facet normal 0 0 1
    outer loop
      vertex 0 13.6 3
      vertex -3 5.75 3
      vertex 3 5.75 3
    endloop
  endfacet
  facet normal -0 0 1
    outer loop
      vertex 0.872886 -13.9054 3
      vertex 3 -15 3
      vertex 3 -5.75 3
    endloop
  endfacet
  facet normal -0 -0 1
    outer loop
      vertex 1.26136 -14.3926 3
      vertex 3 -15 3
      vertex 1.09456 -14.1271 3
    endloop
  endfacet
  facet normal -0 -0 1
    outer loop
      vertex 1.3649 -14.6885 3
      vertex 3 -15 3
      vertex 1.26136 -14.3926 3
    endloop
  endfacet
  facet normal 0 -0 1
    outer loop
      vertex 1.4 -15 3
      vertex 3 -15 3
      vertex 1.3649 -14.6885 3
    endloop
  endfacet
  facet normal 0 0 1
    outer loop
      vertex 1.3649 -15.3115 3
      vertex 2.98858 -15.2615 3
      vertex 1.4 -15 3
    endloop
  endfacet
  facet normal 0 0 1
    outer loop
      vertex 2.98858 -15.2615 3
      vertex 1.3649 -15.3115 3
      vertex 2.95442 -15.5209 3
    endloop
  endfacet
  facet normal 0 0 1
    outer loop
      vertex 2.95442 -15.5209 3
      vertex 1.3649 -15.3115 3
      vertex 2.89778 -15.7765 3
    endloop
  endfacet
  facet normal -0 0 1
    outer loop
      vertex 1.26136 -15.6074 3
      vertex 2.81908 -16.0261 3
      vertex 1.3649 -15.3115 3
    endloop
  endfacet
  facet normal 0 0 1
    outer loop
      vertex 2.81908 -16.0261 3
      vertex 1.26136 -15.6074 3
      vertex 2.71892 -16.2679 3
    endloop
  endfacet
  facet normal 0 0 1
    outer loop
      vertex 2.71892 -16.2679 3
      vertex 1.26136 -15.6074 3
      vertex 2.59808 -16.5 3
    endloop
  endfacet
  facet normal -0 0 1
    outer loop
      vertex 1.09456 -15.8729 3
      vertex 2.59808 -16.5 3
      vertex 1.26136 -15.6074 3
    endloop
  endfacet
  facet normal 0 0 1
    outer loop
      vertex 2.45746 -16.7207 3
      vertex 1.09456 -15.8729 3
      vertex 2.29813 -16.9284 3
    endloop
  endfacet
  facet normal 0 0 1
    outer loop
      vertex 2.29813 -16.9284 3
      vertex 1.09456 -15.8729 3
      vertex 2.12132 -17.1213 3
    endloop
  endfacet
  facet normal 0 0 1
    outer loop
      vertex 2.59808 -16.5 3
      vertex 1.09456 -15.8729 3
      vertex 2.45746 -16.7207 3
    endloop
  endfacet
  facet normal 0 0 1
    outer loop
      vertex 2.89778 -15.7765 3
      vertex 1.3649 -15.3115 3
      vertex 2.81908 -16.0261 3
    endloop
  endfacet
  facet normal 0 0 1
    outer loop
      vertex 3 -15 3
      vertex 1.4 -15 3
      vertex 2.98858 -15.2615 3
    endloop
  endfacet
  facet normal 0 0 1
    outer loop
      vertex 3 -15 3
      vertex 0.872886 -13.9054 3
      vertex 1.09456 -14.1271 3
    endloop
  endfacet
  facet normal 0 0 1
    outer loop
      vertex 3 -5.75 3
      vertex 0.607437 -13.7386 3
      vertex 0.872886 -13.9054 3
    endloop
  endfacet
  facet normal 0 0 1
    outer loop
      vertex 3 -5.75 3
      vertex 0.311529 -13.6351 3
      vertex 0.607437 -13.7386 3
    endloop
  endfacet
  facet normal 0 0 1
    outer loop
      vertex 3 -5.75 3
      vertex 0 -13.6 3
      vertex 0.311529 -13.6351 3
    endloop
  endfacet
  facet normal -0 0 1
    outer loop
      vertex -3 -5.75 3
      vertex 0 -13.6 3
      vertex 3 -5.75 3
    endloop
  endfacet
  facet normal 0 0 1
    outer loop
      vertex 0 -13.6 3
      vertex -3 -5.75 3
      vertex -0.311529 -13.6351 3
    endloop
  endfacet
  facet normal 0 0 1
    outer loop
      vertex -0.311529 -13.6351 3
      vertex -3 -5.75 3
      vertex -0.607437 -13.7386 3
    endloop
  endfacet
  facet normal 0 0 1
    outer loop
      vertex -0.607437 -13.7386 3
      vertex -3 -5.75 3
      vertex -0.872886 -13.9054 3
    endloop
  endfacet
  facet normal 0 0 1
    outer loop
      vertex -3 -15 3
      vertex -0.872886 -13.9054 3
      vertex -3 -5.75 3
    endloop
  endfacet
  facet normal 0 0 1
    outer loop
      vertex -0.872886 -16.0946 3
      vertex -1.72073 -17.4575 3
      vertex -1.5 -17.5981 3
    endloop
  endfacet
  facet normal 0 0 1
    outer loop
      vertex -3 -15 3
      vertex -1.4 -15 3
      vertex -1.3649 -14.6885 3
    endloop
  endfacet
  facet normal 0 0 1
    outer loop
      vertex -1.3649 -15.3115 3
      vertex -1.92836 -17.2981 3
      vertex -1.72073 -17.4575 3
    endloop
  endfacet
  facet normal 0 0 1
    outer loop
      vertex -1.3649 -15.3115 3
      vertex -2.12132 -17.1213 3
      vertex -1.92836 -17.2981 3
    endloop
  endfacet
  facet normal 0 0 1
    outer loop
      vertex -1.3649 -15.3115 3
      vertex -2.29813 -16.9284 3
      vertex -2.12132 -17.1213 3
    endloop
  endfacet
  facet normal 0 0 1
    outer loop
      vertex -3 -15 3
      vertex -1.3649 -14.6885 3
      vertex -1.26136 -14.3926 3
    endloop
  endfacet
  facet normal 0 0 1
    outer loop
      vertex -1.3649 -15.3115 3
      vertex -2.45746 -16.7207 3
      vertex -2.29813 -16.9284 3
    endloop
  endfacet
  facet normal 0 0 1
    outer loop
      vertex -0.872886 -13.9054 3
      vertex -3 -15 3
      vertex -1.09456 -14.1271 3
    endloop
  endfacet
  facet normal 0 0 1
    outer loop
      vertex -1.4 -15 3
      vertex -3 -15 3
      vertex -2.98858 -15.2615 3
    endloop
  endfacet
  facet normal 0 0 1
    outer loop
      vertex -1.3649 -15.3115 3
      vertex -2.59808 -16.5 3
      vertex -2.45746 -16.7207 3
    endloop
  endfacet
  facet normal 0 0 1
    outer loop
      vertex -1.3649 -15.3115 3
      vertex -2.71892 -16.2679 3
      vertex -2.59808 -16.5 3
    endloop
  endfacet
  facet normal 0 0 1
    outer loop
      vertex -1.3649 -15.3115 3
      vertex -2.81908 -16.0261 3
      vertex -2.71892 -16.2679 3
    endloop
  endfacet
  facet normal 0 0 1
    outer loop
      vertex -1.3649 -15.3115 3
      vertex -2.89778 -15.7765 3
      vertex -2.81908 -16.0261 3
    endloop
  endfacet
  facet normal 0 0 1
    outer loop
      vertex -1.3649 -15.3115 3
      vertex -2.95442 -15.5209 3
      vertex -2.89778 -15.7765 3
    endloop
  endfacet
  facet normal 0 0 1
    outer loop
      vertex -1.09456 -14.1271 3
      vertex -3 -15 3
      vertex -1.26136 -14.3926 3
    endloop
  endfacet
  facet normal 0 0 1
    outer loop
      vertex -1.3649 -15.3115 3
      vertex -2.98858 -15.2615 3
      vertex -2.95442 -15.5209 3
    endloop
  endfacet
  facet normal -0 0 1
    outer loop
      vertex 0.872886 -16.0946 3
      vertex 2.12132 -17.1213 3
      vertex 1.09456 -15.8729 3
    endloop
  endfacet
  facet normal 0 0 1
    outer loop
      vertex 2.12132 -17.1213 3
      vertex 0.872886 -16.0946 3
      vertex 1.92836 -17.2981 3
    endloop
  endfacet
  facet normal 0 0 1
    outer loop
      vertex 1.92836 -17.2981 3
      vertex 0.872886 -16.0946 3
      vertex 1.72073 -17.4575 3
    endloop
  endfacet
  facet normal 0 0 1
    outer loop
      vertex 1.72073 -17.4575 3
      vertex 0.872886 -16.0946 3
      vertex 1.5 -17.5981 3
    endloop
  endfacet
  facet normal -0 0 1
    outer loop
      vertex 0.607437 -16.2614 3
      vertex 1.5 -17.5981 3
      vertex 0.872886 -16.0946 3
    endloop
  endfacet
  facet normal 0 0 1
    outer loop
      vertex 1.5 -17.5981 3
      vertex 0.607437 -16.2614 3
      vertex 1.26785 -17.7189 3
    endloop
  endfacet
  facet normal 0 0 1
    outer loop
      vertex 1.26785 -17.7189 3
      vertex 0.607437 -16.2614 3
      vertex 1.02606 -17.8191 3
    endloop
  endfacet
  facet normal -0 0 1
    outer loop
      vertex 0.311529 -16.3649 3
      vertex 1.02606 -17.8191 3
      vertex 0.607437 -16.2614 3
    endloop
  endfacet
  facet normal 0 0 1
    outer loop
      vertex 1.02606 -17.8191 3
      vertex 0.311529 -16.3649 3
      vertex 0.776457 -17.8978 3
    endloop
  endfacet
  facet normal 0 0 1
    outer loop
      vertex 0.776457 -17.8978 3
      vertex 0.311529 -16.3649 3
      vertex 0.520944 -17.9544 3
    endloop
  endfacet
  facet normal 0 0 1
    outer loop
      vertex 0.311529 -16.3649 3
      vertex 0.261467 -17.9886 3
      vertex 0.520944 -17.9544 3
    endloop
  endfacet
  facet normal -0 0 1
    outer loop
      vertex 0 -16.4 3
      vertex 0.261467 -17.9886 3
      vertex 0.311529 -16.3649 3
    endloop
  endfacet
  facet normal 0 0 1
    outer loop
      vertex 0 -16.4 3
      vertex 0 -18 3
      vertex 0.261467 -17.9886 3
    endloop
  endfacet
  facet normal 0 0 1
    outer loop
      vertex 0 -16.4 3
      vertex -0.261467 -17.9886 3
      vertex 0 -18 3
    endloop
  endfacet
  facet normal 0 0 1
    outer loop
      vertex -0.311529 -16.3649 3
      vertex -0.261467 -17.9886 3
      vertex 0 -16.4 3
    endloop
  endfacet
  facet normal 0 0 1
    outer loop
      vertex -0.311529 -16.3649 3
      vertex -0.520944 -17.9544 3
      vertex -0.261467 -17.9886 3
    endloop
  endfacet
  facet normal 0 0 1
    outer loop
      vertex -1.02606 -17.8191 3
      vertex -0.311529 -16.3649 3
      vertex -0.607437 -16.2614 3
    endloop
  endfacet
  facet normal 0 0 1
    outer loop
      vertex -0.311529 -16.3649 3
      vertex -0.776457 -17.8978 3
      vertex -0.520944 -17.9544 3
    endloop
  endfacet
  facet normal 0 0 1
    outer loop
      vertex -1.5 -17.5981 3
      vertex -0.607437 -16.2614 3
      vertex -0.872886 -16.0946 3
    endloop
  endfacet
  facet normal 0 0 1
    outer loop
      vertex -0.311529 -16.3649 3
      vertex -1.02606 -17.8191 3
      vertex -0.776457 -17.8978 3
    endloop
  endfacet
  facet normal 0 0 1
    outer loop
      vertex -1.72073 -17.4575 3
      vertex -0.872886 -16.0946 3
      vertex -1.09456 -15.8729 3
    endloop
  endfacet
  facet normal 0 0 1
    outer loop
      vertex -1.72073 -17.4575 3
      vertex -1.09456 -15.8729 3
      vertex -1.26136 -15.6074 3
    endloop
  endfacet
  facet normal 0 0 1
    outer loop
      vertex -0.607437 -16.2614 3
      vertex -1.26785 -17.7189 3
      vertex -1.02606 -17.8191 3
    endloop
  endfacet
  facet normal 0 0 1
    outer loop
      vertex -1.72073 -17.4575 3
      vertex -1.26136 -15.6074 3
      vertex -1.3649 -15.3115 3
    endloop
  endfacet
  facet normal -0 0 1
    outer loop
      vertex -2.98858 -15.2615 3
      vertex -1.3649 -15.3115 3
      vertex -1.4 -15 3
    endloop
  endfacet
  facet normal 0 0 1
    outer loop
      vertex -0.607437 -16.2614 3
      vertex -1.5 -17.5981 3
      vertex -1.26785 -17.7189 3
    endloop
  endfacet
  facet normal -0.99144 0.130561 0
    outer loop
      vertex -2.98858 15.2615 0
      vertex -2.95442 15.5209 3
      vertex -2.95442 15.5209 0
    endloop
  endfacet
  facet normal -0.99144 0.130561 0
    outer loop
      vertex -2.95442 15.5209 3
      vertex -2.98858 15.2615 0
      vertex -2.98858 15.2615 3
    endloop
  endfacet
  facet normal -1 0 0
    outer loop
      vertex -3 15 0
      vertex -3 5.75 3
      vertex -3 15 3
    endloop
  endfacet
  facet normal -1 0 0
    outer loop
      vertex -3 5.75 3
      vertex -3 -5.75 3
      vertex -3 5.75 5.6
    endloop
  endfacet
  facet normal -1 0 0
    outer loop
      vertex -3 15 0
      vertex -3 -5.75 3
      vertex -3 5.75 3
    endloop
  endfacet
  facet normal -1 0 0
    outer loop
      vertex -3 -15 0
      vertex -3 -5.75 3
      vertex -3 15 0
    endloop
  endfacet
  facet normal -1 -0 0
    outer loop
      vertex -3 -5.75 3
      vertex -3 -15 0
      vertex -3 -15 3
    endloop
  endfacet
  facet normal -1 -0 0
    outer loop
      vertex -3 5.75 5.6
      vertex -3 -5.75 3
      vertex -3 -5.75 5.6
    endloop
  endfacet
  facet normal 0.999048 -0.0436295 0
    outer loop
      vertex 2.98858 -15.2615 3
      vertex 3 -15 0
      vertex 3 -15 3
    endloop
  endfacet
  facet normal 0.999048 -0.0436295 0
    outer loop
      vertex 3 -15 0
      vertex 2.98858 -15.2615 3
      vertex 2.98858 -15.2615 0
    endloop
  endfacet
  facet normal -0.999048 0.0436295 0
    outer loop
      vertex -3 15 0
      vertex -2.98858 15.2615 3
      vertex -2.98858 15.2615 0
    endloop
  endfacet
  facet normal -0.999048 0.0436295 0
    outer loop
      vertex -2.98858 15.2615 3
      vertex -3 15 0
      vertex -3 15 3
    endloop
  endfacet
  facet normal -0.976316 -0.216348 0
    outer loop
      vertex -2.89778 -15.7765 0
      vertex -2.95442 -15.5209 3
      vertex -2.95442 -15.5209 0
    endloop
  endfacet
  facet normal -0.976316 -0.216348 0
    outer loop
      vertex -2.95442 -15.5209 3
      vertex -2.89778 -15.7765 0
      vertex -2.89778 -15.7765 3
    endloop
  endfacet
  facet normal 0 0 -1
    outer loop
      vertex 1.09456 -14.1271 0
      vertex 3 -15 0
      vertex 1.26136 -14.3926 0
    endloop
  endfacet
  facet normal -0 0 -1
    outer loop
      vertex 3 15 0
      vertex 1.3649 14.6885 0
      vertex 1.4 15 0
    endloop
  endfacet
  facet normal 0 0 -1
    outer loop
      vertex 0.872886 -13.9054 0
      vertex 3 -15 0
      vertex 1.09456 -14.1271 0
    endloop
  endfacet
  facet normal 0 0 -1
    outer loop
      vertex 3 15 0
      vertex 1.26136 14.3926 0
      vertex 1.3649 14.6885 0
    endloop
  endfacet
  facet normal 0 0 -1
    outer loop
      vertex 3 -15 0
      vertex 0.872886 -13.9054 0
      vertex 3 15 0
    endloop
  endfacet
  facet normal 0 0 -1
    outer loop
      vertex 3 15 0
      vertex 1.09456 14.1271 0
      vertex 1.26136 14.3926 0
    endloop
  endfacet
  facet normal 0 0 -1
    outer loop
      vertex 0.872886 13.9054 0
      vertex 3 15 0
      vertex 0.872886 -13.9054 0
    endloop
  endfacet
  facet normal 0 0 -1
    outer loop
      vertex 3 15 0
      vertex 0.872886 13.9054 0
      vertex 1.09456 14.1271 0
    endloop
  endfacet
  facet normal 0 0 -1
    outer loop
      vertex 0.607437 -13.7386 0
      vertex 0.872886 13.9054 0
      vertex 0.872886 -13.9054 0
    endloop
  endfacet
  facet normal 0 0 -1
    outer loop
      vertex 0.607437 -13.7386 0
      vertex 0.607437 13.7386 0
      vertex 0.872886 13.9054 0
    endloop
  endfacet
  facet normal 0 0 -1
    outer loop
      vertex 0.311529 -13.6351 0
      vertex 0.607437 13.7386 0
      vertex 0.607437 -13.7386 0
    endloop
  endfacet
  facet normal 0 0 -1
    outer loop
      vertex 0.311529 -13.6351 0
      vertex 0.311529 13.6351 0
      vertex 0.607437 13.7386 0
    endloop
  endfacet
  facet normal 0 0 -1
    outer loop
      vertex 0 -13.6 0
      vertex 0.311529 13.6351 0
      vertex 0.311529 -13.6351 0
    endloop
  endfacet
  facet normal 0 0 -1
    outer loop
      vertex 0 -13.6 0
      vertex 0 13.6 0
      vertex 0.311529 13.6351 0
    endloop
  endfacet
  facet normal 0 0 -1
    outer loop
      vertex -0.311529 -13.6351 0
      vertex 0 13.6 0
      vertex 0 -13.6 0
    endloop
  endfacet
  facet normal 0 0 -1
    outer loop
      vertex -0.311529 -13.6351 0
      vertex -0.311529 13.6351 0
      vertex 0 13.6 0
    endloop
  endfacet
  facet normal 0 0 -1
    outer loop
      vertex -0.607437 -13.7386 0
      vertex -0.311529 13.6351 0
      vertex -0.311529 -13.6351 0
    endloop
  endfacet
  facet normal 0 0 -1
    outer loop
      vertex -0.607437 -13.7386 0
      vertex -0.607437 13.7386 0
      vertex -0.311529 13.6351 0
    endloop
  endfacet
  facet normal 0 0 -1
    outer loop
      vertex -0.872886 -13.9054 0
      vertex -0.607437 13.7386 0
      vertex -0.607437 -13.7386 0
    endloop
  endfacet
  facet normal 0 0 -1
    outer loop
      vertex -0.872886 -13.9054 0
      vertex -0.872886 13.9054 0
      vertex -0.607437 13.7386 0
    endloop
  endfacet
  facet normal 0 0 -1
    outer loop
      vertex -3 -15 0
      vertex -0.872886 -13.9054 0
      vertex -1.09456 -14.1271 0
    endloop
  endfacet
  facet normal -0 0 -1
    outer loop
      vertex -0.872886 -13.9054 0
      vertex -3 -15 0
      vertex -0.872886 13.9054 0
    endloop
  endfacet
  facet normal 0 0 -1
    outer loop
      vertex -3 -15 0
      vertex -1.09456 -14.1271 0
      vertex -1.26136 -14.3926 0
    endloop
  endfacet
  facet normal 0 0 -1
    outer loop
      vertex -3 15 0
      vertex -0.872886 13.9054 0
      vertex -3 -15 0
    endloop
  endfacet
  facet normal 0 0 -1
    outer loop
      vertex -3 -15 0
      vertex -1.26136 -14.3926 0
      vertex -1.3649 -14.6885 0
    endloop
  endfacet
  facet normal 0 0 -1
    outer loop
      vertex -0.872886 13.9054 0
      vertex -3 15 0
      vertex -1.09456 14.1271 0
    endloop
  endfacet
  facet normal 0 0 -1
    outer loop
      vertex -3 -15 0
      vertex -1.3649 -14.6885 0
      vertex -1.4 -15 0
    endloop
  endfacet
  facet normal 0 0 -1
    outer loop
      vertex -1.09456 14.1271 0
      vertex -3 15 0
      vertex -1.26136 14.3926 0
    endloop
  endfacet
  facet normal 0 0 -1
    outer loop
      vertex 1.4 -15 0
      vertex 3 -15 0
      vertex 2.98858 -15.2615 0
    endloop
  endfacet
  facet normal 0 0 -1
    outer loop
      vertex 1.3649 -14.6885 0
      vertex 3 -15 0
      vertex 1.4 -15 0
    endloop
  endfacet
  facet normal 0 0 -1
    outer loop
      vertex 1.3649 -15.3115 0
      vertex 2.98858 -15.2615 0
      vertex 2.95442 -15.5209 0
    endloop
  endfacet
  facet normal 0 0 -1
    outer loop
      vertex 1.26136 -14.3926 0
      vertex 3 -15 0
      vertex 1.3649 -14.6885 0
    endloop
  endfacet
  facet normal 0 0 -1
    outer loop
      vertex 1.3649 -15.3115 0
      vertex 2.95442 -15.5209 0
      vertex 2.89778 -15.7765 0
    endloop
  endfacet
  facet normal 0 0 -1
    outer loop
      vertex 3 15 0
      vertex 1.4 15 0
      vertex 2.98858 15.2615 0
    endloop
  endfacet
  facet normal 0 0 -1
    outer loop
      vertex 1.3649 -15.3115 0
      vertex 2.89778 -15.7765 0
      vertex 2.81908 -16.0261 0
    endloop
  endfacet
  facet normal 0 0 -1
    outer loop
      vertex 1.3649 15.3115 0
      vertex 2.98858 15.2615 0
      vertex 1.4 15 0
    endloop
  endfacet
  facet normal 0 0 -1
    outer loop
      vertex 1.26136 -15.6074 0
      vertex 2.81908 -16.0261 0
      vertex 2.71892 -16.2679 0
    endloop
  endfacet
  facet normal 0 0 -1
    outer loop
      vertex 2.98858 15.2615 0
      vertex 1.3649 15.3115 0
      vertex 2.95442 15.5209 0
    endloop
  endfacet
  facet normal 0 0 -1
    outer loop
      vertex 1.26136 -15.6074 0
      vertex 2.71892 -16.2679 0
      vertex 2.59808 -16.5 0
    endloop
  endfacet
  facet normal -0 0 -1
    outer loop
      vertex 2.95442 15.5209 0
      vertex 1.3649 15.3115 0
      vertex 2.89778 15.7765 0
    endloop
  endfacet
  facet normal 0 0 -1
    outer loop
      vertex 1.09456 -15.8729 0
      vertex 2.59808 -16.5 0
      vertex 2.45746 -16.7207 0
    endloop
  endfacet
  facet normal -0 0 -1
    outer loop
      vertex 2.89778 15.7765 0
      vertex 1.3649 15.3115 0
      vertex 2.81908 16.0261 0
    endloop
  endfacet
  facet normal 0 0 -1
    outer loop
      vertex 1.09456 -15.8729 0
      vertex 2.45746 -16.7207 0
      vertex 2.29813 -16.9284 0
    endloop
  endfacet
  facet normal 0 0 -1
    outer loop
      vertex 1.26136 15.6074 0
      vertex 2.81908 16.0261 0
      vertex 1.3649 15.3115 0
    endloop
  endfacet
  facet normal 0 0 -1
    outer loop
      vertex 1.09456 -15.8729 0
      vertex 2.29813 -16.9284 0
      vertex 2.12132 -17.1213 0
    endloop
  endfacet
  facet normal -0 0 -1
    outer loop
      vertex 2.81908 16.0261 0
      vertex 1.26136 15.6074 0
      vertex 2.71892 16.2679 0
    endloop
  endfacet
  facet normal 0 0 -1
    outer loop
      vertex 0.872886 -16.0946 0
      vertex 2.12132 -17.1213 0
      vertex 1.92836 -17.2981 0
    endloop
  endfacet
  facet normal -0 0 -1
    outer loop
      vertex 2.71892 16.2679 0
      vertex 1.26136 15.6074 0
      vertex 2.59808 16.5 0
    endloop
  endfacet
  facet normal 0 0 -1
    outer loop
      vertex 0.872886 -16.0946 0
      vertex 1.92836 -17.2981 0
      vertex 1.72073 -17.4575 0
    endloop
  endfacet
  facet normal 0 0 -1
    outer loop
      vertex 1.09456 15.8729 0
      vertex 2.59808 16.5 0
      vertex 1.26136 15.6074 0
    endloop
  endfacet
  facet normal 0 0 -1
    outer loop
      vertex 0.872886 -16.0946 0
      vertex 1.72073 -17.4575 0
      vertex 1.5 -17.5981 0
    endloop
  endfacet
  facet normal -0 0 -1
    outer loop
      vertex 2.59808 16.5 0
      vertex 1.09456 15.8729 0
      vertex 2.45746 16.7207 0
    endloop
  endfacet
  facet normal -0 0 -1
    outer loop
      vertex 2.45746 16.7207 0
      vertex 1.09456 15.8729 0
      vertex 2.29813 16.9284 0
    endloop
  endfacet
  facet normal -0 0 -1
    outer loop
      vertex 2.98858 -15.2615 0
      vertex 1.3649 -15.3115 0
      vertex 1.4 -15 0
    endloop
  endfacet
  facet normal 0 0 -1
    outer loop
      vertex 0.607437 -16.2614 0
      vertex 1.5 -17.5981 0
      vertex 1.26785 -17.7189 0
    endloop
  endfacet
  facet normal 0 0 -1
    outer loop
      vertex 2.81908 -16.0261 0
      vertex 1.26136 -15.6074 0
      vertex 1.3649 -15.3115 0
    endloop
  endfacet
  facet normal 0 0 -1
    outer loop
      vertex 2.59808 -16.5 0
      vertex 1.09456 -15.8729 0
      vertex 1.26136 -15.6074 0
    endloop
  endfacet
  facet normal 0 0 -1
    outer loop
      vertex 0.607437 -16.2614 0
      vertex 1.26785 -17.7189 0
      vertex 1.02606 -17.8191 0
    endloop
  endfacet
  facet normal 0 0 -1
    outer loop
      vertex 2.12132 -17.1213 0
      vertex 0.872886 -16.0946 0
      vertex 1.09456 -15.8729 0
    endloop
  endfacet
  facet normal 0 0 -1
    outer loop
      vertex 0.311529 -16.3649 0
      vertex 1.02606 -17.8191 0
      vertex 0.776457 -17.8978 0
    endloop
  endfacet
  facet normal 0 0 -1
    outer loop
      vertex 1.5 -17.5981 0
      vertex 0.607437 -16.2614 0
      vertex 0.872886 -16.0946 0
    endloop
  endfacet
  facet normal 0 0 -1
    outer loop
      vertex 0.311529 -16.3649 0
      vertex 0.776457 -17.8978 0
      vertex 0.520944 -17.9544 0
    endloop
  endfacet
  facet normal 0 0 -1
    outer loop
      vertex 1.02606 -17.8191 0
      vertex 0.311529 -16.3649 0
      vertex 0.607437 -16.2614 0
    endloop
  endfacet
  facet normal 0 0 -1
    outer loop
      vertex 0.261467 -17.9886 0
      vertex 0.311529 -16.3649 0
      vertex 0.520944 -17.9544 0
    endloop
  endfacet
  facet normal 0 0 -1
    outer loop
      vertex 0 -16.4 0
      vertex 0.261467 -17.9886 0
      vertex 0 -18 0
    endloop
  endfacet
  facet normal 0 0 -1
    outer loop
      vertex 0.261467 -17.9886 0
      vertex 0 -16.4 0
      vertex 0.311529 -16.3649 0
    endloop
  endfacet
  facet normal 0 0 -1
    outer loop
      vertex -0.261467 -17.9886 0
      vertex 0 -16.4 0
      vertex 0 -18 0
    endloop
  endfacet
  facet normal 0 0 -1
    outer loop
      vertex -0.261467 -17.9886 0
      vertex -0.311529 -16.3649 0
      vertex 0 -16.4 0
    endloop
  endfacet
  facet normal 0 0 -1
    outer loop
      vertex -0.520944 -17.9544 0
      vertex -0.311529 -16.3649 0
      vertex -0.261467 -17.9886 0
    endloop
  endfacet
  facet normal 0 0 -1
    outer loop
      vertex -0.776457 -17.8978 0
      vertex -0.311529 -16.3649 0
      vertex -0.520944 -17.9544 0
    endloop
  endfacet
  facet normal 0 0 -1
    outer loop
      vertex -1.02606 -17.8191 0
      vertex -0.311529 -16.3649 0
      vertex -0.776457 -17.8978 0
    endloop
  endfacet
  facet normal -0 0 -1
    outer loop
      vertex -0.311529 -16.3649 0
      vertex -1.02606 -17.8191 0
      vertex -0.607437 -16.2614 0
    endloop
  endfacet
  facet normal 0 0 -1
    outer loop
      vertex -1.26785 -17.7189 0
      vertex -0.607437 -16.2614 0
      vertex -1.02606 -17.8191 0
    endloop
  endfacet
  facet normal 0 0 -1
    outer loop
      vertex -1.5 -17.5981 0
      vertex -0.607437 -16.2614 0
      vertex -1.26785 -17.7189 0
    endloop
  endfacet
  facet normal -0 0 -1
    outer loop
      vertex -0.607437 -16.2614 0
      vertex -1.5 -17.5981 0
      vertex -0.872886 -16.0946 0
    endloop
  endfacet
  facet normal 0 0 -1
    outer loop
      vertex -1.72073 -17.4575 0
      vertex -0.872886 -16.0946 0
      vertex -1.5 -17.5981 0
    endloop
  endfacet
  facet normal 0 0 -1
    outer loop
      vertex -1.92836 -17.2981 0
      vertex -0.872886 -16.0946 0
      vertex -1.72073 -17.4575 0
    endloop
  endfacet
  facet normal 0 0 -1
    outer loop
      vertex -2.12132 -17.1213 0
      vertex -0.872886 -16.0946 0
      vertex -1.92836 -17.2981 0
    endloop
  endfacet
  facet normal 0 0 -1
    outer loop
      vertex -2.29813 -16.9284 0
      vertex -1.09456 -15.8729 0
      vertex -2.12132 -17.1213 0
    endloop
  endfacet
  facet normal -0 0 -1
    outer loop
      vertex -0.872886 -16.0946 0
      vertex -2.12132 -17.1213 0
      vertex -1.09456 -15.8729 0
    endloop
  endfacet
  facet normal -0 0 -1
    outer loop
      vertex 2.29813 16.9284 0
      vertex 1.09456 15.8729 0
      vertex 2.12132 17.1213 0
    endloop
  endfacet
  facet normal 0 0 -1
    outer loop
      vertex 0.872886 16.0946 0
      vertex 2.12132 17.1213 0
      vertex 1.09456 15.8729 0
    endloop
  endfacet
  facet normal -0 0 -1
    outer loop
      vertex 2.12132 17.1213 0
      vertex 0.872886 16.0946 0
      vertex 1.92836 17.2981 0
    endloop
  endfacet
  facet normal -0 0 -1
    outer loop
      vertex 1.92836 17.2981 0
      vertex 0.872886 16.0946 0
      vertex 1.72073 17.4575 0
    endloop
  endfacet
  facet normal -0 0 -1
    outer loop
      vertex 1.72073 17.4575 0
      vertex 0.872886 16.0946 0
      vertex 1.5 17.5981 0
    endloop
  endfacet
  facet normal 0 0 -1
    outer loop
      vertex 0.607437 16.2614 0
      vertex 1.5 17.5981 0
      vertex 0.872886 16.0946 0
    endloop
  endfacet
  facet normal -0 0 -1
    outer loop
      vertex 1.5 17.5981 0
      vertex 0.607437 16.2614 0
      vertex 1.26785 17.7189 0
    endloop
  endfacet
  facet normal -0 0 -1
    outer loop
      vertex 1.26785 17.7189 0
      vertex 0.607437 16.2614 0
      vertex 1.02606 17.8191 0
    endloop
  endfacet
  facet normal 0 0 -1
    outer loop
      vertex 0.311529 16.3649 0
      vertex 1.02606 17.8191 0
      vertex 0.607437 16.2614 0
    endloop
  endfacet
  facet normal -0 0 -1
    outer loop
      vertex 1.02606 17.8191 0
      vertex 0.311529 16.3649 0
      vertex 0.776457 17.8978 0
    endloop
  endfacet
  facet normal -0 0 -1
    outer loop
      vertex 0.776457 17.8978 0
      vertex 0.311529 16.3649 0
      vertex 0.520944 17.9544 0
    endloop
  endfacet
  facet normal 0 0 -1
    outer loop
      vertex 0.311529 16.3649 0
      vertex 0.261467 17.9886 0
      vertex 0.520944 17.9544 0
    endloop
  endfacet
  facet normal 0 0 -1
    outer loop
      vertex 0 16.4 0
      vertex 0.261467 17.9886 0
      vertex 0.311529 16.3649 0
    endloop
  endfacet
  facet normal 0 0 -1
    outer loop
      vertex 0 16.4 0
      vertex 0 18 0
      vertex 0.261467 17.9886 0
    endloop
  endfacet
  facet normal 0 0 -1
    outer loop
      vertex 0 16.4 0
      vertex -0.261467 17.9886 0
      vertex 0 18 0
    endloop
  endfacet
  facet normal 0 0 -1
    outer loop
      vertex -0.311529 16.3649 0
      vertex -0.261467 17.9886 0
      vertex 0 16.4 0
    endloop
  endfacet
  facet normal 0 0 -1
    outer loop
      vertex -0.311529 16.3649 0
      vertex -0.520944 17.9544 0
      vertex -0.261467 17.9886 0
    endloop
  endfacet
  facet normal 0 0 -1
    outer loop
      vertex -1.02606 17.8191 0
      vertex -0.311529 16.3649 0
      vertex -0.607437 16.2614 0
    endloop
  endfacet
  facet normal 0 0 -1
    outer loop
      vertex -0.311529 16.3649 0
      vertex -0.776457 17.8978 0
      vertex -0.520944 17.9544 0
    endloop
  endfacet
  facet normal 0 0 -1
    outer loop
      vertex -1.5 17.5981 0
      vertex -0.607437 16.2614 0
      vertex -0.872886 16.0946 0
    endloop
  endfacet
  facet normal 0 0 -1
    outer loop
      vertex -0.311529 16.3649 0
      vertex -1.02606 17.8191 0
      vertex -0.776457 17.8978 0
    endloop
  endfacet
  facet normal 0 0 -1
    outer loop
      vertex -2.12132 17.1213 0
      vertex -0.872886 16.0946 0
      vertex -1.09456 15.8729 0
    endloop
  endfacet
  facet normal 0 0 -1
    outer loop
      vertex -2.59808 16.5 0
      vertex -1.09456 15.8729 0
      vertex -1.26136 15.6074 0
    endloop
  endfacet
  facet normal 0 0 -1
    outer loop
      vertex -0.607437 16.2614 0
      vertex -1.26785 17.7189 0
      vertex -1.02606 17.8191 0
    endloop
  endfacet
  facet normal 0 0 -1
    outer loop
      vertex -2.81908 16.0261 0
      vertex -1.26136 15.6074 0
      vertex -1.3649 15.3115 0
    endloop
  endfacet
  facet normal 0 0 -1
    outer loop
      vertex -2.98858 15.2615 0
      vertex -1.3649 15.3115 0
      vertex -1.4 15 0
    endloop
  endfacet
  facet normal 0 0 -1
    outer loop
      vertex -0.607437 16.2614 0
      vertex -1.5 17.5981 0
      vertex -1.26785 17.7189 0
    endloop
  endfacet
  facet normal 0 0 -1
    outer loop
      vertex -1.26136 14.3926 0
      vertex -3 15 0
      vertex -1.3649 14.6885 0
    endloop
  endfacet
  facet normal 0 0 -1
    outer loop
      vertex -2.45746 -16.7207 0
      vertex -1.09456 -15.8729 0
      vertex -2.29813 -16.9284 0
    endloop
  endfacet
  facet normal 0 0 -1
    outer loop
      vertex -1.3649 14.6885 0
      vertex -3 15 0
      vertex -1.4 15 0
    endloop
  endfacet
  facet normal 0 0 -1
    outer loop
      vertex -2.59808 -16.5 0
      vertex -1.09456 -15.8729 0
      vertex -2.45746 -16.7207 0
    endloop
  endfacet
  facet normal 0 -0 -1
    outer loop
      vertex -2.98858 15.2615 0
      vertex -1.4 15 0
      vertex -3 15 0
    endloop
  endfacet
  facet normal -0 0 -1
    outer loop
      vertex -1.09456 -15.8729 0
      vertex -2.59808 -16.5 0
      vertex -1.26136 -15.6074 0
    endloop
  endfacet
  facet normal 0 0 -1
    outer loop
      vertex -0.872886 16.0946 0
      vertex -1.72073 17.4575 0
      vertex -1.5 17.5981 0
    endloop
  endfacet
  facet normal 0 0 -1
    outer loop
      vertex -2.71892 -16.2679 0
      vertex -1.26136 -15.6074 0
      vertex -2.59808 -16.5 0
    endloop
  endfacet
  facet normal 0 0 -1
    outer loop
      vertex -0.872886 16.0946 0
      vertex -1.92836 17.2981 0
      vertex -1.72073 17.4575 0
    endloop
  endfacet
  facet normal 0 0 -1
    outer loop
      vertex -2.81908 -16.0261 0
      vertex -1.26136 -15.6074 0
      vertex -2.71892 -16.2679 0
    endloop
  endfacet
  facet normal 0 0 -1
    outer loop
      vertex -0.872886 16.0946 0
      vertex -2.12132 17.1213 0
      vertex -1.92836 17.2981 0
    endloop
  endfacet
  facet normal -0 0 -1
    outer loop
      vertex -1.26136 -15.6074 0
      vertex -2.81908 -16.0261 0
      vertex -1.3649 -15.3115 0
    endloop
  endfacet
  facet normal 0 0 -1
    outer loop
      vertex -1.09456 15.8729 0
      vertex -2.29813 16.9284 0
      vertex -2.12132 17.1213 0
    endloop
  endfacet
  facet normal 0 0 -1
    outer loop
      vertex -2.89778 -15.7765 0
      vertex -1.3649 -15.3115 0
      vertex -2.81908 -16.0261 0
    endloop
  endfacet
  facet normal 0 0 -1
    outer loop
      vertex -1.09456 15.8729 0
      vertex -2.45746 16.7207 0
      vertex -2.29813 16.9284 0
    endloop
  endfacet
  facet normal 0 0 -1
    outer loop
      vertex -2.95442 -15.5209 0
      vertex -1.3649 -15.3115 0
      vertex -2.89778 -15.7765 0
    endloop
  endfacet
  facet normal 0 0 -1
    outer loop
      vertex -1.09456 15.8729 0
      vertex -2.59808 16.5 0
      vertex -2.45746 16.7207 0
    endloop
  endfacet
  facet normal 0 0 -1
    outer loop
      vertex -2.98858 -15.2615 0
      vertex -1.3649 -15.3115 0
      vertex -2.95442 -15.5209 0
    endloop
  endfacet
  facet normal 0 0 -1
    outer loop
      vertex -1.26136 15.6074 0
      vertex -2.71892 16.2679 0
      vertex -2.59808 16.5 0
    endloop
  endfacet
  facet normal 0 0 -1
    outer loop
      vertex -1.3649 -15.3115 0
      vertex -2.98858 -15.2615 0
      vertex -1.4 -15 0
    endloop
  endfacet
  facet normal 0 0 -1
    outer loop
      vertex -1.26136 15.6074 0
      vertex -2.81908 16.0261 0
      vertex -2.71892 16.2679 0
    endloop
  endfacet
  facet normal -0 0 -1
    outer loop
      vertex -1.4 -15 0
      vertex -2.98858 -15.2615 0
      vertex -3 -15 0
    endloop
  endfacet
  facet normal 0 0 -1
    outer loop
      vertex -1.3649 15.3115 0
      vertex -2.89778 15.7765 0
      vertex -2.81908 16.0261 0
    endloop
  endfacet
  facet normal 0 0 -1
    outer loop
      vertex -1.3649 15.3115 0
      vertex -2.95442 15.5209 0
      vertex -2.89778 15.7765 0
    endloop
  endfacet
  facet normal -0 0 -1
    outer loop
      vertex -1.3649 15.3115 0
      vertex -2.98858 15.2615 0
      vertex -2.95442 15.5209 0
    endloop
  endfacet
  facet normal 0.0435588 -0.999051 0
    outer loop
      vertex 0 -18 0
      vertex 0.261467 -17.9886 3
      vertex 0 -18 3
    endloop
  endfacet
  facet normal 0.0435588 -0.999051 0
    outer loop
      vertex 0.261467 -17.9886 3
      vertex 0 -18 0
      vertex 0.261467 -17.9886 0
    endloop
  endfacet
  facet normal -0.99144 -0.130561 0
    outer loop
      vertex -2.95442 -15.5209 0
      vertex -2.98858 -15.2615 3
      vertex -2.98858 -15.2615 0
    endloop
  endfacet
  facet normal -0.99144 -0.130561 0
    outer loop
      vertex -2.98858 -15.2615 3
      vertex -2.95442 -15.5209 0
      vertex -2.95442 -15.5209 3
    endloop
  endfacet
  facet normal -0.999048 -0.0436295 0
    outer loop
      vertex -2.98858 -15.2615 0
      vertex -3 -15 3
      vertex -3 -15 0
    endloop
  endfacet
  facet normal -0.999048 -0.0436295 0
    outer loop
      vertex -3 -15 3
      vertex -2.98858 -15.2615 0
      vertex -2.98858 -15.2615 3
    endloop
  endfacet
  facet normal 0.99144 0.130561 0
    outer loop
      vertex 2.98858 15.2615 3
      vertex 2.95442 15.5209 0
      vertex 2.95442 15.5209 3
    endloop
  endfacet
  facet normal 0.99144 0.130561 0
    outer loop
      vertex 2.95442 15.5209 0
      vertex 2.98858 15.2615 3
      vertex 2.98858 15.2615 0
    endloop
  endfacet
  facet normal 1 0 0
    outer loop
      vertex 3 5.75 5.6
      vertex 3 -5.75 5.6
      vertex 3 5.75 3
    endloop
  endfacet
  facet normal 1 -0 0
    outer loop
      vertex 3 5.75 3
      vertex 3 15 0
      vertex 3 15 3
    endloop
  endfacet
  facet normal 1 0 0
    outer loop
      vertex 3 -5.75 3
      vertex 3 5.75 3
      vertex 3 -5.75 5.6
    endloop
  endfacet
  facet normal 1 0 0
    outer loop
      vertex 3 5.75 3
      vertex 3 -5.75 3
      vertex 3 15 0
    endloop
  endfacet
  facet normal 1 0 0
    outer loop
      vertex 3 -15 0
      vertex 3 -5.75 3
      vertex 3 -15 3
    endloop
  endfacet
  facet normal 1 0 0
    outer loop
      vertex 3 -5.75 3
      vertex 3 -15 0
      vertex 3 15 0
    endloop
  endfacet
  facet normal 0.737183 -0.675693 0
    outer loop
      vertex 2.12132 -17.1213 3
      vertex 2.29813 -16.9284 0
      vertex 2.29813 -16.9284 3
    endloop
  endfacet
  facet normal 0.737183 -0.675693 0
    outer loop
      vertex 2.29813 -16.9284 0
      vertex 2.12132 -17.1213 3
      vertex 2.12132 -17.1213 0
    endloop
  endfacet
  facet normal -0.608954 -0.793206 0
    outer loop
      vertex -1.92836 -17.2981 0
      vertex -1.72073 -17.4575 3
      vertex -1.92836 -17.2981 3
    endloop
  endfacet
  facet normal -0.608954 -0.793206 -0
    outer loop
      vertex -1.72073 -17.4575 3
      vertex -1.92836 -17.2981 0
      vertex -1.72073 -17.4575 0
    endloop
  endfacet
  facet normal -0.300707 -0.953716 0
    outer loop
      vertex -1.02606 -17.8191 0
      vertex -0.776457 -17.8978 3
      vertex -1.02606 -17.8191 3
    endloop
  endfacet
  facet normal -0.300707 -0.953716 -0
    outer loop
      vertex -0.776457 -17.8978 3
      vertex -1.02606 -17.8191 0
      vertex -0.776457 -17.8978 0
    endloop
  endfacet
  facet normal 0.999048 0.0436295 0
    outer loop
      vertex 3 15 3
      vertex 2.98858 15.2615 0
      vertex 2.98858 15.2615 3
    endloop
  endfacet
  facet normal 0.999048 0.0436295 0
    outer loop
      vertex 2.98858 15.2615 0
      vertex 3 15 3
      vertex 3 15 0
    endloop
  endfacet
  facet normal 0.923875 -0.382694 0
    outer loop
      vertex 2.71892 -16.2679 3
      vertex 2.81908 -16.0261 0
      vertex 2.81908 -16.0261 3
    endloop
  endfacet
  facet normal 0.923875 -0.382694 0
    outer loop
      vertex 2.81908 -16.0261 0
      vertex 2.71892 -16.2679 3
      vertex 2.71892 -16.2679 0
    endloop
  endfacet
  facet normal 0.461599 -0.887089 0
    outer loop
      vertex 1.26785 -17.7189 0
      vertex 1.5 -17.5981 3
      vertex 1.26785 -17.7189 3
    endloop
  endfacet
  facet normal 0.461599 -0.887089 0
    outer loop
      vertex 1.5 -17.5981 3
      vertex 1.26785 -17.7189 0
      vertex 1.5 -17.5981 0
    endloop
  endfacet
  facet normal 0.608954 -0.793206 0
    outer loop
      vertex 1.72073 -17.4575 0
      vertex 1.92836 -17.2981 3
      vertex 1.72073 -17.4575 3
    endloop
  endfacet
  facet normal 0.608954 -0.793206 0
    outer loop
      vertex 1.92836 -17.2981 3
      vertex 1.72073 -17.4575 0
      vertex 1.92836 -17.2981 0
    endloop
  endfacet
  facet normal -0.843359 -0.53735 0
    outer loop
      vertex -2.45746 -16.7207 0
      vertex -2.59808 -16.5 3
      vertex -2.59808 -16.5 0
    endloop
  endfacet
  facet normal -0.843359 -0.53735 0
    outer loop
      vertex -2.59808 -16.5 3
      vertex -2.45746 -16.7207 0
      vertex -2.45746 -16.7207 3
    endloop
  endfacet
  facet normal -0.130673 -0.991425 0
    outer loop
      vertex -0.520944 -17.9544 0
      vertex -0.261467 -17.9886 3
      vertex -0.520944 -17.9544 3
    endloop
  endfacet
  facet normal -0.130673 -0.991425 -0
    outer loop
      vertex -0.261467 -17.9886 3
      vertex -0.520944 -17.9544 0
      vertex -0.261467 -17.9886 0
    endloop
  endfacet
  facet normal 0.976316 -0.216348 0
    outer loop
      vertex 2.89778 -15.7765 3
      vertex 2.95442 -15.5209 0
      vertex 2.95442 -15.5209 3
    endloop
  endfacet
  facet normal 0.976316 -0.216348 0
    outer loop
      vertex 2.95442 -15.5209 0
      vertex 2.89778 -15.7765 3
      vertex 2.89778 -15.7765 0
    endloop
  endfacet
  facet normal 0.99144 -0.130561 0
    outer loop
      vertex 2.95442 -15.5209 3
      vertex 2.98858 -15.2615 0
      vertex 2.98858 -15.2615 3
    endloop
  endfacet
  facet normal 0.99144 -0.130561 0
    outer loop
      vertex 2.98858 -15.2615 0
      vertex 2.95442 -15.5209 3
      vertex 2.95442 -15.5209 0
    endloop
  endfacet
  facet normal 0.953715 -0.300711 0
    outer loop
      vertex 2.81908 -16.0261 3
      vertex 2.89778 -15.7765 0
      vertex 2.89778 -15.7765 3
    endloop
  endfacet
  facet normal 0.953715 -0.300711 0
    outer loop
      vertex 2.89778 -15.7765 0
      vertex 2.81908 -16.0261 3
      vertex 2.81908 -16.0261 0
    endloop
  endfacet
  facet normal 0.843359 -0.53735 0
    outer loop
      vertex 2.45746 -16.7207 3
      vertex 2.59808 -16.5 0
      vertex 2.59808 -16.5 3
    endloop
  endfacet
  facet normal 0.843359 -0.53735 0
    outer loop
      vertex 2.59808 -16.5 0
      vertex 2.45746 -16.7207 3
      vertex 2.45746 -16.7207 0
    endloop
  endfacet
  facet normal 0.793434 -0.608656 0
    outer loop
      vertex 2.29813 -16.9284 3
      vertex 2.45746 -16.7207 0
      vertex 2.45746 -16.7207 3
    endloop
  endfacet
  facet normal 0.793434 -0.608656 0
    outer loop
      vertex 2.45746 -16.7207 0
      vertex 2.29813 -16.9284 3
      vertex 2.29813 -16.9284 0
    endloop
  endfacet
  facet normal 0.886985 -0.461798 0
    outer loop
      vertex 2.59808 -16.5 3
      vertex 2.71892 -16.2679 0
      vertex 2.71892 -16.2679 3
    endloop
  endfacet
  facet normal 0.886985 -0.461798 0
    outer loop
      vertex 2.71892 -16.2679 0
      vertex 2.59808 -16.5 3
      vertex 2.59808 -16.5 0
    endloop
  endfacet
  facet normal 0.300707 -0.953716 0
    outer loop
      vertex 0.776457 -17.8978 0
      vertex 1.02606 -17.8191 3
      vertex 0.776457 -17.8978 3
    endloop
  endfacet
  facet normal 0.300707 -0.953716 0
    outer loop
      vertex 1.02606 -17.8191 3
      vertex 0.776457 -17.8978 0
      vertex 1.02606 -17.8191 0
    endloop
  endfacet
  facet normal 0.382838 -0.923816 0
    outer loop
      vertex 1.02606 -17.8191 0
      vertex 1.26785 -17.7189 3
      vertex 1.02606 -17.8191 3
    endloop
  endfacet
  facet normal 0.382838 -0.923816 0
    outer loop
      vertex 1.26785 -17.7189 3
      vertex 1.02606 -17.8191 0
      vertex 1.26785 -17.7189 0
    endloop
  endfacet
  facet normal 0.216273 -0.976333 0
    outer loop
      vertex 0.520944 -17.9544 0
      vertex 0.776457 -17.8978 3
      vertex 0.520944 -17.9544 3
    endloop
  endfacet
  facet normal 0.216273 -0.976333 0
    outer loop
      vertex 0.776457 -17.8978 3
      vertex 0.520944 -17.9544 0
      vertex 0.776457 -17.8978 0
    endloop
  endfacet
  facet normal 0.537244 -0.843427 0
    outer loop
      vertex 1.5 -17.5981 0
      vertex 1.72073 -17.4575 3
      vertex 1.5 -17.5981 3
    endloop
  endfacet
  facet normal 0.537244 -0.843427 0
    outer loop
      vertex 1.72073 -17.4575 3
      vertex 1.5 -17.5981 0
      vertex 1.72073 -17.4575 0
    endloop
  endfacet
  facet normal 0.675559 -0.737306 0
    outer loop
      vertex 1.92836 -17.2981 0
      vertex 2.12132 -17.1213 3
      vertex 1.92836 -17.2981 3
    endloop
  endfacet
  facet normal 0.675559 -0.737306 0
    outer loop
      vertex 2.12132 -17.1213 3
      vertex 1.92836 -17.2981 0
      vertex 2.12132 -17.1213 0
    endloop
  endfacet
  facet normal -0.923875 -0.382694 0
    outer loop
      vertex -2.71892 -16.2679 0
      vertex -2.81908 -16.0261 3
      vertex -2.81908 -16.0261 0
    endloop
  endfacet
  facet normal -0.923875 -0.382694 0
    outer loop
      vertex -2.81908 -16.0261 3
      vertex -2.71892 -16.2679 0
      vertex -2.71892 -16.2679 3
    endloop
  endfacet
  facet normal -0.737183 -0.675693 0
    outer loop
      vertex -2.12132 -17.1213 0
      vertex -2.29813 -16.9284 3
      vertex -2.29813 -16.9284 0
    endloop
  endfacet
  facet normal -0.737183 -0.675693 0
    outer loop
      vertex -2.29813 -16.9284 3
      vertex -2.12132 -17.1213 0
      vertex -2.12132 -17.1213 3
    endloop
  endfacet
  facet normal -0.675559 -0.737306 0
    outer loop
      vertex -2.12132 -17.1213 0
      vertex -1.92836 -17.2981 3
      vertex -2.12132 -17.1213 3
    endloop
  endfacet
  facet normal -0.675559 -0.737306 -0
    outer loop
      vertex -1.92836 -17.2981 3
      vertex -2.12132 -17.1213 0
      vertex -1.92836 -17.2981 0
    endloop
  endfacet
  facet normal -0.793434 -0.608656 0
    outer loop
      vertex -2.29813 -16.9284 0
      vertex -2.45746 -16.7207 3
      vertex -2.45746 -16.7207 0
    endloop
  endfacet
  facet normal -0.793434 -0.608656 0
    outer loop
      vertex -2.45746 -16.7207 3
      vertex -2.29813 -16.9284 0
      vertex -2.29813 -16.9284 3
    endloop
  endfacet
  facet normal -0.886985 -0.461798 0
    outer loop
      vertex -2.59808 -16.5 0
      vertex -2.71892 -16.2679 3
      vertex -2.71892 -16.2679 0
    endloop
  endfacet
  facet normal -0.886985 -0.461798 0
    outer loop
      vertex -2.71892 -16.2679 3
      vertex -2.59808 -16.5 0
      vertex -2.59808 -16.5 3
    endloop
  endfacet
  facet normal -0.953715 -0.300711 0
    outer loop
      vertex -2.81908 -16.0261 0
      vertex -2.89778 -15.7765 3
      vertex -2.89778 -15.7765 0
    endloop
  endfacet
  facet normal -0.953715 -0.300711 0
    outer loop
      vertex -2.89778 -15.7765 3
      vertex -2.81908 -16.0261 0
      vertex -2.81908 -16.0261 3
    endloop
  endfacet
  facet normal -0.461599 -0.887089 0
    outer loop
      vertex -1.5 -17.5981 0
      vertex -1.26785 -17.7189 3
      vertex -1.5 -17.5981 3
    endloop
  endfacet
  facet normal -0.461599 -0.887089 -0
    outer loop
      vertex -1.26785 -17.7189 3
      vertex -1.5 -17.5981 0
      vertex -1.26785 -17.7189 0
    endloop
  endfacet
  facet normal -0.382838 -0.923816 0
    outer loop
      vertex -1.26785 -17.7189 0
      vertex -1.02606 -17.8191 3
      vertex -1.26785 -17.7189 3
    endloop
  endfacet
  facet normal -0.382838 -0.923816 -0
    outer loop
      vertex -1.02606 -17.8191 3
      vertex -1.26785 -17.7189 0
      vertex -1.02606 -17.8191 0
    endloop
  endfacet
  facet normal -0.537244 -0.843427 0
    outer loop
      vertex -1.72073 -17.4575 0
      vertex -1.5 -17.5981 3
      vertex -1.72073 -17.4575 3
    endloop
  endfacet
  facet normal -0.537244 -0.843427 -0
    outer loop
      vertex -1.5 -17.5981 3
      vertex -1.72073 -17.4575 0
      vertex -1.5 -17.5981 0
    endloop
  endfacet
  facet normal -0.216273 -0.976333 0
    outer loop
      vertex -0.776457 -17.8978 0
      vertex -0.520944 -17.9544 3
      vertex -0.776457 -17.8978 3
    endloop
  endfacet
  facet normal -0.216273 -0.976333 -0
    outer loop
      vertex -0.520944 -17.9544 3
      vertex -0.776457 -17.8978 0
      vertex -0.520944 -17.9544 0
    endloop
  endfacet
  facet normal -0.0435588 -0.999051 0
    outer loop
      vertex -0.261467 -17.9886 0
      vertex 0 -18 3
      vertex -0.261467 -17.9886 3
    endloop
  endfacet
  facet normal -0.0435588 -0.999051 -0
    outer loop
      vertex 0 -18 3
      vertex -0.261467 -17.9886 0
      vertex 0 -18 0
    endloop
  endfacet
  facet normal 0.0435588 0.999051 -0
    outer loop
      vertex 0.261467 17.9886 0
      vertex 0 18 3
      vertex 0.261467 17.9886 3
    endloop
  endfacet
  facet normal 0.0435588 0.999051 0
    outer loop
      vertex 0 18 3
      vertex 0.261467 17.9886 0
      vertex 0 18 0
    endloop
  endfacet
  facet normal 0.216273 0.976333 -0
    outer loop
      vertex 0.776457 17.8978 0
      vertex 0.520944 17.9544 3
      vertex 0.776457 17.8978 3
    endloop
  endfacet
  facet normal 0.216273 0.976333 0
    outer loop
      vertex 0.520944 17.9544 3
      vertex 0.776457 17.8978 0
      vertex 0.520944 17.9544 0
    endloop
  endfacet
  facet normal 0.537244 0.843427 -0
    outer loop
      vertex 1.72073 17.4575 0
      vertex 1.5 17.5981 3
      vertex 1.72073 17.4575 3
    endloop
  endfacet
  facet normal 0.537244 0.843427 0
    outer loop
      vertex 1.5 17.5981 3
      vertex 1.72073 17.4575 0
      vertex 1.5 17.5981 0
    endloop
  endfacet
  facet normal 0.382838 0.923816 -0
    outer loop
      vertex 1.26785 17.7189 0
      vertex 1.02606 17.8191 3
      vertex 1.26785 17.7189 3
    endloop
  endfacet
  facet normal 0.382838 0.923816 0
    outer loop
      vertex 1.02606 17.8191 3
      vertex 1.26785 17.7189 0
      vertex 1.02606 17.8191 0
    endloop
  endfacet
  facet normal 0.675559 0.737306 -0
    outer loop
      vertex 2.12132 17.1213 0
      vertex 1.92836 17.2981 3
      vertex 2.12132 17.1213 3
    endloop
  endfacet
  facet normal 0.675559 0.737306 0
    outer loop
      vertex 1.92836 17.2981 3
      vertex 2.12132 17.1213 0
      vertex 1.92836 17.2981 0
    endloop
  endfacet
  facet normal 0.793434 0.608656 0
    outer loop
      vertex 2.45746 16.7207 3
      vertex 2.29813 16.9284 0
      vertex 2.29813 16.9284 3
    endloop
  endfacet
  facet normal 0.793434 0.608656 0
    outer loop
      vertex 2.29813 16.9284 0
      vertex 2.45746 16.7207 3
      vertex 2.45746 16.7207 0
    endloop
  endfacet
  facet normal 0.886985 0.461798 0
    outer loop
      vertex 2.71892 16.2679 3
      vertex 2.59808 16.5 0
      vertex 2.59808 16.5 3
    endloop
  endfacet
  facet normal 0.886985 0.461798 0
    outer loop
      vertex 2.59808 16.5 0
      vertex 2.71892 16.2679 3
      vertex 2.71892 16.2679 0
    endloop
  endfacet
  facet normal 0.953715 0.300711 0
    outer loop
      vertex 2.89778 15.7765 3
      vertex 2.81908 16.0261 0
      vertex 2.81908 16.0261 3
    endloop
  endfacet
  facet normal 0.953715 0.300711 0
    outer loop
      vertex 2.81908 16.0261 0
      vertex 2.89778 15.7765 3
      vertex 2.89778 15.7765 0
    endloop
  endfacet
  facet normal -0.608954 0.793206 0
    outer loop
      vertex -1.72073 17.4575 0
      vertex -1.92836 17.2981 3
      vertex -1.72073 17.4575 3
    endloop
  endfacet
  facet normal -0.608954 0.793206 0
    outer loop
      vertex -1.92836 17.2981 3
      vertex -1.72073 17.4575 0
      vertex -1.92836 17.2981 0
    endloop
  endfacet
  facet normal -0.461599 0.887089 0
    outer loop
      vertex -1.26785 17.7189 0
      vertex -1.5 17.5981 3
      vertex -1.26785 17.7189 3
    endloop
  endfacet
  facet normal -0.461599 0.887089 0
    outer loop
      vertex -1.5 17.5981 3
      vertex -1.26785 17.7189 0
      vertex -1.5 17.5981 0
    endloop
  endfacet
  facet normal -0.300707 0.953716 0
    outer loop
      vertex -0.776457 17.8978 0
      vertex -1.02606 17.8191 3
      vertex -0.776457 17.8978 3
    endloop
  endfacet
  facet normal -0.300707 0.953716 0
    outer loop
      vertex -1.02606 17.8191 3
      vertex -0.776457 17.8978 0
      vertex -1.02606 17.8191 0
    endloop
  endfacet
  facet normal -0.130673 0.991425 0
    outer loop
      vertex -0.261467 17.9886 0
      vertex -0.520944 17.9544 3
      vertex -0.261467 17.9886 3
    endloop
  endfacet
  facet normal -0.130673 0.991425 0
    outer loop
      vertex -0.520944 17.9544 3
      vertex -0.261467 17.9886 0
      vertex -0.520944 17.9544 0
    endloop
  endfacet
  facet normal -0.843359 0.53735 0
    outer loop
      vertex -2.59808 16.5 0
      vertex -2.45746 16.7207 3
      vertex -2.45746 16.7207 0
    endloop
  endfacet
  facet normal -0.843359 0.53735 0
    outer loop
      vertex -2.45746 16.7207 3
      vertex -2.59808 16.5 0
      vertex -2.59808 16.5 3
    endloop
  endfacet
  facet normal -0.737183 0.675693 0
    outer loop
      vertex -2.29813 16.9284 0
      vertex -2.12132 17.1213 3
      vertex -2.12132 17.1213 0
    endloop
  endfacet
  facet normal -0.737183 0.675693 0
    outer loop
      vertex -2.12132 17.1213 3
      vertex -2.29813 16.9284 0
      vertex -2.29813 16.9284 3
    endloop
  endfacet
  facet normal -0.923875 0.382694 0
    outer loop
      vertex -2.81908 16.0261 0
      vertex -2.71892 16.2679 3
      vertex -2.71892 16.2679 0
    endloop
  endfacet
  facet normal -0.923875 0.382694 0
    outer loop
      vertex -2.71892 16.2679 3
      vertex -2.81908 16.0261 0
      vertex -2.81908 16.0261 3
    endloop
  endfacet
  facet normal -0.976316 0.216348 0
    outer loop
      vertex -2.95442 15.5209 0
      vertex -2.89778 15.7765 3
      vertex -2.89778 15.7765 0
    endloop
  endfacet
  facet normal -0.976316 0.216348 0
    outer loop
      vertex -2.89778 15.7765 3
      vertex -2.95442 15.5209 0
      vertex -2.95442 15.5209 3
    endloop
  endfacet
  facet normal 0.130673 -0.991425 0
    outer loop
      vertex 0.261467 -17.9886 0
      vertex 0.520944 -17.9544 3
      vertex 0.261467 -17.9886 3
    endloop
  endfacet
  facet normal 0.130673 -0.991425 0
    outer loop
      vertex 0.520944 -17.9544 3
      vertex 0.261467 -17.9886 0
      vertex 0.520944 -17.9544 0
    endloop
  endfacet
  facet normal 0.130673 0.991425 -0
    outer loop
      vertex 0.520944 17.9544 0
      vertex 0.261467 17.9886 3
      vertex 0.520944 17.9544 3
    endloop
  endfacet
  facet normal 0.130673 0.991425 0
    outer loop
      vertex 0.261467 17.9886 3
      vertex 0.520944 17.9544 0
      vertex 0.261467 17.9886 0
    endloop
  endfacet
  facet normal 0.300707 0.953716 -0
    outer loop
      vertex 1.02606 17.8191 0
      vertex 0.776457 17.8978 3
      vertex 1.02606 17.8191 3
    endloop
  endfacet
  facet normal 0.300707 0.953716 0
    outer loop
      vertex 0.776457 17.8978 3
      vertex 1.02606 17.8191 0
      vertex 0.776457 17.8978 0
    endloop
  endfacet
  facet normal 0.608954 0.793206 -0
    outer loop
      vertex 1.92836 17.2981 0
      vertex 1.72073 17.4575 3
      vertex 1.92836 17.2981 3
    endloop
  endfacet
  facet normal 0.608954 0.793206 0
    outer loop
      vertex 1.72073 17.4575 3
      vertex 1.92836 17.2981 0
      vertex 1.72073 17.4575 0
    endloop
  endfacet
  facet normal 0.461599 0.887089 -0
    outer loop
      vertex 1.5 17.5981 0
      vertex 1.26785 17.7189 3
      vertex 1.5 17.5981 3
    endloop
  endfacet
  facet normal 0.461599 0.887089 0
    outer loop
      vertex 1.26785 17.7189 3
      vertex 1.5 17.5981 0
      vertex 1.26785 17.7189 0
    endloop
  endfacet
  facet normal 0.737183 0.675693 0
    outer loop
      vertex 2.29813 16.9284 3
      vertex 2.12132 17.1213 0
      vertex 2.12132 17.1213 3
    endloop
  endfacet
  facet normal 0.737183 0.675693 0
    outer loop
      vertex 2.12132 17.1213 0
      vertex 2.29813 16.9284 3
      vertex 2.29813 16.9284 0
    endloop
  endfacet
  facet normal 0.843359 0.53735 0
    outer loop
      vertex 2.59808 16.5 3
      vertex 2.45746 16.7207 0
      vertex 2.45746 16.7207 3
    endloop
  endfacet
  facet normal 0.843359 0.53735 0
    outer loop
      vertex 2.45746 16.7207 0
      vertex 2.59808 16.5 3
      vertex 2.59808 16.5 0
    endloop
  endfacet
  facet normal 0.923875 0.382694 0
    outer loop
      vertex 2.81908 16.0261 3
      vertex 2.71892 16.2679 0
      vertex 2.71892 16.2679 3
    endloop
  endfacet
  facet normal 0.923875 0.382694 0
    outer loop
      vertex 2.71892 16.2679 0
      vertex 2.81908 16.0261 3
      vertex 2.81908 16.0261 0
    endloop
  endfacet
  facet normal 0.976316 0.216348 0
    outer loop
      vertex 2.95442 15.5209 3
      vertex 2.89778 15.7765 0
      vertex 2.89778 15.7765 3
    endloop
  endfacet
  facet normal 0.976316 0.216348 0
    outer loop
      vertex 2.89778 15.7765 0
      vertex 2.95442 15.5209 3
      vertex 2.95442 15.5209 0
    endloop
  endfacet
  facet normal -0.537244 0.843427 0
    outer loop
      vertex -1.5 17.5981 0
      vertex -1.72073 17.4575 3
      vertex -1.5 17.5981 3
    endloop
  endfacet
  facet normal -0.537244 0.843427 0
    outer loop
      vertex -1.72073 17.4575 3
      vertex -1.5 17.5981 0
      vertex -1.72073 17.4575 0
    endloop
  endfacet
  facet normal -0.382838 0.923816 0
    outer loop
      vertex -1.02606 17.8191 0
      vertex -1.26785 17.7189 3
      vertex -1.02606 17.8191 3
    endloop
  endfacet
  facet normal -0.382838 0.923816 0
    outer loop
      vertex -1.26785 17.7189 3
      vertex -1.02606 17.8191 0
      vertex -1.26785 17.7189 0
    endloop
  endfacet
  facet normal -0.216273 0.976333 0
    outer loop
      vertex -0.520944 17.9544 0
      vertex -0.776457 17.8978 3
      vertex -0.520944 17.9544 3
    endloop
  endfacet
  facet normal -0.216273 0.976333 0
    outer loop
      vertex -0.776457 17.8978 3
      vertex -0.520944 17.9544 0
      vertex -0.776457 17.8978 0
    endloop
  endfacet
  facet normal -0.0435588 0.999051 0
    outer loop
      vertex 0 18 0
      vertex -0.261467 17.9886 3
      vertex 0 18 3
    endloop
  endfacet
  facet normal -0.0435588 0.999051 0
    outer loop
      vertex -0.261467 17.9886 3
      vertex 0 18 0
      vertex -0.261467 17.9886 0
    endloop
  endfacet
  facet normal -0.793434 0.608656 0
    outer loop
      vertex -2.45746 16.7207 0
      vertex -2.29813 16.9284 3
      vertex -2.29813 16.9284 0
    endloop
  endfacet
  facet normal -0.793434 0.608656 0
    outer loop
      vertex -2.29813 16.9284 3
      vertex -2.45746 16.7207 0
      vertex -2.45746 16.7207 3
    endloop
  endfacet
  facet normal -0.675559 0.737306 0
    outer loop
      vertex -1.92836 17.2981 0
      vertex -2.12132 17.1213 3
      vertex -1.92836 17.2981 3
    endloop
  endfacet
  facet normal -0.675559 0.737306 0
    outer loop
      vertex -2.12132 17.1213 3
      vertex -1.92836 17.2981 0
      vertex -2.12132 17.1213 0
    endloop
  endfacet
  facet normal -0.886985 0.461798 0
    outer loop
      vertex -2.71892 16.2679 0
      vertex -2.59808 16.5 3
      vertex -2.59808 16.5 0
    endloop
  endfacet
  facet normal -0.886985 0.461798 0
    outer loop
      vertex -2.59808 16.5 3
      vertex -2.71892 16.2679 0
      vertex -2.71892 16.2679 3
    endloop
  endfacet
  facet normal -0.953715 0.300711 0
    outer loop
      vertex -2.89778 15.7765 0
      vertex -2.81908 16.0261 3
      vertex -2.81908 16.0261 0
    endloop
  endfacet
  facet normal -0.953715 0.300711 0
    outer loop
      vertex -2.81908 16.0261 3
      vertex -2.89778 15.7765 0
      vertex -2.89778 15.7765 3
    endloop
  endfacet
  facet normal -0 0 1
    outer loop
      vertex -3 5.75 5.6
      vertex 3 -5.75 5.6
      vertex 3 5.75 5.6
    endloop
  endfacet
  facet normal 0 0 1
    outer loop
      vertex 3 -5.75 5.6
      vertex -3 5.75 5.6
      vertex -3 -5.75 5.6
    endloop
  endfacet
  facet normal 0 1 -0
    outer loop
      vertex 3 5.75 3
      vertex -3 5.75 5.6
      vertex 3 5.75 5.6
    endloop
  endfacet
  facet normal 0 1 0
    outer loop
      vertex -3 5.75 5.6
      vertex 3 5.75 3
      vertex -3 5.75 3
    endloop
  endfacet
  facet normal 0 -1 0
    outer loop
      vertex -3 -5.75 3
      vertex 3 -5.75 5.6
      vertex -3 -5.75 5.6
    endloop
  endfacet
  facet normal 0 -1 -0
    outer loop
      vertex 3 -5.75 5.6
      vertex -3 -5.75 3
      vertex 3 -5.75 3
    endloop
  endfacet
  facet normal -0.993711 0.111972 0
    outer loop
      vertex 1.3649 14.6885 0
      vertex 1.4 15 3
      vertex 1.4 15 0
    endloop
  endfacet
  facet normal -0.993711 0.111972 0
    outer loop
      vertex 1.4 15 3
      vertex 1.3649 14.6885 0
      vertex 1.3649 14.6885 3
    endloop
  endfacet
  facet normal 0.993711 0.111972 0
    outer loop
      vertex -1.3649 14.6885 3
      vertex -1.4 15 0
      vertex -1.4 15 3
    endloop
  endfacet
  facet normal 0.993711 0.111972 0
    outer loop
      vertex -1.4 15 0
      vertex -1.3649 14.6885 3
      vertex -1.3649 14.6885 0
    endloop
  endfacet
  facet normal -0.111962 0.993713 0
    outer loop
      vertex 0.311529 13.6351 0
      vertex 0 13.6 3
      vertex 0.311529 13.6351 3
    endloop
  endfacet
  facet normal -0.111962 0.993713 0
    outer loop
      vertex 0 13.6 3
      vertex 0.311529 13.6351 0
      vertex 0 13.6 0
    endloop
  endfacet
  facet normal -0.707148 0.707065 0
    outer loop
      vertex 0.872886 13.9054 0
      vertex 1.09456 14.1271 3
      vertex 1.09456 14.1271 0
    endloop
  endfacet
  facet normal -0.707148 0.707065 0
    outer loop
      vertex 1.09456 14.1271 3
      vertex 0.872886 13.9054 0
      vertex 0.872886 13.9054 3
    endloop
  endfacet
  facet normal -0.943883 0.330279 0
    outer loop
      vertex 1.26136 14.3926 0
      vertex 1.3649 14.6885 3
      vertex 1.3649 14.6885 0
    endloop
  endfacet
  facet normal -0.943883 0.330279 0
    outer loop
      vertex 1.3649 14.6885 3
      vertex 1.26136 14.3926 0
      vertex 1.26136 14.3926 3
    endloop
  endfacet
  facet normal -0.532049 0.846714 0
    outer loop
      vertex 0.872886 13.9054 0
      vertex 0.607437 13.7386 3
      vertex 0.872886 13.9054 3
    endloop
  endfacet
  facet normal -0.532049 0.846714 0
    outer loop
      vertex 0.607437 13.7386 3
      vertex 0.872886 13.9054 0
      vertex 0.607437 13.7386 0
    endloop
  endfacet
  facet normal 0.532049 0.846714 -0
    outer loop
      vertex -0.607437 13.7386 0
      vertex -0.872886 13.9054 3
      vertex -0.607437 13.7386 3
    endloop
  endfacet
  facet normal 0.532049 0.846714 0
    outer loop
      vertex -0.872886 13.9054 3
      vertex -0.607437 13.7386 0
      vertex -0.872886 13.9054 0
    endloop
  endfacet
  facet normal 0.330158 0.943926 -0
    outer loop
      vertex -0.311529 13.6351 0
      vertex -0.607437 13.7386 3
      vertex -0.311529 13.6351 3
    endloop
  endfacet
  facet normal 0.330158 0.943926 0
    outer loop
      vertex -0.607437 13.7386 3
      vertex -0.311529 13.6351 0
      vertex -0.607437 13.7386 0
    endloop
  endfacet
  facet normal -0.84676 -0.531976 0
    outer loop
      vertex 1.26136 15.6074 0
      vertex 1.09456 15.8729 3
      vertex 1.09456 15.8729 0
    endloop
  endfacet
  facet normal -0.84676 -0.531976 0
    outer loop
      vertex 1.09456 15.8729 3
      vertex 1.26136 15.6074 0
      vertex 1.26136 15.6074 3
    endloop
  endfacet
  facet normal -0.84676 0.531976 0
    outer loop
      vertex 1.09456 14.1271 0
      vertex 1.26136 14.3926 3
      vertex 1.26136 14.3926 0
    endloop
  endfacet
  facet normal -0.84676 0.531976 0
    outer loop
      vertex 1.26136 14.3926 3
      vertex 1.09456 14.1271 0
      vertex 1.09456 14.1271 3
    endloop
  endfacet
  facet normal -0.330158 0.943926 0
    outer loop
      vertex 0.607437 13.7386 0
      vertex 0.311529 13.6351 3
      vertex 0.607437 13.7386 3
    endloop
  endfacet
  facet normal -0.330158 0.943926 0
    outer loop
      vertex 0.311529 13.6351 3
      vertex 0.607437 13.7386 0
      vertex 0.311529 13.6351 0
    endloop
  endfacet
  facet normal 0.84676 0.531976 0
    outer loop
      vertex -1.09456 14.1271 3
      vertex -1.26136 14.3926 0
      vertex -1.26136 14.3926 3
    endloop
  endfacet
  facet normal 0.84676 0.531976 0
    outer loop
      vertex -1.26136 14.3926 0
      vertex -1.09456 14.1271 3
      vertex -1.09456 14.1271 0
    endloop
  endfacet
  facet normal 0.707148 0.707065 0
    outer loop
      vertex -0.872886 13.9054 3
      vertex -1.09456 14.1271 0
      vertex -1.09456 14.1271 3
    endloop
  endfacet
  facet normal 0.707148 0.707065 0
    outer loop
      vertex -1.09456 14.1271 0
      vertex -0.872886 13.9054 3
      vertex -0.872886 13.9054 0
    endloop
  endfacet
  facet normal 0.943883 0.330279 0
    outer loop
      vertex -1.26136 14.3926 3
      vertex -1.3649 14.6885 0
      vertex -1.3649 14.6885 3
    endloop
  endfacet
  facet normal 0.943883 0.330279 0
    outer loop
      vertex -1.3649 14.6885 0
      vertex -1.26136 14.3926 3
      vertex -1.26136 14.3926 0
    endloop
  endfacet
  facet normal 0.111962 0.993713 -0
    outer loop
      vertex 0 13.6 0
      vertex -0.311529 13.6351 3
      vertex 0 13.6 3
    endloop
  endfacet
  facet normal 0.111962 0.993713 0
    outer loop
      vertex -0.311529 13.6351 3
      vertex 0 13.6 0
      vertex -0.311529 13.6351 0
    endloop
  endfacet
  facet normal -0.993711 -0.111972 0
    outer loop
      vertex 1.4 15 0
      vertex 1.3649 15.3115 3
      vertex 1.3649 15.3115 0
    endloop
  endfacet
  facet normal -0.993711 -0.111972 0
    outer loop
      vertex 1.3649 15.3115 3
      vertex 1.4 15 0
      vertex 1.4 15 3
    endloop
  endfacet
  facet normal -0.111962 -0.993713 0
    outer loop
      vertex 0 16.4 0
      vertex 0.311529 16.3649 3
      vertex 0 16.4 3
    endloop
  endfacet
  facet normal -0.111962 -0.993713 -0
    outer loop
      vertex 0.311529 16.3649 3
      vertex 0 16.4 0
      vertex 0.311529 16.3649 0
    endloop
  endfacet
  facet normal -0.532049 -0.846714 0
    outer loop
      vertex 0.607437 16.2614 0
      vertex 0.872886 16.0946 3
      vertex 0.607437 16.2614 3
    endloop
  endfacet
  facet normal -0.532049 -0.846714 -0
    outer loop
      vertex 0.872886 16.0946 3
      vertex 0.607437 16.2614 0
      vertex 0.872886 16.0946 0
    endloop
  endfacet
  facet normal 0.532049 -0.846714 0
    outer loop
      vertex -0.872886 16.0946 0
      vertex -0.607437 16.2614 3
      vertex -0.872886 16.0946 3
    endloop
  endfacet
  facet normal 0.532049 -0.846714 0
    outer loop
      vertex -0.607437 16.2614 3
      vertex -0.872886 16.0946 0
      vertex -0.607437 16.2614 0
    endloop
  endfacet
  facet normal 0.111962 -0.993713 0
    outer loop
      vertex -0.311529 16.3649 0
      vertex 0 16.4 3
      vertex -0.311529 16.3649 3
    endloop
  endfacet
  facet normal 0.111962 -0.993713 0
    outer loop
      vertex 0 16.4 3
      vertex -0.311529 16.3649 0
      vertex 0 16.4 0
    endloop
  endfacet
  facet normal 0.84676 -0.531976 0
    outer loop
      vertex -1.26136 15.6074 3
      vertex -1.09456 15.8729 0
      vertex -1.09456 15.8729 3
    endloop
  endfacet
  facet normal 0.84676 -0.531976 0
    outer loop
      vertex -1.09456 15.8729 0
      vertex -1.26136 15.6074 3
      vertex -1.26136 15.6074 0
    endloop
  endfacet
  facet normal 0.993711 -0.111972 0
    outer loop
      vertex -1.4 15 3
      vertex -1.3649 15.3115 0
      vertex -1.3649 15.3115 3
    endloop
  endfacet
  facet normal 0.993711 -0.111972 0
    outer loop
      vertex -1.3649 15.3115 0
      vertex -1.4 15 3
      vertex -1.4 15 0
    endloop
  endfacet
  facet normal -0.330158 -0.943926 0
    outer loop
      vertex 0.311529 16.3649 0
      vertex 0.607437 16.2614 3
      vertex 0.311529 16.3649 3
    endloop
  endfacet
  facet normal -0.330158 -0.943926 -0
    outer loop
      vertex 0.607437 16.2614 3
      vertex 0.311529 16.3649 0
      vertex 0.607437 16.2614 0
    endloop
  endfacet
  facet normal -0.707148 -0.707065 0
    outer loop
      vertex 1.09456 15.8729 0
      vertex 0.872886 16.0946 3
      vertex 0.872886 16.0946 0
    endloop
  endfacet
  facet normal -0.707148 -0.707065 0
    outer loop
      vertex 0.872886 16.0946 3
      vertex 1.09456 15.8729 0
      vertex 1.09456 15.8729 3
    endloop
  endfacet
  facet normal -0.943883 -0.330279 0
    outer loop
      vertex 1.3649 15.3115 0
      vertex 1.26136 15.6074 3
      vertex 1.26136 15.6074 0
    endloop
  endfacet
  facet normal -0.943883 -0.330279 0
    outer loop
      vertex 1.26136 15.6074 3
      vertex 1.3649 15.3115 0
      vertex 1.3649 15.3115 3
    endloop
  endfacet
  facet normal 0.330158 -0.943926 0
    outer loop
      vertex -0.607437 16.2614 0
      vertex -0.311529 16.3649 3
      vertex -0.607437 16.2614 3
    endloop
  endfacet
  facet normal 0.330158 -0.943926 0
    outer loop
      vertex -0.311529 16.3649 3
      vertex -0.607437 16.2614 0
      vertex -0.311529 16.3649 0
    endloop
  endfacet
  facet normal 0.707148 -0.707065 0
    outer loop
      vertex -1.09456 15.8729 3
      vertex -0.872886 16.0946 0
      vertex -0.872886 16.0946 3
    endloop
  endfacet
  facet normal 0.707148 -0.707065 0
    outer loop
      vertex -0.872886 16.0946 0
      vertex -1.09456 15.8729 3
      vertex -1.09456 15.8729 0
    endloop
  endfacet
  facet normal 0.943883 -0.330279 0
    outer loop
      vertex -1.3649 15.3115 3
      vertex -1.26136 15.6074 0
      vertex -1.26136 15.6074 3
    endloop
  endfacet
  facet normal 0.943883 -0.330279 0
    outer loop
      vertex -1.26136 15.6074 0
      vertex -1.3649 15.3115 3
      vertex -1.3649 15.3115 0
    endloop
  endfacet
  facet normal -0.532049 0.846714 0
    outer loop
      vertex 0.872886 -16.0946 0
      vertex 0.607437 -16.2614 3
      vertex 0.872886 -16.0946 3
    endloop
  endfacet
  facet normal -0.532049 0.846714 0
    outer loop
      vertex 0.607437 -16.2614 3
      vertex 0.872886 -16.0946 0
      vertex 0.607437 -16.2614 0
    endloop
  endfacet
  facet normal -0.993711 -0.111972 0
    outer loop
      vertex 1.4 -15 0
      vertex 1.3649 -14.6885 3
      vertex 1.3649 -14.6885 0
    endloop
  endfacet
  facet normal -0.993711 -0.111972 0
    outer loop
      vertex 1.3649 -14.6885 3
      vertex 1.4 -15 0
      vertex 1.4 -15 3
    endloop
  endfacet
  facet normal 0.111962 -0.993713 0
    outer loop
      vertex -0.311529 -13.6351 0
      vertex 0 -13.6 3
      vertex -0.311529 -13.6351 3
    endloop
  endfacet
  facet normal 0.111962 -0.993713 0
    outer loop
      vertex 0 -13.6 3
      vertex -0.311529 -13.6351 0
      vertex 0 -13.6 0
    endloop
  endfacet
  facet normal -0.943883 0.330279 0
    outer loop
      vertex 1.26136 -15.6074 0
      vertex 1.3649 -15.3115 3
      vertex 1.3649 -15.3115 0
    endloop
  endfacet
  facet normal -0.943883 0.330279 0
    outer loop
      vertex 1.3649 -15.3115 3
      vertex 1.26136 -15.6074 0
      vertex 1.26136 -15.6074 3
    endloop
  endfacet
  facet normal 0.330158 0.943926 -0
    outer loop
      vertex -0.311529 -16.3649 0
      vertex -0.607437 -16.2614 3
      vertex -0.311529 -16.3649 3
    endloop
  endfacet
  facet normal 0.330158 0.943926 0
    outer loop
      vertex -0.607437 -16.2614 3
      vertex -0.311529 -16.3649 0
      vertex -0.607437 -16.2614 0
    endloop
  endfacet
  facet normal 0.84676 0.531976 0
    outer loop
      vertex -1.09456 -15.8729 3
      vertex -1.26136 -15.6074 0
      vertex -1.26136 -15.6074 3
    endloop
  endfacet
  facet normal 0.84676 0.531976 0
    outer loop
      vertex -1.26136 -15.6074 0
      vertex -1.09456 -15.8729 3
      vertex -1.09456 -15.8729 0
    endloop
  endfacet
  facet normal 0.532049 0.846714 -0
    outer loop
      vertex -0.607437 -16.2614 0
      vertex -0.872886 -16.0946 3
      vertex -0.607437 -16.2614 3
    endloop
  endfacet
  facet normal 0.532049 0.846714 0
    outer loop
      vertex -0.872886 -16.0946 3
      vertex -0.607437 -16.2614 0
      vertex -0.872886 -16.0946 0
    endloop
  endfacet
  facet normal -0.707148 -0.707065 0
    outer loop
      vertex 1.09456 -14.1271 0
      vertex 0.872886 -13.9054 3
      vertex 0.872886 -13.9054 0
    endloop
  endfacet
  facet normal -0.707148 -0.707065 0
    outer loop
      vertex 0.872886 -13.9054 3
      vertex 1.09456 -14.1271 0
      vertex 1.09456 -14.1271 3
    endloop
  endfacet
  facet normal -0.84676 0.531976 0
    outer loop
      vertex 1.09456 -15.8729 0
      vertex 1.26136 -15.6074 3
      vertex 1.26136 -15.6074 0
    endloop
  endfacet
  facet normal -0.84676 0.531976 0
    outer loop
      vertex 1.26136 -15.6074 3
      vertex 1.09456 -15.8729 0
      vertex 1.09456 -15.8729 3
    endloop
  endfacet
  facet normal -0.707148 0.707065 0
    outer loop
      vertex 0.872886 -16.0946 0
      vertex 1.09456 -15.8729 3
      vertex 1.09456 -15.8729 0
    endloop
  endfacet
  facet normal -0.707148 0.707065 0
    outer loop
      vertex 1.09456 -15.8729 3
      vertex 0.872886 -16.0946 0
      vertex 0.872886 -16.0946 3
    endloop
  endfacet
  facet normal -0.111962 0.993713 0
    outer loop
      vertex 0.311529 -16.3649 0
      vertex 0 -16.4 3
      vertex 0.311529 -16.3649 3
    endloop
  endfacet
  facet normal -0.111962 0.993713 0
    outer loop
      vertex 0 -16.4 3
      vertex 0.311529 -16.3649 0
      vertex 0 -16.4 0
    endloop
  endfacet
  facet normal 0.993711 0.111972 0
    outer loop
      vertex -1.3649 -15.3115 3
      vertex -1.4 -15 0
      vertex -1.4 -15 3
    endloop
  endfacet
  facet normal 0.993711 0.111972 0
    outer loop
      vertex -1.4 -15 0
      vertex -1.3649 -15.3115 3
      vertex -1.3649 -15.3115 0
    endloop
  endfacet
  facet normal 0.707148 0.707065 0
    outer loop
      vertex -0.872886 -16.0946 3
      vertex -1.09456 -15.8729 0
      vertex -1.09456 -15.8729 3
    endloop
  endfacet
  facet normal 0.707148 0.707065 0
    outer loop
      vertex -1.09456 -15.8729 0
      vertex -0.872886 -16.0946 3
      vertex -0.872886 -16.0946 0
    endloop
  endfacet
  facet normal 0.111962 0.993713 -0
    outer loop
      vertex 0 -16.4 0
      vertex -0.311529 -16.3649 3
      vertex 0 -16.4 3
    endloop
  endfacet
  facet normal 0.111962 0.993713 0
    outer loop
      vertex -0.311529 -16.3649 3
      vertex 0 -16.4 0
      vertex -0.311529 -16.3649 0
    endloop
  endfacet
  facet normal -0.993711 0.111972 0
    outer loop
      vertex 1.3649 -15.3115 0
      vertex 1.4 -15 3
      vertex 1.4 -15 0
    endloop
  endfacet
  facet normal -0.993711 0.111972 0
    outer loop
      vertex 1.4 -15 3
      vertex 1.3649 -15.3115 0
      vertex 1.3649 -15.3115 3
    endloop
  endfacet
  facet normal -0.111962 -0.993713 0
    outer loop
      vertex 0 -13.6 0
      vertex 0.311529 -13.6351 3
      vertex 0 -13.6 3
    endloop
  endfacet
  facet normal -0.111962 -0.993713 -0
    outer loop
      vertex 0.311529 -13.6351 3
      vertex 0 -13.6 0
      vertex 0.311529 -13.6351 0
    endloop
  endfacet
  facet normal -0.84676 -0.531976 0
    outer loop
      vertex 1.26136 -14.3926 0
      vertex 1.09456 -14.1271 3
      vertex 1.09456 -14.1271 0
    endloop
  endfacet
  facet normal -0.84676 -0.531976 0
    outer loop
      vertex 1.09456 -14.1271 3
      vertex 1.26136 -14.3926 0
      vertex 1.26136 -14.3926 3
    endloop
  endfacet
  facet normal -0.943883 -0.330279 0
    outer loop
      vertex 1.3649 -14.6885 0
      vertex 1.26136 -14.3926 3
      vertex 1.26136 -14.3926 0
    endloop
  endfacet
  facet normal -0.943883 -0.330279 0
    outer loop
      vertex 1.26136 -14.3926 3
      vertex 1.3649 -14.6885 0
      vertex 1.3649 -14.6885 3
    endloop
  endfacet
  facet normal -0.330158 -0.943926 0
    outer loop
      vertex 0.311529 -13.6351 0
      vertex 0.607437 -13.7386 3
      vertex 0.311529 -13.6351 3
    endloop
  endfacet
  facet normal -0.330158 -0.943926 -0
    outer loop
      vertex 0.607437 -13.7386 3
      vertex 0.311529 -13.6351 0
      vertex 0.607437 -13.7386 0
    endloop
  endfacet
  facet normal -0.532049 -0.846714 0
    outer loop
      vertex 0.607437 -13.7386 0
      vertex 0.872886 -13.9054 3
      vertex 0.607437 -13.7386 3
    endloop
  endfacet
  facet normal -0.532049 -0.846714 -0
    outer loop
      vertex 0.872886 -13.9054 3
      vertex 0.607437 -13.7386 0
      vertex 0.872886 -13.9054 0
    endloop
  endfacet
  facet normal 0.532049 -0.846714 0
    outer loop
      vertex -0.872886 -13.9054 0
      vertex -0.607437 -13.7386 3
      vertex -0.872886 -13.9054 3
    endloop
  endfacet
  facet normal 0.532049 -0.846714 0
    outer loop
      vertex -0.607437 -13.7386 3
      vertex -0.872886 -13.9054 0
      vertex -0.607437 -13.7386 0
    endloop
  endfacet
  facet normal 0.84676 -0.531976 0
    outer loop
      vertex -1.26136 -14.3926 3
      vertex -1.09456 -14.1271 0
      vertex -1.09456 -14.1271 3
    endloop
  endfacet
  facet normal 0.84676 -0.531976 0
    outer loop
      vertex -1.09456 -14.1271 0
      vertex -1.26136 -14.3926 3
      vertex -1.26136 -14.3926 0
    endloop
  endfacet
  facet normal 0.993711 -0.111972 0
    outer loop
      vertex -1.4 -15 3
      vertex -1.3649 -14.6885 0
      vertex -1.3649 -14.6885 3
    endloop
  endfacet
  facet normal 0.993711 -0.111972 0
    outer loop
      vertex -1.3649 -14.6885 0
      vertex -1.4 -15 3
      vertex -1.4 -15 0
    endloop
  endfacet
  facet normal 0.707148 -0.707065 0
    outer loop
      vertex -1.09456 -14.1271 3
      vertex -0.872886 -13.9054 0
      vertex -0.872886 -13.9054 3
    endloop
  endfacet
  facet normal 0.707148 -0.707065 0
    outer loop
      vertex -0.872886 -13.9054 0
      vertex -1.09456 -14.1271 3
      vertex -1.09456 -14.1271 0
    endloop
  endfacet
  facet normal -0.330158 0.943926 0
    outer loop
      vertex 0.607437 -16.2614 0
      vertex 0.311529 -16.3649 3
      vertex 0.607437 -16.2614 3
    endloop
  endfacet
  facet normal -0.330158 0.943926 0
    outer loop
      vertex 0.311529 -16.3649 3
      vertex 0.607437 -16.2614 0
      vertex 0.311529 -16.3649 0
    endloop
  endfacet
  facet normal 0.943883 0.330279 0
    outer loop
      vertex -1.26136 -15.6074 3
      vertex -1.3649 -15.3115 0
      vertex -1.3649 -15.3115 3
    endloop
  endfacet
  facet normal 0.943883 0.330279 0
    outer loop
      vertex -1.3649 -15.3115 0
      vertex -1.26136 -15.6074 3
      vertex -1.26136 -15.6074 0
    endloop
  endfacet
  facet normal 0.330158 -0.943926 0
    outer loop
      vertex -0.607437 -13.7386 0
      vertex -0.311529 -13.6351 3
      vertex -0.607437 -13.7386 3
    endloop
  endfacet
  facet normal 0.330158 -0.943926 0
    outer loop
      vertex -0.311529 -13.6351 3
      vertex -0.607437 -13.7386 0
      vertex -0.311529 -13.6351 0
    endloop
  endfacet
  facet normal 0.943883 -0.330279 0
    outer loop
      vertex -1.3649 -14.6885 3
      vertex -1.26136 -14.3926 0
      vertex -1.26136 -14.3926 3
    endloop
  endfacet
  facet normal 0.943883 -0.330279 0
    outer loop
      vertex -1.26136 -14.3926 0
      vertex -1.3649 -14.6885 3
      vertex -1.3649 -14.6885 0
    endloop
  endfacet
endsolid OpenSCAD_Model
