solid OpenSCAD_Model
  facet normal -0.995184 -0.0980244 0
    outer loop
      vertex 1.4 -10.5 0
      vertex 1.3731 -10.2269 2.5
      vertex 1.3731 -10.2269 0
    endloop
  endfacet
  facet normal -0.995184 -0.0980244 0
    outer loop
      vertex 1.3731 -10.2269 2.5
      vertex 1.4 -10.5 0
      vertex 1.4 -10.5 2.5
    endloop
  endfacet
  facet normal 0.995184 -0.0980244 0
    outer loop
      vertex -1.4 -10.5 2.5
      vertex -1.3731 -10.2269 0
      vertex -1.3731 -10.2269 2.5
    endloop
  endfacet
  facet normal 0.995184 -0.0980244 0
    outer loop
      vertex -1.3731 -10.2269 0
      vertex -1.4 -10.5 2.5
      vertex -1.4 -10.5 0
    endloop
  endfacet
  facet normal 0.0980151 -0.995185 0
    outer loop
      vertex -0.273126 -9.1269 0
      vertex 0 -9.1 2.5
      vertex -0.273126 -9.1269 2.5
    endloop
  endfacet
  facet normal 0.0980151 -0.995185 0
    outer loop
      vertex 0 -9.1 2.5
      vertex -0.273126 -9.1269 0
      vertex 0 -9.1 0
    endloop
  endfacet
  facet normal -0.0980151 0.995185 0
    outer loop
      vertex 0.273126 -11.8731 0
      vertex 0 -11.9 2.5
      vertex 0.273126 -11.8731 2.5
    endloop
  endfacet
  facet normal -0.0980151 0.995185 0
    outer loop
      vertex 0 -11.9 2.5
      vertex 0.273126 -11.8731 0
      vertex 0 -11.9 0
    endloop
  endfacet
  facet normal -0.634398 -0.773007 0
    outer loop
      vertex 0.777798 -9.33594 0
      vertex 0.989949 -9.51005 2.5
      vertex 0.777798 -9.33594 2.5
    endloop
  endfacet
  facet normal -0.634398 -0.773007 -0
    outer loop
      vertex 0.989949 -9.51005 2.5
      vertex 0.777798 -9.33594 0
      vertex 0.989949 -9.51005 0
    endloop
  endfacet
  facet normal 0.634398 -0.773007 0
    outer loop
      vertex -0.989949 -9.51005 0
      vertex -0.777798 -9.33594 2.5
      vertex -0.989949 -9.51005 2.5
    endloop
  endfacet
  facet normal 0.634398 -0.773007 0
    outer loop
      vertex -0.777798 -9.33594 2.5
      vertex -0.989949 -9.51005 0
      vertex -0.777798 -9.33594 0
    endloop
  endfacet
  facet normal 0.290292 -0.956938 0
    outer loop
      vertex -0.535756 -9.20657 0
      vertex -0.273126 -9.1269 2.5
      vertex -0.535756 -9.20657 2.5
    endloop
  endfacet
  facet normal 0.290292 -0.956938 0
    outer loop
      vertex -0.273126 -9.1269 2.5
      vertex -0.535756 -9.20657 0
      vertex -0.273126 -9.1269 0
    endloop
  endfacet
  facet normal -0.881894 0.471449 0
    outer loop
      vertex 1.16406 -11.2778 0
      vertex 1.29343 -11.0358 2.5
      vertex 1.29343 -11.0358 0
    endloop
  endfacet
  facet normal -0.881894 0.471449 0
    outer loop
      vertex 1.29343 -11.0358 2.5
      vertex 1.16406 -11.2778 0
      vertex 1.16406 -11.2778 2.5
    endloop
  endfacet
  facet normal -0.881926 -0.471388 0
    outer loop
      vertex 1.29343 -9.96424 0
      vertex 1.16406 -9.7222 2.5
      vertex 1.16406 -9.7222 0
    endloop
  endfacet
  facet normal -0.881926 -0.471388 0
    outer loop
      vertex 1.16406 -9.7222 2.5
      vertex 1.29343 -9.96424 0
      vertex 1.29343 -9.96424 2.5
    endloop
  endfacet
  facet normal -0.956947 -0.290261 0
    outer loop
      vertex 1.3731 -10.2269 0
      vertex 1.29343 -9.96424 2.5
      vertex 1.29343 -9.96424 0
    endloop
  endfacet
  facet normal -0.956947 -0.290261 0
    outer loop
      vertex 1.29343 -9.96424 2.5
      vertex 1.3731 -10.2269 0
      vertex 1.3731 -10.2269 2.5
    endloop
  endfacet
  facet normal -0.773003 -0.634402 0
    outer loop
      vertex 1.16406 -9.7222 0
      vertex 0.989949 -9.51005 2.5
      vertex 0.989949 -9.51005 0
    endloop
  endfacet
  facet normal -0.773003 -0.634402 0
    outer loop
      vertex 0.989949 -9.51005 2.5
      vertex 1.16406 -9.7222 0
      vertex 1.16406 -9.7222 2.5
    endloop
  endfacet
  facet normal -0.290292 -0.956938 0
    outer loop
      vertex 0.273126 -9.1269 0
      vertex 0.535756 -9.20657 2.5
      vertex 0.273126 -9.1269 2.5
    endloop
  endfacet
  facet normal -0.290292 -0.956938 -0
    outer loop
      vertex 0.535756 -9.20657 2.5
      vertex 0.273126 -9.1269 0
      vertex 0.535756 -9.20657 0
    endloop
  endfacet
  facet normal -0.0980151 -0.995185 0
    outer loop
      vertex 0 -9.1 0
      vertex 0.273126 -9.1269 2.5
      vertex 0 -9.1 2.5
    endloop
  endfacet
  facet normal -0.0980151 -0.995185 -0
    outer loop
      vertex 0.273126 -9.1269 2.5
      vertex 0 -9.1 0
      vertex 0.273126 -9.1269 0
    endloop
  endfacet
  facet normal -0.471385 -0.881928 0
    outer loop
      vertex 0.535756 -9.20657 0
      vertex 0.777798 -9.33594 2.5
      vertex 0.535756 -9.20657 2.5
    endloop
  endfacet
  facet normal -0.471385 -0.881928 -0
    outer loop
      vertex 0.777798 -9.33594 2.5
      vertex 0.535756 -9.20657 0
      vertex 0.777798 -9.33594 0
    endloop
  endfacet
  facet normal 0.881926 -0.471388 0
    outer loop
      vertex -1.29343 -9.96424 2.5
      vertex -1.16406 -9.7222 0
      vertex -1.16406 -9.7222 2.5
    endloop
  endfacet
  facet normal 0.881926 -0.471388 0
    outer loop
      vertex -1.16406 -9.7222 0
      vertex -1.29343 -9.96424 2.5
      vertex -1.29343 -9.96424 0
    endloop
  endfacet
  facet normal 0.773003 -0.634402 0
    outer loop
      vertex -1.16406 -9.7222 2.5
      vertex -0.989949 -9.51005 0
      vertex -0.989949 -9.51005 2.5
    endloop
  endfacet
  facet normal 0.773003 -0.634402 0
    outer loop
      vertex -0.989949 -9.51005 0
      vertex -1.16406 -9.7222 2.5
      vertex -1.16406 -9.7222 0
    endloop
  endfacet
  facet normal 0.956947 -0.290261 0
    outer loop
      vertex -1.3731 -10.2269 2.5
      vertex -1.29343 -9.96424 0
      vertex -1.29343 -9.96424 2.5
    endloop
  endfacet
  facet normal 0.956947 -0.290261 0
    outer loop
      vertex -1.29343 -9.96424 0
      vertex -1.3731 -10.2269 2.5
      vertex -1.3731 -10.2269 0
    endloop
  endfacet
  facet normal 0.471385 -0.881928 0
    outer loop
      vertex -0.777798 -9.33594 0
      vertex -0.535756 -9.20657 2.5
      vertex -0.777798 -9.33594 2.5
    endloop
  endfacet
  facet normal 0.471385 -0.881928 0
    outer loop
      vertex -0.535756 -9.20657 2.5
      vertex -0.777798 -9.33594 0
      vertex -0.535756 -9.20657 0
    endloop
  endfacet
  facet normal -0.290392 0.956908 0
    outer loop
      vertex 0.535756 -11.7934 0
      vertex 0.273126 -11.8731 2.5
      vertex 0.535756 -11.7934 2.5
    endloop
  endfacet
  facet normal -0.290392 0.956908 0
    outer loop
      vertex 0.273126 -11.8731 2.5
      vertex 0.535756 -11.7934 0
      vertex 0.273126 -11.8731 0
    endloop
  endfacet
  facet normal -0.634594 0.772846 0
    outer loop
      vertex 0.989949 -11.4899 0
      vertex 0.777798 -11.6641 2.5
      vertex 0.989949 -11.4899 2.5
    endloop
  endfacet
  facet normal -0.634594 0.772846 0
    outer loop
      vertex 0.777798 -11.6641 2.5
      vertex 0.989949 -11.4899 0
      vertex 0.777798 -11.6641 0
    endloop
  endfacet
  facet normal -0.77293 0.634491 0
    outer loop
      vertex 0.989949 -11.4899 0
      vertex 1.16406 -11.2778 2.5
      vertex 1.16406 -11.2778 0
    endloop
  endfacet
  facet normal -0.77293 0.634491 0
    outer loop
      vertex 1.16406 -11.2778 2.5
      vertex 0.989949 -11.4899 0
      vertex 0.989949 -11.4899 2.5
    endloop
  endfacet
  facet normal -0.95696 0.290221 0
    outer loop
      vertex 1.29343 -11.0358 0
      vertex 1.3731 -10.7731 2.5
      vertex 1.3731 -10.7731 0
    endloop
  endfacet
  facet normal -0.95696 0.290221 0
    outer loop
      vertex 1.3731 -10.7731 2.5
      vertex 1.29343 -11.0358 0
      vertex 1.29343 -11.0358 2.5
    endloop
  endfacet
  facet normal -0.995184 0.0980244 0
    outer loop
      vertex 1.3731 -10.7731 0
      vertex 1.4 -10.5 2.5
      vertex 1.4 -10.5 0
    endloop
  endfacet
  facet normal -0.995184 0.0980244 0
    outer loop
      vertex 1.4 -10.5 2.5
      vertex 1.3731 -10.7731 0
      vertex 1.3731 -10.7731 2.5
    endloop
  endfacet
  facet normal 0.634594 0.772846 -0
    outer loop
      vertex -0.777798 -11.6641 0
      vertex -0.989949 -11.4899 2.5
      vertex -0.777798 -11.6641 2.5
    endloop
  endfacet
  facet normal 0.634594 0.772846 0
    outer loop
      vertex -0.989949 -11.4899 2.5
      vertex -0.777798 -11.6641 0
      vertex -0.989949 -11.4899 0
    endloop
  endfacet
  facet normal 0.881894 0.471449 0
    outer loop
      vertex -1.16406 -11.2778 2.5
      vertex -1.29343 -11.0358 0
      vertex -1.29343 -11.0358 2.5
    endloop
  endfacet
  facet normal 0.881894 0.471449 0
    outer loop
      vertex -1.29343 -11.0358 0
      vertex -1.16406 -11.2778 2.5
      vertex -1.16406 -11.2778 0
    endloop
  endfacet
  facet normal 0.77293 0.634491 0
    outer loop
      vertex -0.989949 -11.4899 2.5
      vertex -1.16406 -11.2778 0
      vertex -1.16406 -11.2778 2.5
    endloop
  endfacet
  facet normal 0.77293 0.634491 0
    outer loop
      vertex -1.16406 -11.2778 0
      vertex -0.989949 -11.4899 2.5
      vertex -0.989949 -11.4899 0
    endloop
  endfacet
  facet normal -0.471187 0.882034 0
    outer loop
      vertex 0.777798 -11.6641 0
      vertex 0.535756 -11.7934 2.5
      vertex 0.777798 -11.6641 2.5
    endloop
  endfacet
  facet normal -0.471187 0.882034 0
    outer loop
      vertex 0.535756 -11.7934 2.5
      vertex 0.777798 -11.6641 0
      vertex 0.535756 -11.7934 0
    endloop
  endfacet
  facet normal 0.290392 0.956908 -0
    outer loop
      vertex -0.273126 -11.8731 0
      vertex -0.535756 -11.7934 2.5
      vertex -0.273126 -11.8731 2.5
    endloop
  endfacet
  facet normal 0.290392 0.956908 0
    outer loop
      vertex -0.535756 -11.7934 2.5
      vertex -0.273126 -11.8731 0
      vertex -0.535756 -11.7934 0
    endloop
  endfacet
  facet normal 0.95696 0.290221 0
    outer loop
      vertex -1.29343 -11.0358 2.5
      vertex -1.3731 -10.7731 0
      vertex -1.3731 -10.7731 2.5
    endloop
  endfacet
  facet normal 0.95696 0.290221 0
    outer loop
      vertex -1.3731 -10.7731 0
      vertex -1.29343 -11.0358 2.5
      vertex -1.29343 -11.0358 0
    endloop
  endfacet
  facet normal 0.995184 0.0980244 0
    outer loop
      vertex -1.3731 -10.7731 2.5
      vertex -1.4 -10.5 0
      vertex -1.4 -10.5 2.5
    endloop
  endfacet
  facet normal 0.995184 0.0980244 0
    outer loop
      vertex -1.4 -10.5 0
      vertex -1.3731 -10.7731 2.5
      vertex -1.3731 -10.7731 0
    endloop
  endfacet
  facet normal 0.0980151 0.995185 -0
    outer loop
      vertex 0 -11.9 0
      vertex -0.273126 -11.8731 2.5
      vertex 0 -11.9 2.5
    endloop
  endfacet
  facet normal 0.0980151 0.995185 0
    outer loop
      vertex -0.273126 -11.8731 2.5
      vertex 0 -11.9 0
      vertex -0.273126 -11.8731 0
    endloop
  endfacet
  facet normal 0.471187 0.882034 -0
    outer loop
      vertex -0.535756 -11.7934 0
      vertex -0.777798 -11.6641 2.5
      vertex -0.535756 -11.7934 2.5
    endloop
  endfacet
  facet normal 0.471187 0.882034 0
    outer loop
      vertex -0.777798 -11.6641 2.5
      vertex -0.535756 -11.7934 0
      vertex -0.777798 -11.6641 0
    endloop
  endfacet
  facet normal -0.471187 -0.882034 0
    outer loop
      vertex 0.535756 11.7934 0
      vertex 0.777798 11.6641 2.5
      vertex 0.535756 11.7934 2.5
    endloop
  endfacet
  facet normal -0.471187 -0.882034 -0
    outer loop
      vertex 0.777798 11.6641 2.5
      vertex 0.535756 11.7934 0
      vertex 0.777798 11.6641 0
    endloop
  endfacet
  facet normal -0.995184 0.0980244 0
    outer loop
      vertex 1.3731 10.2269 0
      vertex 1.4 10.5 2.5
      vertex 1.4 10.5 0
    endloop
  endfacet
  facet normal -0.995184 0.0980244 0
    outer loop
      vertex 1.4 10.5 2.5
      vertex 1.3731 10.2269 0
      vertex 1.3731 10.2269 2.5
    endloop
  endfacet
  facet normal 0.0980151 0.995185 -0
    outer loop
      vertex 0 9.1 0
      vertex -0.273126 9.1269 2.5
      vertex 0 9.1 2.5
    endloop
  endfacet
  facet normal 0.0980151 0.995185 0
    outer loop
      vertex -0.273126 9.1269 2.5
      vertex 0 9.1 0
      vertex -0.273126 9.1269 0
    endloop
  endfacet
  facet normal 0.471187 -0.882034 0
    outer loop
      vertex -0.777798 11.6641 0
      vertex -0.535756 11.7934 2.5
      vertex -0.777798 11.6641 2.5
    endloop
  endfacet
  facet normal 0.471187 -0.882034 0
    outer loop
      vertex -0.535756 11.7934 2.5
      vertex -0.777798 11.6641 0
      vertex -0.535756 11.7934 0
    endloop
  endfacet
  facet normal 0.95696 -0.290221 0
    outer loop
      vertex -1.3731 10.7731 2.5
      vertex -1.29343 11.0358 0
      vertex -1.29343 11.0358 2.5
    endloop
  endfacet
  facet normal 0.95696 -0.290221 0
    outer loop
      vertex -1.29343 11.0358 0
      vertex -1.3731 10.7731 2.5
      vertex -1.3731 10.7731 0
    endloop
  endfacet
  facet normal 0.773003 0.634402 0
    outer loop
      vertex -0.989949 9.51005 2.5
      vertex -1.16406 9.7222 0
      vertex -1.16406 9.7222 2.5
    endloop
  endfacet
  facet normal 0.773003 0.634402 0
    outer loop
      vertex -1.16406 9.7222 0
      vertex -0.989949 9.51005 2.5
      vertex -0.989949 9.51005 0
    endloop
  endfacet
  facet normal -0.881894 -0.471449 0
    outer loop
      vertex 1.29343 11.0358 0
      vertex 1.16406 11.2778 2.5
      vertex 1.16406 11.2778 0
    endloop
  endfacet
  facet normal -0.881894 -0.471449 0
    outer loop
      vertex 1.16406 11.2778 2.5
      vertex 1.29343 11.0358 0
      vertex 1.29343 11.0358 2.5
    endloop
  endfacet
  facet normal -0.77293 -0.634491 0
    outer loop
      vertex 1.16406 11.2778 0
      vertex 0.989949 11.4899 2.5
      vertex 0.989949 11.4899 0
    endloop
  endfacet
  facet normal -0.77293 -0.634491 0
    outer loop
      vertex 0.989949 11.4899 2.5
      vertex 1.16406 11.2778 0
      vertex 1.16406 11.2778 2.5
    endloop
  endfacet
  facet normal -0.634594 -0.772846 0
    outer loop
      vertex 0.777798 11.6641 0
      vertex 0.989949 11.4899 2.5
      vertex 0.777798 11.6641 2.5
    endloop
  endfacet
  facet normal -0.634594 -0.772846 -0
    outer loop
      vertex 0.989949 11.4899 2.5
      vertex 0.777798 11.6641 0
      vertex 0.989949 11.4899 0
    endloop
  endfacet
  facet normal -0.290392 -0.956908 0
    outer loop
      vertex 0.273126 11.8731 0
      vertex 0.535756 11.7934 2.5
      vertex 0.273126 11.8731 2.5
    endloop
  endfacet
  facet normal -0.290392 -0.956908 -0
    outer loop
      vertex 0.535756 11.7934 2.5
      vertex 0.273126 11.8731 0
      vertex 0.535756 11.7934 0
    endloop
  endfacet
  facet normal 0.0980151 -0.995185 0
    outer loop
      vertex -0.273126 11.8731 0
      vertex 0 11.9 2.5
      vertex -0.273126 11.8731 2.5
    endloop
  endfacet
  facet normal 0.0980151 -0.995185 0
    outer loop
      vertex 0 11.9 2.5
      vertex -0.273126 11.8731 0
      vertex 0 11.9 0
    endloop
  endfacet
  facet normal -0.0980151 -0.995185 0
    outer loop
      vertex 0 11.9 0
      vertex 0.273126 11.8731 2.5
      vertex 0 11.9 2.5
    endloop
  endfacet
  facet normal -0.0980151 -0.995185 -0
    outer loop
      vertex 0.273126 11.8731 2.5
      vertex 0 11.9 0
      vertex 0.273126 11.8731 0
    endloop
  endfacet
  facet normal 0.995184 0.0980244 0
    outer loop
      vertex -1.3731 10.2269 2.5
      vertex -1.4 10.5 0
      vertex -1.4 10.5 2.5
    endloop
  endfacet
  facet normal 0.995184 0.0980244 0
    outer loop
      vertex -1.4 10.5 0
      vertex -1.3731 10.2269 2.5
      vertex -1.3731 10.2269 0
    endloop
  endfacet
  facet normal 0.881894 -0.471449 0
    outer loop
      vertex -1.29343 11.0358 2.5
      vertex -1.16406 11.2778 0
      vertex -1.16406 11.2778 2.5
    endloop
  endfacet
  facet normal 0.881894 -0.471449 0
    outer loop
      vertex -1.16406 11.2778 0
      vertex -1.29343 11.0358 2.5
      vertex -1.29343 11.0358 0
    endloop
  endfacet
  facet normal 0.634594 -0.772846 0
    outer loop
      vertex -0.989949 11.4899 0
      vertex -0.777798 11.6641 2.5
      vertex -0.989949 11.4899 2.5
    endloop
  endfacet
  facet normal 0.634594 -0.772846 0
    outer loop
      vertex -0.777798 11.6641 2.5
      vertex -0.989949 11.4899 0
      vertex -0.777798 11.6641 0
    endloop
  endfacet
  facet normal 0.290392 -0.956908 0
    outer loop
      vertex -0.535756 11.7934 0
      vertex -0.273126 11.8731 2.5
      vertex -0.535756 11.7934 2.5
    endloop
  endfacet
  facet normal 0.290392 -0.956908 0
    outer loop
      vertex -0.273126 11.8731 2.5
      vertex -0.535756 11.7934 0
      vertex -0.273126 11.8731 0
    endloop
  endfacet
  facet normal 0.77293 -0.634491 0
    outer loop
      vertex -1.16406 11.2778 2.5
      vertex -0.989949 11.4899 0
      vertex -0.989949 11.4899 2.5
    endloop
  endfacet
  facet normal 0.77293 -0.634491 0
    outer loop
      vertex -0.989949 11.4899 0
      vertex -1.16406 11.2778 2.5
      vertex -1.16406 11.2778 0
    endloop
  endfacet
  facet normal -0.995184 -0.0980244 0
    outer loop
      vertex 1.4 10.5 0
      vertex 1.3731 10.7731 2.5
      vertex 1.3731 10.7731 0
    endloop
  endfacet
  facet normal -0.995184 -0.0980244 0
    outer loop
      vertex 1.3731 10.7731 2.5
      vertex 1.4 10.5 0
      vertex 1.4 10.5 2.5
    endloop
  endfacet
  facet normal -0.290292 0.956938 0
    outer loop
      vertex 0.535756 9.20657 0
      vertex 0.273126 9.1269 2.5
      vertex 0.535756 9.20657 2.5
    endloop
  endfacet
  facet normal -0.290292 0.956938 0
    outer loop
      vertex 0.273126 9.1269 2.5
      vertex 0.535756 9.20657 0
      vertex 0.273126 9.1269 0
    endloop
  endfacet
  facet normal -0.881926 0.471388 0
    outer loop
      vertex 1.16406 9.7222 0
      vertex 1.29343 9.96424 2.5
      vertex 1.29343 9.96424 0
    endloop
  endfacet
  facet normal -0.881926 0.471388 0
    outer loop
      vertex 1.29343 9.96424 2.5
      vertex 1.16406 9.7222 0
      vertex 1.16406 9.7222 2.5
    endloop
  endfacet
  facet normal -0.956947 0.290261 0
    outer loop
      vertex 1.29343 9.96424 0
      vertex 1.3731 10.2269 2.5
      vertex 1.3731 10.2269 0
    endloop
  endfacet
  facet normal -0.956947 0.290261 0
    outer loop
      vertex 1.3731 10.2269 2.5
      vertex 1.29343 9.96424 0
      vertex 1.29343 9.96424 2.5
    endloop
  endfacet
  facet normal -0.471385 0.881928 0
    outer loop
      vertex 0.777798 9.33594 0
      vertex 0.535756 9.20657 2.5
      vertex 0.777798 9.33594 2.5
    endloop
  endfacet
  facet normal -0.471385 0.881928 0
    outer loop
      vertex 0.535756 9.20657 2.5
      vertex 0.777798 9.33594 0
      vertex 0.535756 9.20657 0
    endloop
  endfacet
  facet normal -0.634398 0.773007 0
    outer loop
      vertex 0.989949 9.51005 0
      vertex 0.777798 9.33594 2.5
      vertex 0.989949 9.51005 2.5
    endloop
  endfacet
  facet normal -0.634398 0.773007 0
    outer loop
      vertex 0.777798 9.33594 2.5
      vertex 0.989949 9.51005 0
      vertex 0.777798 9.33594 0
    endloop
  endfacet
  facet normal -0.0980151 0.995185 0
    outer loop
      vertex 0.273126 9.1269 0
      vertex 0 9.1 2.5
      vertex 0.273126 9.1269 2.5
    endloop
  endfacet
  facet normal -0.0980151 0.995185 0
    outer loop
      vertex 0 9.1 2.5
      vertex 0.273126 9.1269 0
      vertex 0 9.1 0
    endloop
  endfacet
  facet normal 0.290292 0.956938 -0
    outer loop
      vertex -0.273126 9.1269 0
      vertex -0.535756 9.20657 2.5
      vertex -0.273126 9.1269 2.5
    endloop
  endfacet
  facet normal 0.290292 0.956938 0
    outer loop
      vertex -0.535756 9.20657 2.5
      vertex -0.273126 9.1269 0
      vertex -0.535756 9.20657 0
    endloop
  endfacet
  facet normal 0.471385 0.881928 -0
    outer loop
      vertex -0.535756 9.20657 0
      vertex -0.777798 9.33594 2.5
      vertex -0.535756 9.20657 2.5
    endloop
  endfacet
  facet normal 0.471385 0.881928 0
    outer loop
      vertex -0.777798 9.33594 2.5
      vertex -0.535756 9.20657 0
      vertex -0.777798 9.33594 0
    endloop
  endfacet
  facet normal 0.956947 0.290261 0
    outer loop
      vertex -1.29343 9.96424 2.5
      vertex -1.3731 10.2269 0
      vertex -1.3731 10.2269 2.5
    endloop
  endfacet
  facet normal 0.956947 0.290261 0
    outer loop
      vertex -1.3731 10.2269 0
      vertex -1.29343 9.96424 2.5
      vertex -1.29343 9.96424 0
    endloop
  endfacet
  facet normal -0.95696 -0.290221 0
    outer loop
      vertex 1.3731 10.7731 0
      vertex 1.29343 11.0358 2.5
      vertex 1.29343 11.0358 0
    endloop
  endfacet
  facet normal -0.95696 -0.290221 0
    outer loop
      vertex 1.29343 11.0358 2.5
      vertex 1.3731 10.7731 0
      vertex 1.3731 10.7731 2.5
    endloop
  endfacet
  facet normal 0.995184 -0.0980244 0
    outer loop
      vertex -1.4 10.5 2.5
      vertex -1.3731 10.7731 0
      vertex -1.3731 10.7731 2.5
    endloop
  endfacet
  facet normal 0.995184 -0.0980244 0
    outer loop
      vertex -1.3731 10.7731 0
      vertex -1.4 10.5 2.5
      vertex -1.4 10.5 0
    endloop
  endfacet
  facet normal -0.773003 0.634402 0
    outer loop
      vertex 0.989949 9.51005 0
      vertex 1.16406 9.7222 2.5
      vertex 1.16406 9.7222 0
    endloop
  endfacet
  facet normal -0.773003 0.634402 0
    outer loop
      vertex 1.16406 9.7222 2.5
      vertex 0.989949 9.51005 0
      vertex 0.989949 9.51005 2.5
    endloop
  endfacet
  facet normal 0.881926 0.471388 0
    outer loop
      vertex -1.16406 9.7222 2.5
      vertex -1.29343 9.96424 0
      vertex -1.29343 9.96424 2.5
    endloop
  endfacet
  facet normal 0.881926 0.471388 0
    outer loop
      vertex -1.29343 9.96424 0
      vertex -1.16406 9.7222 2.5
      vertex -1.16406 9.7222 0
    endloop
  endfacet
  facet normal 0.634398 0.773007 -0
    outer loop
      vertex -0.777798 9.33594 0
      vertex -0.989949 9.51005 2.5
      vertex -0.777798 9.33594 2.5
    endloop
  endfacet
  facet normal 0.634398 0.773007 0
    outer loop
      vertex -0.989949 9.51005 2.5
      vertex -0.777798 9.33594 0
      vertex -0.989949 9.51005 0
    endloop
  endfacet
  facet normal 0 0 -1
    outer loop
      vertex 1.16406 -9.7222 0
      vertex 3 -10.5 0
      vertex 1.29343 -9.96424 0
    endloop
  endfacet
  facet normal -0 0 -1
    outer loop
      vertex 3 10.5 0
      vertex 1.3731 10.2269 0
      vertex 1.4 10.5 0
    endloop
  endfacet
  facet normal 0 0 -1
    outer loop
      vertex 0.989949 -9.51005 0
      vertex 3 -10.5 0
      vertex 1.16406 -9.7222 0
    endloop
  endfacet
  facet normal 0 0 -1
    outer loop
      vertex 3 10.5 0
      vertex 1.29343 9.96424 0
      vertex 1.3731 10.2269 0
    endloop
  endfacet
  facet normal 0 0 -1
    outer loop
      vertex 0.777798 -9.33594 0
      vertex 3 -10.5 0
      vertex 0.989949 -9.51005 0
    endloop
  endfacet
  facet normal 0 0 -1
    outer loop
      vertex 3 10.5 0
      vertex 1.16406 9.7222 0
      vertex 1.29343 9.96424 0
    endloop
  endfacet
  facet normal 0 0 -1
    outer loop
      vertex 3 -10.5 0
      vertex 0.777798 -9.33594 0
      vertex 3 10.5 0
    endloop
  endfacet
  facet normal 0 0 -1
    outer loop
      vertex 3 10.5 0
      vertex 0.989949 9.51005 0
      vertex 1.16406 9.7222 0
    endloop
  endfacet
  facet normal 0 0 -1
    outer loop
      vertex 0.777798 9.33594 0
      vertex 3 10.5 0
      vertex 0.777798 -9.33594 0
    endloop
  endfacet
  facet normal 0 0 -1
    outer loop
      vertex 3 10.5 0
      vertex 0.777798 9.33594 0
      vertex 0.989949 9.51005 0
    endloop
  endfacet
  facet normal 0 0 -1
    outer loop
      vertex 0.535756 -9.20657 0
      vertex 0.777798 9.33594 0
      vertex 0.777798 -9.33594 0
    endloop
  endfacet
  facet normal 0 0 -1
    outer loop
      vertex 0.535756 -9.20657 0
      vertex 0.535756 9.20657 0
      vertex 0.777798 9.33594 0
    endloop
  endfacet
  facet normal 0 0 -1
    outer loop
      vertex 0.273126 -9.1269 0
      vertex 0.535756 9.20657 0
      vertex 0.535756 -9.20657 0
    endloop
  endfacet
  facet normal 0 0 -1
    outer loop
      vertex 0.273126 -9.1269 0
      vertex 0.273126 9.1269 0
      vertex 0.535756 9.20657 0
    endloop
  endfacet
  facet normal 0 0 -1
    outer loop
      vertex 0 -9.1 0
      vertex 0.273126 9.1269 0
      vertex 0.273126 -9.1269 0
    endloop
  endfacet
  facet normal 0 0 -1
    outer loop
      vertex 0 -9.1 0
      vertex 0 9.1 0
      vertex 0.273126 9.1269 0
    endloop
  endfacet
  facet normal 0 0 -1
    outer loop
      vertex -0.273126 -9.1269 0
      vertex 0 9.1 0
      vertex 0 -9.1 0
    endloop
  endfacet
  facet normal 0 0 -1
    outer loop
      vertex -0.273126 -9.1269 0
      vertex -0.273126 9.1269 0
      vertex 0 9.1 0
    endloop
  endfacet
  facet normal 0 0 -1
    outer loop
      vertex -0.535756 -9.20657 0
      vertex -0.273126 9.1269 0
      vertex -0.273126 -9.1269 0
    endloop
  endfacet
  facet normal 0 0 -1
    outer loop
      vertex -0.535756 -9.20657 0
      vertex -0.535756 9.20657 0
      vertex -0.273126 9.1269 0
    endloop
  endfacet
  facet normal 0 0 -1
    outer loop
      vertex -0.777798 -9.33594 0
      vertex -0.535756 9.20657 0
      vertex -0.535756 -9.20657 0
    endloop
  endfacet
  facet normal 0 0 -1
    outer loop
      vertex -0.777798 -9.33594 0
      vertex -0.777798 9.33594 0
      vertex -0.535756 9.20657 0
    endloop
  endfacet
  facet normal 0 0 -1
    outer loop
      vertex -3 -10.5 0
      vertex -0.777798 -9.33594 0
      vertex -0.989949 -9.51005 0
    endloop
  endfacet
  facet normal -0 0 -1
    outer loop
      vertex -0.777798 -9.33594 0
      vertex -3 -10.5 0
      vertex -0.777798 9.33594 0
    endloop
  endfacet
  facet normal 0 0 -1
    outer loop
      vertex -3 -10.5 0
      vertex -0.989949 -9.51005 0
      vertex -1.16406 -9.7222 0
    endloop
  endfacet
  facet normal 0 0 -1
    outer loop
      vertex -3 10.5 0
      vertex -0.777798 9.33594 0
      vertex -3 -10.5 0
    endloop
  endfacet
  facet normal 0 0 -1
    outer loop
      vertex -3 -10.5 0
      vertex -1.16406 -9.7222 0
      vertex -1.29343 -9.96424 0
    endloop
  endfacet
  facet normal 0 0 -1
    outer loop
      vertex -0.777798 9.33594 0
      vertex -3 10.5 0
      vertex -0.989949 9.51005 0
    endloop
  endfacet
  facet normal 0 0 -1
    outer loop
      vertex -3 -10.5 0
      vertex -1.29343 -9.96424 0
      vertex -1.3731 -10.2269 0
    endloop
  endfacet
  facet normal 0 0 -1
    outer loop
      vertex -0.989949 9.51005 0
      vertex -3 10.5 0
      vertex -1.16406 9.7222 0
    endloop
  endfacet
  facet normal 0 0 -1
    outer loop
      vertex -3 -10.5 0
      vertex -1.3731 -10.2269 0
      vertex -1.4 -10.5 0
    endloop
  endfacet
  facet normal 0 0 -1
    outer loop
      vertex -1.16406 9.7222 0
      vertex -3 10.5 0
      vertex -1.29343 9.96424 0
    endloop
  endfacet
  facet normal 0 0 -1
    outer loop
      vertex 1.4 -10.5 0
      vertex 3 -10.5 0
      vertex 2.98858 -10.7615 0
    endloop
  endfacet
  facet normal 0 0 -1
    outer loop
      vertex 1.3731 -10.2269 0
      vertex 3 -10.5 0
      vertex 1.4 -10.5 0
    endloop
  endfacet
  facet normal 0 0 -1
    outer loop
      vertex 1.3731 -10.7731 0
      vertex 2.98858 -10.7615 0
      vertex 2.95442 -11.0209 0
    endloop
  endfacet
  facet normal 0 0 -1
    outer loop
      vertex 1.29343 -9.96424 0
      vertex 3 -10.5 0
      vertex 1.3731 -10.2269 0
    endloop
  endfacet
  facet normal 0 0 -1
    outer loop
      vertex 1.3731 -10.7731 0
      vertex 2.95442 -11.0209 0
      vertex 2.89778 -11.2765 0
    endloop
  endfacet
  facet normal 0 0 -1
    outer loop
      vertex 3 10.5 0
      vertex 1.4 10.5 0
      vertex 2.98858 10.7615 0
    endloop
  endfacet
  facet normal 0 0 -1
    outer loop
      vertex 1.29343 -11.0358 0
      vertex 2.89778 -11.2765 0
      vertex 2.81908 -11.5261 0
    endloop
  endfacet
  facet normal 0 0 -1
    outer loop
      vertex 1.3731 10.7731 0
      vertex 2.98858 10.7615 0
      vertex 1.4 10.5 0
    endloop
  endfacet
  facet normal 0 0 -1
    outer loop
      vertex 1.29343 -11.0358 0
      vertex 2.81908 -11.5261 0
      vertex 2.71892 -11.7679 0
    endloop
  endfacet
  facet normal 0 0 -1
    outer loop
      vertex 2.98858 10.7615 0
      vertex 1.3731 10.7731 0
      vertex 2.95442 11.0209 0
    endloop
  endfacet
  facet normal 0 0 -1
    outer loop
      vertex 1.29343 -11.0358 0
      vertex 2.71892 -11.7679 0
      vertex 2.59808 -12 0
    endloop
  endfacet
  facet normal -0 0 -1
    outer loop
      vertex 2.95442 11.0209 0
      vertex 1.3731 10.7731 0
      vertex 2.89778 11.2765 0
    endloop
  endfacet
  facet normal 0 0 -1
    outer loop
      vertex 1.16406 -11.2778 0
      vertex 2.59808 -12 0
      vertex 2.45746 -12.2207 0
    endloop
  endfacet
  facet normal 0 0 -1
    outer loop
      vertex 1.29343 11.0358 0
      vertex 2.89778 11.2765 0
      vertex 1.3731 10.7731 0
    endloop
  endfacet
  facet normal 0 0 -1
    outer loop
      vertex 1.16406 -11.2778 0
      vertex 2.45746 -12.2207 0
      vertex 2.29813 -12.4284 0
    endloop
  endfacet
  facet normal -0 0 -1
    outer loop
      vertex 2.89778 11.2765 0
      vertex 1.29343 11.0358 0
      vertex 2.81908 11.5261 0
    endloop
  endfacet
  facet normal 0 0 -1
    outer loop
      vertex 0.989949 -11.4899 0
      vertex 2.29813 -12.4284 0
      vertex 2.12132 -12.6213 0
    endloop
  endfacet
  facet normal -0 0 -1
    outer loop
      vertex 2.81908 11.5261 0
      vertex 1.29343 11.0358 0
      vertex 2.71892 11.7679 0
    endloop
  endfacet
  facet normal 0 0 -1
    outer loop
      vertex 0.989949 -11.4899 0
      vertex 2.12132 -12.6213 0
      vertex 1.92836 -12.7981 0
    endloop
  endfacet
  facet normal -0 0 -1
    outer loop
      vertex 2.71892 11.7679 0
      vertex 1.29343 11.0358 0
      vertex 2.59808 12 0
    endloop
  endfacet
  facet normal 0 0 -1
    outer loop
      vertex 0.777798 -11.6641 0
      vertex 1.92836 -12.7981 0
      vertex 1.72073 -12.9575 0
    endloop
  endfacet
  facet normal 0 0 -1
    outer loop
      vertex 1.16406 11.2778 0
      vertex 2.59808 12 0
      vertex 1.29343 11.0358 0
    endloop
  endfacet
  facet normal 0 0 -1
    outer loop
      vertex 0.777798 -11.6641 0
      vertex 1.72073 -12.9575 0
      vertex 1.5 -13.0981 0
    endloop
  endfacet
  facet normal -0 0 -1
    outer loop
      vertex 2.59808 12 0
      vertex 1.16406 11.2778 0
      vertex 2.45746 12.2207 0
    endloop
  endfacet
  facet normal -0 0 -1
    outer loop
      vertex 2.45746 12.2207 0
      vertex 1.16406 11.2778 0
      vertex 2.29813 12.4284 0
    endloop
  endfacet
  facet normal -0 0 -1
    outer loop
      vertex 2.98858 -10.7615 0
      vertex 1.3731 -10.7731 0
      vertex 1.4 -10.5 0
    endloop
  endfacet
  facet normal 0 0 -1
    outer loop
      vertex 2.89778 -11.2765 0
      vertex 1.29343 -11.0358 0
      vertex 1.3731 -10.7731 0
    endloop
  endfacet
  facet normal 0 0 -1
    outer loop
      vertex 0.535756 -11.7934 0
      vertex 1.5 -13.0981 0
      vertex 1.26785 -13.2189 0
    endloop
  endfacet
  facet normal 0 0 -1
    outer loop
      vertex 2.59808 -12 0
      vertex 1.16406 -11.2778 0
      vertex 1.29343 -11.0358 0
    endloop
  endfacet
  facet normal 0 0 -1
    outer loop
      vertex 0.535756 -11.7934 0
      vertex 1.26785 -13.2189 0
      vertex 1.02606 -13.3191 0
    endloop
  endfacet
  facet normal 0 0 -1
    outer loop
      vertex 2.29813 -12.4284 0
      vertex 0.989949 -11.4899 0
      vertex 1.16406 -11.2778 0
    endloop
  endfacet
  facet normal 0 0 -1
    outer loop
      vertex 1.92836 -12.7981 0
      vertex 0.777798 -11.6641 0
      vertex 0.989949 -11.4899 0
    endloop
  endfacet
  facet normal 0 0 -1
    outer loop
      vertex 0.535756 -11.7934 0
      vertex 1.02606 -13.3191 0
      vertex 0.776457 -13.3978 0
    endloop
  endfacet
  facet normal 0 0 -1
    outer loop
      vertex 1.5 -13.0981 0
      vertex 0.535756 -11.7934 0
      vertex 0.777798 -11.6641 0
    endloop
  endfacet
  facet normal 0 0 -1
    outer loop
      vertex 0.273126 -11.8731 0
      vertex 0.776457 -13.3978 0
      vertex 0.520944 -13.4544 0
    endloop
  endfacet
  facet normal 0 0 -1
    outer loop
      vertex 0.776457 -13.3978 0
      vertex 0.273126 -11.8731 0
      vertex 0.535756 -11.7934 0
    endloop
  endfacet
  facet normal 0 0 -1
    outer loop
      vertex 0.261467 -13.4886 0
      vertex 0.273126 -11.8731 0
      vertex 0.520944 -13.4544 0
    endloop
  endfacet
  facet normal 0 0 -1
    outer loop
      vertex 0 -11.9 0
      vertex 0.261467 -13.4886 0
      vertex 0 -13.5 0
    endloop
  endfacet
  facet normal 0 0 -1
    outer loop
      vertex 0.261467 -13.4886 0
      vertex 0 -11.9 0
      vertex 0.273126 -11.8731 0
    endloop
  endfacet
  facet normal 0 0 -1
    outer loop
      vertex -0.261467 -13.4886 0
      vertex 0 -11.9 0
      vertex 0 -13.5 0
    endloop
  endfacet
  facet normal 0 0 -1
    outer loop
      vertex -0.261467 -13.4886 0
      vertex -0.273126 -11.8731 0
      vertex 0 -11.9 0
    endloop
  endfacet
  facet normal 0 0 -1
    outer loop
      vertex -0.520944 -13.4544 0
      vertex -0.273126 -11.8731 0
      vertex -0.261467 -13.4886 0
    endloop
  endfacet
  facet normal 0 0 -1
    outer loop
      vertex -0.776457 -13.3978 0
      vertex -0.273126 -11.8731 0
      vertex -0.520944 -13.4544 0
    endloop
  endfacet
  facet normal -0 0 -1
    outer loop
      vertex -0.273126 -11.8731 0
      vertex -0.776457 -13.3978 0
      vertex -0.535756 -11.7934 0
    endloop
  endfacet
  facet normal 0 0 -1
    outer loop
      vertex -1.02606 -13.3191 0
      vertex -0.535756 -11.7934 0
      vertex -0.776457 -13.3978 0
    endloop
  endfacet
  facet normal 0 0 -1
    outer loop
      vertex -1.26785 -13.2189 0
      vertex -0.535756 -11.7934 0
      vertex -1.02606 -13.3191 0
    endloop
  endfacet
  facet normal 0 0 -1
    outer loop
      vertex -1.5 -13.0981 0
      vertex -0.535756 -11.7934 0
      vertex -1.26785 -13.2189 0
    endloop
  endfacet
  facet normal -0 0 -1
    outer loop
      vertex -0.535756 -11.7934 0
      vertex -1.5 -13.0981 0
      vertex -0.777798 -11.6641 0
    endloop
  endfacet
  facet normal 0 0 -1
    outer loop
      vertex -1.72073 -12.9575 0
      vertex -0.777798 -11.6641 0
      vertex -1.5 -13.0981 0
    endloop
  endfacet
  facet normal 0 0 -1
    outer loop
      vertex -1.92836 -12.7981 0
      vertex -0.777798 -11.6641 0
      vertex -1.72073 -12.9575 0
    endloop
  endfacet
  facet normal -0 0 -1
    outer loop
      vertex -0.777798 -11.6641 0
      vertex -1.92836 -12.7981 0
      vertex -0.989949 -11.4899 0
    endloop
  endfacet
  facet normal 0 0 -1
    outer loop
      vertex -2.12132 -12.6213 0
      vertex -0.989949 -11.4899 0
      vertex -1.92836 -12.7981 0
    endloop
  endfacet
  facet normal -0 0 -1
    outer loop
      vertex -0.989949 -11.4899 0
      vertex -2.29813 -12.4284 0
      vertex -1.16406 -11.2778 0
    endloop
  endfacet
  facet normal 0 0 -1
    outer loop
      vertex -2.29813 -12.4284 0
      vertex -0.989949 -11.4899 0
      vertex -2.12132 -12.6213 0
    endloop
  endfacet
  facet normal 0 0 -1
    outer loop
      vertex 0.989949 11.4899 0
      vertex 2.29813 12.4284 0
      vertex 1.16406 11.2778 0
    endloop
  endfacet
  facet normal -0 0 -1
    outer loop
      vertex 2.29813 12.4284 0
      vertex 0.989949 11.4899 0
      vertex 2.12132 12.6213 0
    endloop
  endfacet
  facet normal -0 0 -1
    outer loop
      vertex 2.12132 12.6213 0
      vertex 0.989949 11.4899 0
      vertex 1.92836 12.7981 0
    endloop
  endfacet
  facet normal 0 0 -1
    outer loop
      vertex 0.777798 11.6641 0
      vertex 1.92836 12.7981 0
      vertex 0.989949 11.4899 0
    endloop
  endfacet
  facet normal -0 0 -1
    outer loop
      vertex 1.92836 12.7981 0
      vertex 0.777798 11.6641 0
      vertex 1.72073 12.9575 0
    endloop
  endfacet
  facet normal -0 0 -1
    outer loop
      vertex 1.72073 12.9575 0
      vertex 0.777798 11.6641 0
      vertex 1.5 13.0981 0
    endloop
  endfacet
  facet normal 0 0 -1
    outer loop
      vertex 0.535756 11.7934 0
      vertex 1.5 13.0981 0
      vertex 0.777798 11.6641 0
    endloop
  endfacet
  facet normal -0 0 -1
    outer loop
      vertex 1.5 13.0981 0
      vertex 0.535756 11.7934 0
      vertex 1.26785 13.2189 0
    endloop
  endfacet
  facet normal -0 0 -1
    outer loop
      vertex 1.26785 13.2189 0
      vertex 0.535756 11.7934 0
      vertex 1.02606 13.3191 0
    endloop
  endfacet
  facet normal -0 0 -1
    outer loop
      vertex 1.02606 13.3191 0
      vertex 0.535756 11.7934 0
      vertex 0.776457 13.3978 0
    endloop
  endfacet
  facet normal 0 0 -1
    outer loop
      vertex 0.273126 11.8731 0
      vertex 0.776457 13.3978 0
      vertex 0.535756 11.7934 0
    endloop
  endfacet
  facet normal -0 0 -1
    outer loop
      vertex 0.776457 13.3978 0
      vertex 0.273126 11.8731 0
      vertex 0.520944 13.4544 0
    endloop
  endfacet
  facet normal 0 0 -1
    outer loop
      vertex 0.273126 11.8731 0
      vertex 0.261467 13.4886 0
      vertex 0.520944 13.4544 0
    endloop
  endfacet
  facet normal 0 0 -1
    outer loop
      vertex 0 11.9 0
      vertex 0.261467 13.4886 0
      vertex 0.273126 11.8731 0
    endloop
  endfacet
  facet normal 0 0 -1
    outer loop
      vertex 0 11.9 0
      vertex 0 13.5 0
      vertex 0.261467 13.4886 0
    endloop
  endfacet
  facet normal 0 0 -1
    outer loop
      vertex 0 11.9 0
      vertex -0.261467 13.4886 0
      vertex 0 13.5 0
    endloop
  endfacet
  facet normal 0 0 -1
    outer loop
      vertex -0.273126 11.8731 0
      vertex -0.261467 13.4886 0
      vertex 0 11.9 0
    endloop
  endfacet
  facet normal 0 0 -1
    outer loop
      vertex -0.273126 11.8731 0
      vertex -0.520944 13.4544 0
      vertex -0.261467 13.4886 0
    endloop
  endfacet
  facet normal 0 0 -1
    outer loop
      vertex -0.776457 13.3978 0
      vertex -0.273126 11.8731 0
      vertex -0.535756 11.7934 0
    endloop
  endfacet
  facet normal 0 0 -1
    outer loop
      vertex -0.273126 11.8731 0
      vertex -0.776457 13.3978 0
      vertex -0.520944 13.4544 0
    endloop
  endfacet
  facet normal 0 0 -1
    outer loop
      vertex -1.5 13.0981 0
      vertex -0.535756 11.7934 0
      vertex -0.777798 11.6641 0
    endloop
  endfacet
  facet normal 0 0 -1
    outer loop
      vertex -1.92836 12.7981 0
      vertex -0.777798 11.6641 0
      vertex -0.989949 11.4899 0
    endloop
  endfacet
  facet normal 0 0 -1
    outer loop
      vertex -0.535756 11.7934 0
      vertex -1.02606 13.3191 0
      vertex -0.776457 13.3978 0
    endloop
  endfacet
  facet normal 0 0 -1
    outer loop
      vertex -2.29813 12.4284 0
      vertex -0.989949 11.4899 0
      vertex -1.16406 11.2778 0
    endloop
  endfacet
  facet normal 0 0 -1
    outer loop
      vertex -0.535756 11.7934 0
      vertex -1.26785 13.2189 0
      vertex -1.02606 13.3191 0
    endloop
  endfacet
  facet normal 0 0 -1
    outer loop
      vertex -2.59808 12 0
      vertex -1.16406 11.2778 0
      vertex -1.29343 11.0358 0
    endloop
  endfacet
  facet normal 0 0 -1
    outer loop
      vertex -2.89778 11.2765 0
      vertex -1.29343 11.0358 0
      vertex -1.3731 10.7731 0
    endloop
  endfacet
  facet normal 0 0 -1
    outer loop
      vertex -2.98858 10.7615 0
      vertex -1.3731 10.7731 0
      vertex -1.4 10.5 0
    endloop
  endfacet
  facet normal 0 0 -1
    outer loop
      vertex -0.535756 11.7934 0
      vertex -1.5 13.0981 0
      vertex -1.26785 13.2189 0
    endloop
  endfacet
  facet normal 0 0 -1
    outer loop
      vertex -1.29343 9.96424 0
      vertex -3 10.5 0
      vertex -1.3731 10.2269 0
    endloop
  endfacet
  facet normal 0 0 -1
    outer loop
      vertex -2.45746 -12.2207 0
      vertex -1.16406 -11.2778 0
      vertex -2.29813 -12.4284 0
    endloop
  endfacet
  facet normal 0 0 -1
    outer loop
      vertex -1.3731 10.2269 0
      vertex -3 10.5 0
      vertex -1.4 10.5 0
    endloop
  endfacet
  facet normal 0 0 -1
    outer loop
      vertex -2.59808 -12 0
      vertex -1.16406 -11.2778 0
      vertex -2.45746 -12.2207 0
    endloop
  endfacet
  facet normal 0 -0 -1
    outer loop
      vertex -2.98858 10.7615 0
      vertex -1.4 10.5 0
      vertex -3 10.5 0
    endloop
  endfacet
  facet normal -0 0 -1
    outer loop
      vertex -1.16406 -11.2778 0
      vertex -2.59808 -12 0
      vertex -1.29343 -11.0358 0
    endloop
  endfacet
  facet normal 0 0 -1
    outer loop
      vertex -0.777798 11.6641 0
      vertex -1.72073 12.9575 0
      vertex -1.5 13.0981 0
    endloop
  endfacet
  facet normal 0 0 -1
    outer loop
      vertex -2.71892 -11.7679 0
      vertex -1.29343 -11.0358 0
      vertex -2.59808 -12 0
    endloop
  endfacet
  facet normal 0 0 -1
    outer loop
      vertex -0.777798 11.6641 0
      vertex -1.92836 12.7981 0
      vertex -1.72073 12.9575 0
    endloop
  endfacet
  facet normal 0 0 -1
    outer loop
      vertex -2.81908 -11.5261 0
      vertex -1.29343 -11.0358 0
      vertex -2.71892 -11.7679 0
    endloop
  endfacet
  facet normal 0 0 -1
    outer loop
      vertex -0.989949 11.4899 0
      vertex -2.12132 12.6213 0
      vertex -1.92836 12.7981 0
    endloop
  endfacet
  facet normal 0 0 -1
    outer loop
      vertex -2.89778 -11.2765 0
      vertex -1.29343 -11.0358 0
      vertex -2.81908 -11.5261 0
    endloop
  endfacet
  facet normal 0 0 -1
    outer loop
      vertex -0.989949 11.4899 0
      vertex -2.29813 12.4284 0
      vertex -2.12132 12.6213 0
    endloop
  endfacet
  facet normal -0 0 -1
    outer loop
      vertex -1.29343 -11.0358 0
      vertex -2.89778 -11.2765 0
      vertex -1.3731 -10.7731 0
    endloop
  endfacet
  facet normal 0 0 -1
    outer loop
      vertex -1.16406 11.2778 0
      vertex -2.45746 12.2207 0
      vertex -2.29813 12.4284 0
    endloop
  endfacet
  facet normal 0 0 -1
    outer loop
      vertex -2.95442 -11.0209 0
      vertex -1.3731 -10.7731 0
      vertex -2.89778 -11.2765 0
    endloop
  endfacet
  facet normal 0 0 -1
    outer loop
      vertex -1.16406 11.2778 0
      vertex -2.59808 12 0
      vertex -2.45746 12.2207 0
    endloop
  endfacet
  facet normal 0 0 -1
    outer loop
      vertex -2.98858 -10.7615 0
      vertex -1.3731 -10.7731 0
      vertex -2.95442 -11.0209 0
    endloop
  endfacet
  facet normal 0 0 -1
    outer loop
      vertex -1.29343 11.0358 0
      vertex -2.71892 11.7679 0
      vertex -2.59808 12 0
    endloop
  endfacet
  facet normal 0 0 -1
    outer loop
      vertex -1.3731 -10.7731 0
      vertex -2.98858 -10.7615 0
      vertex -1.4 -10.5 0
    endloop
  endfacet
  facet normal 0 0 -1
    outer loop
      vertex -1.29343 11.0358 0
      vertex -2.81908 11.5261 0
      vertex -2.71892 11.7679 0
    endloop
  endfacet
  facet normal -0 0 -1
    outer loop
      vertex -1.4 -10.5 0
      vertex -2.98858 -10.7615 0
      vertex -3 -10.5 0
    endloop
  endfacet
  facet normal 0 0 -1
    outer loop
      vertex -1.29343 11.0358 0
      vertex -2.89778 11.2765 0
      vertex -2.81908 11.5261 0
    endloop
  endfacet
  facet normal 0 0 -1
    outer loop
      vertex -1.3731 10.7731 0
      vertex -2.95442 11.0209 0
      vertex -2.89778 11.2765 0
    endloop
  endfacet
  facet normal -0 0 -1
    outer loop
      vertex -1.3731 10.7731 0
      vertex -2.98858 10.7615 0
      vertex -2.95442 11.0209 0
    endloop
  endfacet
  facet normal -0.99144 -0.130561 0
    outer loop
      vertex -2.95442 -11.0209 0
      vertex -2.98858 -10.7615 2.5
      vertex -2.98858 -10.7615 0
    endloop
  endfacet
  facet normal -0.99144 -0.130561 0
    outer loop
      vertex -2.98858 -10.7615 2.5
      vertex -2.95442 -11.0209 0
      vertex -2.95442 -11.0209 2.5
    endloop
  endfacet
  facet normal -1 0 0
    outer loop
      vertex -3 -10.5 0
      vertex -3 10.5 2.5
      vertex -3 10.5 0
    endloop
  endfacet
  facet normal -1 -0 0
    outer loop
      vertex -3 10.5 2.5
      vertex -3 -10.5 0
      vertex -3 -10.5 2.5
    endloop
  endfacet
  facet normal 0.999048 0.0436295 0
    outer loop
      vertex 3 10.5 2.5
      vertex 2.98858 10.7615 0
      vertex 2.98858 10.7615 2.5
    endloop
  endfacet
  facet normal 0.999048 0.0436295 0
    outer loop
      vertex 2.98858 10.7615 0
      vertex 3 10.5 2.5
      vertex 3 10.5 0
    endloop
  endfacet
  facet normal -0.999048 -0.0436295 0
    outer loop
      vertex -2.98858 -10.7615 0
      vertex -3 -10.5 2.5
      vertex -3 -10.5 0
    endloop
  endfacet
  facet normal -0.999048 -0.0436295 0
    outer loop
      vertex -3 -10.5 2.5
      vertex -2.98858 -10.7615 0
      vertex -2.98858 -10.7615 2.5
    endloop
  endfacet
  facet normal 0.953715 -0.300711 0
    outer loop
      vertex 2.81908 -11.5261 2.5
      vertex 2.89778 -11.2765 0
      vertex 2.89778 -11.2765 2.5
    endloop
  endfacet
  facet normal 0.953715 -0.300711 0
    outer loop
      vertex 2.89778 -11.2765 0
      vertex 2.81908 -11.5261 2.5
      vertex 2.81908 -11.5261 0
    endloop
  endfacet
  facet normal -0.953715 0.300711 0
    outer loop
      vertex -2.89778 11.2765 0
      vertex -2.81908 11.5261 2.5
      vertex -2.81908 11.5261 0
    endloop
  endfacet
  facet normal -0.953715 0.300711 0
    outer loop
      vertex -2.81908 11.5261 2.5
      vertex -2.89778 11.2765 0
      vertex -2.89778 11.2765 2.5
    endloop
  endfacet
  facet normal 0 0 1
    outer loop
      vertex 1.16406 9.7222 2.5
      vertex 3 10.5 2.5
      vertex 1.29343 9.96424 2.5
    endloop
  endfacet
  facet normal 0 0 1
    outer loop
      vertex 3 -10.5 2.5
      vertex 1.3731 -10.2269 2.5
      vertex 1.4 -10.5 2.5
    endloop
  endfacet
  facet normal 0 0 1
    outer loop
      vertex 0.989949 9.51005 2.5
      vertex 3 10.5 2.5
      vertex 1.16406 9.7222 2.5
    endloop
  endfacet
  facet normal 0 0 1
    outer loop
      vertex 3 -10.5 2.5
      vertex 1.29343 -9.96424 2.5
      vertex 1.3731 -10.2269 2.5
    endloop
  endfacet
  facet normal 0 0 1
    outer loop
      vertex 0.777798 9.33594 2.5
      vertex 3 10.5 2.5
      vertex 0.989949 9.51005 2.5
    endloop
  endfacet
  facet normal 0 0 1
    outer loop
      vertex 3 -10.5 2.5
      vertex 1.16406 -9.7222 2.5
      vertex 1.29343 -9.96424 2.5
    endloop
  endfacet
  facet normal 0 0 1
    outer loop
      vertex 3 10.5 2.5
      vertex 0.777798 9.33594 2.5
      vertex 3 -10.5 2.5
    endloop
  endfacet
  facet normal 0 0 1
    outer loop
      vertex 3 -10.5 2.5
      vertex 0.989949 -9.51005 2.5
      vertex 1.16406 -9.7222 2.5
    endloop
  endfacet
  facet normal -0 0 1
    outer loop
      vertex 0.777798 -9.33594 2.5
      vertex 3 -10.5 2.5
      vertex 0.777798 9.33594 2.5
    endloop
  endfacet
  facet normal 0 0 1
    outer loop
      vertex 3 -10.5 2.5
      vertex 0.777798 -9.33594 2.5
      vertex 0.989949 -9.51005 2.5
    endloop
  endfacet
  facet normal -0 0 1
    outer loop
      vertex 0.535756 9.20657 2.5
      vertex 0.777798 -9.33594 2.5
      vertex 0.777798 9.33594 2.5
    endloop
  endfacet
  facet normal 0 0 1
    outer loop
      vertex 0.535756 9.20657 2.5
      vertex 0.535756 -9.20657 2.5
      vertex 0.777798 -9.33594 2.5
    endloop
  endfacet
  facet normal -0 0 1
    outer loop
      vertex 0.273126 9.1269 2.5
      vertex 0.535756 -9.20657 2.5
      vertex 0.535756 9.20657 2.5
    endloop
  endfacet
  facet normal 0 0 1
    outer loop
      vertex 0.273126 9.1269 2.5
      vertex 0.273126 -9.1269 2.5
      vertex 0.535756 -9.20657 2.5
    endloop
  endfacet
  facet normal -0 0 1
    outer loop
      vertex 0 9.1 2.5
      vertex 0.273126 -9.1269 2.5
      vertex 0.273126 9.1269 2.5
    endloop
  endfacet
  facet normal 0 0 1
    outer loop
      vertex 0 9.1 2.5
      vertex 0 -9.1 2.5
      vertex 0.273126 -9.1269 2.5
    endloop
  endfacet
  facet normal 0 0 1
    outer loop
      vertex -0.273126 9.1269 2.5
      vertex 0 -9.1 2.5
      vertex 0 9.1 2.5
    endloop
  endfacet
  facet normal 0 0 1
    outer loop
      vertex -0.273126 9.1269 2.5
      vertex -0.273126 -9.1269 2.5
      vertex 0 -9.1 2.5
    endloop
  endfacet
  facet normal 0 0 1
    outer loop
      vertex -0.535756 9.20657 2.5
      vertex -0.273126 -9.1269 2.5
      vertex -0.273126 9.1269 2.5
    endloop
  endfacet
  facet normal 0 0 1
    outer loop
      vertex -0.535756 9.20657 2.5
      vertex -0.535756 -9.20657 2.5
      vertex -0.273126 -9.1269 2.5
    endloop
  endfacet
  facet normal 0 0 1
    outer loop
      vertex -0.777798 9.33594 2.5
      vertex -0.535756 -9.20657 2.5
      vertex -0.535756 9.20657 2.5
    endloop
  endfacet
  facet normal 0 0 1
    outer loop
      vertex -0.777798 9.33594 2.5
      vertex -0.777798 -9.33594 2.5
      vertex -0.535756 -9.20657 2.5
    endloop
  endfacet
  facet normal 0 0 1
    outer loop
      vertex -3 10.5 2.5
      vertex -0.777798 9.33594 2.5
      vertex -0.989949 9.51005 2.5
    endloop
  endfacet
  facet normal 0 0 1
    outer loop
      vertex -0.777798 9.33594 2.5
      vertex -3 10.5 2.5
      vertex -0.777798 -9.33594 2.5
    endloop
  endfacet
  facet normal 0 0 1
    outer loop
      vertex -3 10.5 2.5
      vertex -0.989949 9.51005 2.5
      vertex -1.16406 9.7222 2.5
    endloop
  endfacet
  facet normal 0 0 1
    outer loop
      vertex -3 -10.5 2.5
      vertex -0.777798 -9.33594 2.5
      vertex -3 10.5 2.5
    endloop
  endfacet
  facet normal 0 0 1
    outer loop
      vertex -3 10.5 2.5
      vertex -1.16406 9.7222 2.5
      vertex -1.29343 9.96424 2.5
    endloop
  endfacet
  facet normal 0 0 1
    outer loop
      vertex -0.777798 -9.33594 2.5
      vertex -3 -10.5 2.5
      vertex -0.989949 -9.51005 2.5
    endloop
  endfacet
  facet normal 0 0 1
    outer loop
      vertex -3 10.5 2.5
      vertex -1.29343 9.96424 2.5
      vertex -1.3731 10.2269 2.5
    endloop
  endfacet
  facet normal 0 0 1
    outer loop
      vertex -0.989949 -9.51005 2.5
      vertex -3 -10.5 2.5
      vertex -1.16406 -9.7222 2.5
    endloop
  endfacet
  facet normal -0 0 1
    outer loop
      vertex -3 10.5 2.5
      vertex -1.3731 10.2269 2.5
      vertex -1.4 10.5 2.5
    endloop
  endfacet
  facet normal 0 0 1
    outer loop
      vertex -1.16406 -9.7222 2.5
      vertex -3 -10.5 2.5
      vertex -1.29343 -9.96424 2.5
    endloop
  endfacet
  facet normal 0 0 1
    outer loop
      vertex 1.4 10.5 2.5
      vertex 3 10.5 2.5
      vertex 2.98858 10.7615 2.5
    endloop
  endfacet
  facet normal 0 0 1
    outer loop
      vertex 1.3731 10.2269 2.5
      vertex 3 10.5 2.5
      vertex 1.4 10.5 2.5
    endloop
  endfacet
  facet normal -0 0 1
    outer loop
      vertex 1.3731 10.7731 2.5
      vertex 2.98858 10.7615 2.5
      vertex 2.95442 11.0209 2.5
    endloop
  endfacet
  facet normal 0 0 1
    outer loop
      vertex 1.29343 9.96424 2.5
      vertex 3 10.5 2.5
      vertex 1.3731 10.2269 2.5
    endloop
  endfacet
  facet normal 0 0 1
    outer loop
      vertex 1.3731 10.7731 2.5
      vertex 2.95442 11.0209 2.5
      vertex 2.89778 11.2765 2.5
    endloop
  endfacet
  facet normal 0 0 1
    outer loop
      vertex 3 -10.5 2.5
      vertex 1.4 -10.5 2.5
      vertex 2.98858 -10.7615 2.5
    endloop
  endfacet
  facet normal 0 0 1
    outer loop
      vertex 1.29343 11.0358 2.5
      vertex 2.89778 11.2765 2.5
      vertex 2.81908 11.5261 2.5
    endloop
  endfacet
  facet normal 0 0 1
    outer loop
      vertex 1.3731 -10.7731 2.5
      vertex 2.98858 -10.7615 2.5
      vertex 1.4 -10.5 2.5
    endloop
  endfacet
  facet normal 0 0 1
    outer loop
      vertex 1.29343 11.0358 2.5
      vertex 2.81908 11.5261 2.5
      vertex 2.71892 11.7679 2.5
    endloop
  endfacet
  facet normal 0 0 1
    outer loop
      vertex 2.98858 -10.7615 2.5
      vertex 1.3731 -10.7731 2.5
      vertex 2.95442 -11.0209 2.5
    endloop
  endfacet
  facet normal 0 0 1
    outer loop
      vertex 1.29343 11.0358 2.5
      vertex 2.71892 11.7679 2.5
      vertex 2.59808 12 2.5
    endloop
  endfacet
  facet normal 0 0 1
    outer loop
      vertex 2.95442 -11.0209 2.5
      vertex 1.3731 -10.7731 2.5
      vertex 2.89778 -11.2765 2.5
    endloop
  endfacet
  facet normal 0 0 1
    outer loop
      vertex 1.16406 11.2778 2.5
      vertex 2.59808 12 2.5
      vertex 2.45746 12.2207 2.5
    endloop
  endfacet
  facet normal -0 0 1
    outer loop
      vertex 1.29343 -11.0358 2.5
      vertex 2.89778 -11.2765 2.5
      vertex 1.3731 -10.7731 2.5
    endloop
  endfacet
  facet normal 0 0 1
    outer loop
      vertex 1.16406 11.2778 2.5
      vertex 2.45746 12.2207 2.5
      vertex 2.29813 12.4284 2.5
    endloop
  endfacet
  facet normal 0 0 1
    outer loop
      vertex 2.89778 -11.2765 2.5
      vertex 1.29343 -11.0358 2.5
      vertex 2.81908 -11.5261 2.5
    endloop
  endfacet
  facet normal 0 0 1
    outer loop
      vertex 0.989949 11.4899 2.5
      vertex 2.29813 12.4284 2.5
      vertex 2.12132 12.6213 2.5
    endloop
  endfacet
  facet normal 0 0 1
    outer loop
      vertex 2.81908 -11.5261 2.5
      vertex 1.29343 -11.0358 2.5
      vertex 2.71892 -11.7679 2.5
    endloop
  endfacet
  facet normal 0 0 1
    outer loop
      vertex 0.989949 11.4899 2.5
      vertex 2.12132 12.6213 2.5
      vertex 1.92836 12.7981 2.5
    endloop
  endfacet
  facet normal 0 0 1
    outer loop
      vertex 2.71892 -11.7679 2.5
      vertex 1.29343 -11.0358 2.5
      vertex 2.59808 -12 2.5
    endloop
  endfacet
  facet normal 0 0 1
    outer loop
      vertex 0.777798 11.6641 2.5
      vertex 1.92836 12.7981 2.5
      vertex 1.72073 12.9575 2.5
    endloop
  endfacet
  facet normal -0 0 1
    outer loop
      vertex 1.16406 -11.2778 2.5
      vertex 2.59808 -12 2.5
      vertex 1.29343 -11.0358 2.5
    endloop
  endfacet
  facet normal 0 0 1
    outer loop
      vertex 0.777798 11.6641 2.5
      vertex 1.72073 12.9575 2.5
      vertex 1.5 13.0981 2.5
    endloop
  endfacet
  facet normal 0 0 1
    outer loop
      vertex 2.59808 -12 2.5
      vertex 1.16406 -11.2778 2.5
      vertex 2.45746 -12.2207 2.5
    endloop
  endfacet
  facet normal 0 0 1
    outer loop
      vertex 2.45746 -12.2207 2.5
      vertex 1.16406 -11.2778 2.5
      vertex 2.29813 -12.4284 2.5
    endloop
  endfacet
  facet normal 0 0 1
    outer loop
      vertex 2.98858 10.7615 2.5
      vertex 1.3731 10.7731 2.5
      vertex 1.4 10.5 2.5
    endloop
  endfacet
  facet normal 0 0 1
    outer loop
      vertex 2.89778 11.2765 2.5
      vertex 1.29343 11.0358 2.5
      vertex 1.3731 10.7731 2.5
    endloop
  endfacet
  facet normal 0 0 1
    outer loop
      vertex 0.535756 11.7934 2.5
      vertex 1.5 13.0981 2.5
      vertex 1.26785 13.2189 2.5
    endloop
  endfacet
  facet normal 0 0 1
    outer loop
      vertex 2.59808 12 2.5
      vertex 1.16406 11.2778 2.5
      vertex 1.29343 11.0358 2.5
    endloop
  endfacet
  facet normal 0 0 1
    outer loop
      vertex 0.535756 11.7934 2.5
      vertex 1.26785 13.2189 2.5
      vertex 1.02606 13.3191 2.5
    endloop
  endfacet
  facet normal 0 0 1
    outer loop
      vertex 2.29813 12.4284 2.5
      vertex 0.989949 11.4899 2.5
      vertex 1.16406 11.2778 2.5
    endloop
  endfacet
  facet normal 0 0 1
    outer loop
      vertex 1.92836 12.7981 2.5
      vertex 0.777798 11.6641 2.5
      vertex 0.989949 11.4899 2.5
    endloop
  endfacet
  facet normal 0 0 1
    outer loop
      vertex 0.535756 11.7934 2.5
      vertex 1.02606 13.3191 2.5
      vertex 0.776457 13.3978 2.5
    endloop
  endfacet
  facet normal 0 0 1
    outer loop
      vertex 1.5 13.0981 2.5
      vertex 0.535756 11.7934 2.5
      vertex 0.777798 11.6641 2.5
    endloop
  endfacet
  facet normal 0 0 1
    outer loop
      vertex 0.273126 11.8731 2.5
      vertex 0.776457 13.3978 2.5
      vertex 0.520944 13.4544 2.5
    endloop
  endfacet
  facet normal 0 0 1
    outer loop
      vertex 0.776457 13.3978 2.5
      vertex 0.273126 11.8731 2.5
      vertex 0.535756 11.7934 2.5
    endloop
  endfacet
  facet normal 0 0 1
    outer loop
      vertex 0.261467 13.4886 2.5
      vertex 0.273126 11.8731 2.5
      vertex 0.520944 13.4544 2.5
    endloop
  endfacet
  facet normal 0 0 1
    outer loop
      vertex 0 11.9 2.5
      vertex 0.261467 13.4886 2.5
      vertex 0 13.5 2.5
    endloop
  endfacet
  facet normal 0 0 1
    outer loop
      vertex 0.261467 13.4886 2.5
      vertex 0 11.9 2.5
      vertex 0.273126 11.8731 2.5
    endloop
  endfacet
  facet normal -0 0 1
    outer loop
      vertex -0.261467 13.4886 2.5
      vertex 0 11.9 2.5
      vertex 0 13.5 2.5
    endloop
  endfacet
  facet normal 0 0 1
    outer loop
      vertex -0.261467 13.4886 2.5
      vertex -0.273126 11.8731 2.5
      vertex 0 11.9 2.5
    endloop
  endfacet
  facet normal -0 0 1
    outer loop
      vertex -0.520944 13.4544 2.5
      vertex -0.273126 11.8731 2.5
      vertex -0.261467 13.4886 2.5
    endloop
  endfacet
  facet normal -0 0 1
    outer loop
      vertex -0.776457 13.3978 2.5
      vertex -0.273126 11.8731 2.5
      vertex -0.520944 13.4544 2.5
    endloop
  endfacet
  facet normal 0 0 1
    outer loop
      vertex -0.273126 11.8731 2.5
      vertex -0.776457 13.3978 2.5
      vertex -0.535756 11.7934 2.5
    endloop
  endfacet
  facet normal -0 0 1
    outer loop
      vertex -1.02606 13.3191 2.5
      vertex -0.535756 11.7934 2.5
      vertex -0.776457 13.3978 2.5
    endloop
  endfacet
  facet normal -0 0 1
    outer loop
      vertex -1.26785 13.2189 2.5
      vertex -0.535756 11.7934 2.5
      vertex -1.02606 13.3191 2.5
    endloop
  endfacet
  facet normal -0 0 1
    outer loop
      vertex -1.5 13.0981 2.5
      vertex -0.535756 11.7934 2.5
      vertex -1.26785 13.2189 2.5
    endloop
  endfacet
  facet normal 0 0 1
    outer loop
      vertex -0.535756 11.7934 2.5
      vertex -1.5 13.0981 2.5
      vertex -0.777798 11.6641 2.5
    endloop
  endfacet
  facet normal -0 0 1
    outer loop
      vertex -1.72073 12.9575 2.5
      vertex -0.777798 11.6641 2.5
      vertex -1.5 13.0981 2.5
    endloop
  endfacet
  facet normal -0 0 1
    outer loop
      vertex -1.92836 12.7981 2.5
      vertex -0.777798 11.6641 2.5
      vertex -1.72073 12.9575 2.5
    endloop
  endfacet
  facet normal 0 0 1
    outer loop
      vertex -0.777798 11.6641 2.5
      vertex -1.92836 12.7981 2.5
      vertex -0.989949 11.4899 2.5
    endloop
  endfacet
  facet normal -0 0 1
    outer loop
      vertex -2.12132 12.6213 2.5
      vertex -0.989949 11.4899 2.5
      vertex -1.92836 12.7981 2.5
    endloop
  endfacet
  facet normal 0 0 1
    outer loop
      vertex -0.989949 11.4899 2.5
      vertex -2.29813 12.4284 2.5
      vertex -1.16406 11.2778 2.5
    endloop
  endfacet
  facet normal -0 0 1
    outer loop
      vertex -2.29813 12.4284 2.5
      vertex -0.989949 11.4899 2.5
      vertex -2.12132 12.6213 2.5
    endloop
  endfacet
  facet normal -0 0 1
    outer loop
      vertex 0.989949 -11.4899 2.5
      vertex 2.29813 -12.4284 2.5
      vertex 1.16406 -11.2778 2.5
    endloop
  endfacet
  facet normal 0 0 1
    outer loop
      vertex 2.29813 -12.4284 2.5
      vertex 0.989949 -11.4899 2.5
      vertex 2.12132 -12.6213 2.5
    endloop
  endfacet
  facet normal 0 0 1
    outer loop
      vertex 2.12132 -12.6213 2.5
      vertex 0.989949 -11.4899 2.5
      vertex 1.92836 -12.7981 2.5
    endloop
  endfacet
  facet normal -0 0 1
    outer loop
      vertex 0.777798 -11.6641 2.5
      vertex 1.92836 -12.7981 2.5
      vertex 0.989949 -11.4899 2.5
    endloop
  endfacet
  facet normal 0 0 1
    outer loop
      vertex 1.92836 -12.7981 2.5
      vertex 0.777798 -11.6641 2.5
      vertex 1.72073 -12.9575 2.5
    endloop
  endfacet
  facet normal 0 0 1
    outer loop
      vertex 1.72073 -12.9575 2.5
      vertex 0.777798 -11.6641 2.5
      vertex 1.5 -13.0981 2.5
    endloop
  endfacet
  facet normal -0 0 1
    outer loop
      vertex 0.535756 -11.7934 2.5
      vertex 1.5 -13.0981 2.5
      vertex 0.777798 -11.6641 2.5
    endloop
  endfacet
  facet normal 0 0 1
    outer loop
      vertex 1.5 -13.0981 2.5
      vertex 0.535756 -11.7934 2.5
      vertex 1.26785 -13.2189 2.5
    endloop
  endfacet
  facet normal 0 0 1
    outer loop
      vertex 1.26785 -13.2189 2.5
      vertex 0.535756 -11.7934 2.5
      vertex 1.02606 -13.3191 2.5
    endloop
  endfacet
  facet normal 0 0 1
    outer loop
      vertex 1.02606 -13.3191 2.5
      vertex 0.535756 -11.7934 2.5
      vertex 0.776457 -13.3978 2.5
    endloop
  endfacet
  facet normal -0 0 1
    outer loop
      vertex 0.273126 -11.8731 2.5
      vertex 0.776457 -13.3978 2.5
      vertex 0.535756 -11.7934 2.5
    endloop
  endfacet
  facet normal 0 0 1
    outer loop
      vertex 0.776457 -13.3978 2.5
      vertex 0.273126 -11.8731 2.5
      vertex 0.520944 -13.4544 2.5
    endloop
  endfacet
  facet normal 0 0 1
    outer loop
      vertex 0.273126 -11.8731 2.5
      vertex 0.261467 -13.4886 2.5
      vertex 0.520944 -13.4544 2.5
    endloop
  endfacet
  facet normal -0 0 1
    outer loop
      vertex 0 -11.9 2.5
      vertex 0.261467 -13.4886 2.5
      vertex 0.273126 -11.8731 2.5
    endloop
  endfacet
  facet normal 0 0 1
    outer loop
      vertex 0 -11.9 2.5
      vertex 0 -13.5 2.5
      vertex 0.261467 -13.4886 2.5
    endloop
  endfacet
  facet normal 0 0 1
    outer loop
      vertex 0 -11.9 2.5
      vertex -0.261467 -13.4886 2.5
      vertex 0 -13.5 2.5
    endloop
  endfacet
  facet normal 0 0 1
    outer loop
      vertex -0.273126 -11.8731 2.5
      vertex -0.261467 -13.4886 2.5
      vertex 0 -11.9 2.5
    endloop
  endfacet
  facet normal 0 0 1
    outer loop
      vertex -0.273126 -11.8731 2.5
      vertex -0.520944 -13.4544 2.5
      vertex -0.261467 -13.4886 2.5
    endloop
  endfacet
  facet normal 0 0 1
    outer loop
      vertex -0.776457 -13.3978 2.5
      vertex -0.273126 -11.8731 2.5
      vertex -0.535756 -11.7934 2.5
    endloop
  endfacet
  facet normal 0 0 1
    outer loop
      vertex -0.273126 -11.8731 2.5
      vertex -0.776457 -13.3978 2.5
      vertex -0.520944 -13.4544 2.5
    endloop
  endfacet
  facet normal 0 0 1
    outer loop
      vertex -1.5 -13.0981 2.5
      vertex -0.535756 -11.7934 2.5
      vertex -0.777798 -11.6641 2.5
    endloop
  endfacet
  facet normal 0 0 1
    outer loop
      vertex -1.92836 -12.7981 2.5
      vertex -0.777798 -11.6641 2.5
      vertex -0.989949 -11.4899 2.5
    endloop
  endfacet
  facet normal 0 0 1
    outer loop
      vertex -0.535756 -11.7934 2.5
      vertex -1.02606 -13.3191 2.5
      vertex -0.776457 -13.3978 2.5
    endloop
  endfacet
  facet normal 0 0 1
    outer loop
      vertex -2.29813 -12.4284 2.5
      vertex -0.989949 -11.4899 2.5
      vertex -1.16406 -11.2778 2.5
    endloop
  endfacet
  facet normal 0 0 1
    outer loop
      vertex -0.535756 -11.7934 2.5
      vertex -1.26785 -13.2189 2.5
      vertex -1.02606 -13.3191 2.5
    endloop
  endfacet
  facet normal 0 0 1
    outer loop
      vertex -2.59808 -12 2.5
      vertex -1.16406 -11.2778 2.5
      vertex -1.29343 -11.0358 2.5
    endloop
  endfacet
  facet normal 0 0 1
    outer loop
      vertex -2.89778 -11.2765 2.5
      vertex -1.29343 -11.0358 2.5
      vertex -1.3731 -10.7731 2.5
    endloop
  endfacet
  facet normal -0 0 1
    outer loop
      vertex -2.98858 -10.7615 2.5
      vertex -1.3731 -10.7731 2.5
      vertex -1.4 -10.5 2.5
    endloop
  endfacet
  facet normal 0 0 1
    outer loop
      vertex -0.535756 -11.7934 2.5
      vertex -1.5 -13.0981 2.5
      vertex -1.26785 -13.2189 2.5
    endloop
  endfacet
  facet normal 0 0 1
    outer loop
      vertex -1.29343 -9.96424 2.5
      vertex -3 -10.5 2.5
      vertex -1.3731 -10.2269 2.5
    endloop
  endfacet
  facet normal -0 0 1
    outer loop
      vertex -2.45746 12.2207 2.5
      vertex -1.16406 11.2778 2.5
      vertex -2.29813 12.4284 2.5
    endloop
  endfacet
  facet normal 0 0 1
    outer loop
      vertex -1.3731 -10.2269 2.5
      vertex -3 -10.5 2.5
      vertex -1.4 -10.5 2.5
    endloop
  endfacet
  facet normal -0 0 1
    outer loop
      vertex -2.59808 12 2.5
      vertex -1.16406 11.2778 2.5
      vertex -2.45746 12.2207 2.5
    endloop
  endfacet
  facet normal 0 -0 1
    outer loop
      vertex -2.98858 -10.7615 2.5
      vertex -1.4 -10.5 2.5
      vertex -3 -10.5 2.5
    endloop
  endfacet
  facet normal 0 0 1
    outer loop
      vertex -1.16406 11.2778 2.5
      vertex -2.59808 12 2.5
      vertex -1.29343 11.0358 2.5
    endloop
  endfacet
  facet normal 0 0 1
    outer loop
      vertex -0.777798 -11.6641 2.5
      vertex -1.72073 -12.9575 2.5
      vertex -1.5 -13.0981 2.5
    endloop
  endfacet
  facet normal -0 0 1
    outer loop
      vertex -2.71892 11.7679 2.5
      vertex -1.29343 11.0358 2.5
      vertex -2.59808 12 2.5
    endloop
  endfacet
  facet normal 0 0 1
    outer loop
      vertex -0.777798 -11.6641 2.5
      vertex -1.92836 -12.7981 2.5
      vertex -1.72073 -12.9575 2.5
    endloop
  endfacet
  facet normal -0 0 1
    outer loop
      vertex -2.81908 11.5261 2.5
      vertex -1.29343 11.0358 2.5
      vertex -2.71892 11.7679 2.5
    endloop
  endfacet
  facet normal 0 0 1
    outer loop
      vertex -0.989949 -11.4899 2.5
      vertex -2.12132 -12.6213 2.5
      vertex -1.92836 -12.7981 2.5
    endloop
  endfacet
  facet normal -0 0 1
    outer loop
      vertex -2.89778 11.2765 2.5
      vertex -1.29343 11.0358 2.5
      vertex -2.81908 11.5261 2.5
    endloop
  endfacet
  facet normal 0 0 1
    outer loop
      vertex -0.989949 -11.4899 2.5
      vertex -2.29813 -12.4284 2.5
      vertex -2.12132 -12.6213 2.5
    endloop
  endfacet
  facet normal 0 0 1
    outer loop
      vertex -1.29343 11.0358 2.5
      vertex -2.89778 11.2765 2.5
      vertex -1.3731 10.7731 2.5
    endloop
  endfacet
  facet normal 0 0 1
    outer loop
      vertex -1.16406 -11.2778 2.5
      vertex -2.45746 -12.2207 2.5
      vertex -2.29813 -12.4284 2.5
    endloop
  endfacet
  facet normal -0 0 1
    outer loop
      vertex -2.95442 11.0209 2.5
      vertex -1.3731 10.7731 2.5
      vertex -2.89778 11.2765 2.5
    endloop
  endfacet
  facet normal 0 0 1
    outer loop
      vertex -1.16406 -11.2778 2.5
      vertex -2.59808 -12 2.5
      vertex -2.45746 -12.2207 2.5
    endloop
  endfacet
  facet normal 0 0 1
    outer loop
      vertex -2.98858 10.7615 2.5
      vertex -1.3731 10.7731 2.5
      vertex -2.95442 11.0209 2.5
    endloop
  endfacet
  facet normal 0 0 1
    outer loop
      vertex -1.29343 -11.0358 2.5
      vertex -2.71892 -11.7679 2.5
      vertex -2.59808 -12 2.5
    endloop
  endfacet
  facet normal 0 0 1
    outer loop
      vertex -1.3731 10.7731 2.5
      vertex -2.98858 10.7615 2.5
      vertex -1.4 10.5 2.5
    endloop
  endfacet
  facet normal 0 0 1
    outer loop
      vertex -1.29343 -11.0358 2.5
      vertex -2.81908 -11.5261 2.5
      vertex -2.71892 -11.7679 2.5
    endloop
  endfacet
  facet normal 0 0 1
    outer loop
      vertex -1.4 10.5 2.5
      vertex -2.98858 10.7615 2.5
      vertex -3 10.5 2.5
    endloop
  endfacet
  facet normal 0 0 1
    outer loop
      vertex -1.29343 -11.0358 2.5
      vertex -2.89778 -11.2765 2.5
      vertex -2.81908 -11.5261 2.5
    endloop
  endfacet
  facet normal 0 0 1
    outer loop
      vertex -1.3731 -10.7731 2.5
      vertex -2.95442 -11.0209 2.5
      vertex -2.89778 -11.2765 2.5
    endloop
  endfacet
  facet normal 0 0 1
    outer loop
      vertex -1.3731 -10.7731 2.5
      vertex -2.98858 -10.7615 2.5
      vertex -2.95442 -11.0209 2.5
    endloop
  endfacet
  facet normal 0.130673 0.991425 -0
    outer loop
      vertex 0.520944 13.4544 0
      vertex 0.261467 13.4886 2.5
      vertex 0.520944 13.4544 2.5
    endloop
  endfacet
  facet normal 0.130673 0.991425 0
    outer loop
      vertex 0.261467 13.4886 2.5
      vertex 0.520944 13.4544 0
      vertex 0.261467 13.4886 0
    endloop
  endfacet
  facet normal -0.976316 0.216348 0
    outer loop
      vertex -2.95442 11.0209 0
      vertex -2.89778 11.2765 2.5
      vertex -2.89778 11.2765 0
    endloop
  endfacet
  facet normal -0.976316 0.216348 0
    outer loop
      vertex -2.89778 11.2765 2.5
      vertex -2.95442 11.0209 0
      vertex -2.95442 11.0209 2.5
    endloop
  endfacet
  facet normal -0.999048 0.0436295 0
    outer loop
      vertex -3 10.5 0
      vertex -2.98858 10.7615 2.5
      vertex -2.98858 10.7615 0
    endloop
  endfacet
  facet normal -0.999048 0.0436295 0
    outer loop
      vertex -2.98858 10.7615 2.5
      vertex -3 10.5 0
      vertex -3 10.5 2.5
    endloop
  endfacet
  facet normal 0.976316 -0.216348 0
    outer loop
      vertex 2.89778 -11.2765 2.5
      vertex 2.95442 -11.0209 0
      vertex 2.95442 -11.0209 2.5
    endloop
  endfacet
  facet normal 0.976316 -0.216348 0
    outer loop
      vertex 2.95442 -11.0209 0
      vertex 2.89778 -11.2765 2.5
      vertex 2.89778 -11.2765 0
    endloop
  endfacet
  facet normal 1 -0 0
    outer loop
      vertex 3 -10.5 2.5
      vertex 3 10.5 0
      vertex 3 10.5 2.5
    endloop
  endfacet
  facet normal 1 0 0
    outer loop
      vertex 3 10.5 0
      vertex 3 -10.5 2.5
      vertex 3 -10.5 0
    endloop
  endfacet
  facet normal 0.886985 0.461798 0
    outer loop
      vertex 2.71892 11.7679 2.5
      vertex 2.59808 12 0
      vertex 2.59808 12 2.5
    endloop
  endfacet
  facet normal 0.886985 0.461798 0
    outer loop
      vertex 2.59808 12 0
      vertex 2.71892 11.7679 2.5
      vertex 2.71892 11.7679 0
    endloop
  endfacet
  facet normal 0.216273 0.976333 -0
    outer loop
      vertex 0.776457 13.3978 0
      vertex 0.520944 13.4544 2.5
      vertex 0.776457 13.3978 2.5
    endloop
  endfacet
  facet normal 0.216273 0.976333 0
    outer loop
      vertex 0.520944 13.4544 2.5
      vertex 0.776457 13.3978 0
      vertex 0.520944 13.4544 0
    endloop
  endfacet
  facet normal -0.461599 0.887089 0
    outer loop
      vertex -1.26785 13.2189 0
      vertex -1.5 13.0981 2.5
      vertex -1.26785 13.2189 2.5
    endloop
  endfacet
  facet normal -0.461599 0.887089 0
    outer loop
      vertex -1.5 13.0981 2.5
      vertex -1.26785 13.2189 0
      vertex -1.5 13.0981 0
    endloop
  endfacet
  facet normal -0.99144 0.130561 0
    outer loop
      vertex -2.98858 10.7615 0
      vertex -2.95442 11.0209 2.5
      vertex -2.95442 11.0209 0
    endloop
  endfacet
  facet normal -0.99144 0.130561 0
    outer loop
      vertex -2.95442 11.0209 2.5
      vertex -2.98858 10.7615 0
      vertex -2.98858 10.7615 2.5
    endloop
  endfacet
  facet normal 0.99144 -0.130561 0
    outer loop
      vertex 2.95442 -11.0209 2.5
      vertex 2.98858 -10.7615 0
      vertex 2.98858 -10.7615 2.5
    endloop
  endfacet
  facet normal 0.99144 -0.130561 0
    outer loop
      vertex 2.98858 -10.7615 0
      vertex 2.95442 -11.0209 2.5
      vertex 2.95442 -11.0209 0
    endloop
  endfacet
  facet normal 0.382838 -0.923816 0
    outer loop
      vertex 1.02606 -13.3191 0
      vertex 1.26785 -13.2189 2.5
      vertex 1.02606 -13.3191 2.5
    endloop
  endfacet
  facet normal 0.382838 -0.923816 0
    outer loop
      vertex 1.26785 -13.2189 2.5
      vertex 1.02606 -13.3191 0
      vertex 1.26785 -13.2189 0
    endloop
  endfacet
  facet normal 0.923875 -0.382694 0
    outer loop
      vertex 2.71892 -11.7679 2.5
      vertex 2.81908 -11.5261 0
      vertex 2.81908 -11.5261 2.5
    endloop
  endfacet
  facet normal 0.923875 -0.382694 0
    outer loop
      vertex 2.81908 -11.5261 0
      vertex 2.71892 -11.7679 2.5
      vertex 2.71892 -11.7679 0
    endloop
  endfacet
  facet normal -0.130673 -0.991425 0
    outer loop
      vertex -0.520944 -13.4544 0
      vertex -0.261467 -13.4886 2.5
      vertex -0.520944 -13.4544 2.5
    endloop
  endfacet
  facet normal -0.130673 -0.991425 -0
    outer loop
      vertex -0.261467 -13.4886 2.5
      vertex -0.520944 -13.4544 0
      vertex -0.261467 -13.4886 0
    endloop
  endfacet
  facet normal -0.923875 -0.382694 0
    outer loop
      vertex -2.71892 -11.7679 0
      vertex -2.81908 -11.5261 2.5
      vertex -2.81908 -11.5261 0
    endloop
  endfacet
  facet normal -0.923875 -0.382694 0
    outer loop
      vertex -2.81908 -11.5261 2.5
      vertex -2.71892 -11.7679 0
      vertex -2.71892 -11.7679 2.5
    endloop
  endfacet
  facet normal 0.608954 0.793206 -0
    outer loop
      vertex 1.92836 12.7981 0
      vertex 1.72073 12.9575 2.5
      vertex 1.92836 12.7981 2.5
    endloop
  endfacet
  facet normal 0.608954 0.793206 0
    outer loop
      vertex 1.72073 12.9575 2.5
      vertex 1.92836 12.7981 0
      vertex 1.72073 12.9575 0
    endloop
  endfacet
  facet normal 0.300707 0.953716 -0
    outer loop
      vertex 1.02606 13.3191 0
      vertex 0.776457 13.3978 2.5
      vertex 1.02606 13.3191 2.5
    endloop
  endfacet
  facet normal 0.300707 0.953716 0
    outer loop
      vertex 0.776457 13.3978 2.5
      vertex 1.02606 13.3191 0
      vertex 0.776457 13.3978 0
    endloop
  endfacet
  facet normal -0.793434 0.608656 0
    outer loop
      vertex -2.45746 12.2207 0
      vertex -2.29813 12.4284 2.5
      vertex -2.29813 12.4284 0
    endloop
  endfacet
  facet normal -0.793434 0.608656 0
    outer loop
      vertex -2.29813 12.4284 2.5
      vertex -2.45746 12.2207 0
      vertex -2.45746 12.2207 2.5
    endloop
  endfacet
  facet normal -0.0435588 0.999051 0
    outer loop
      vertex 0 13.5 0
      vertex -0.261467 13.4886 2.5
      vertex 0 13.5 2.5
    endloop
  endfacet
  facet normal -0.0435588 0.999051 0
    outer loop
      vertex -0.261467 13.4886 2.5
      vertex 0 13.5 0
      vertex -0.261467 13.4886 0
    endloop
  endfacet
  facet normal -0.382838 0.923816 0
    outer loop
      vertex -1.02606 13.3191 0
      vertex -1.26785 13.2189 2.5
      vertex -1.02606 13.3191 2.5
    endloop
  endfacet
  facet normal -0.382838 0.923816 0
    outer loop
      vertex -1.26785 13.2189 2.5
      vertex -1.02606 13.3191 0
      vertex -1.26785 13.2189 0
    endloop
  endfacet
  facet normal 0.999048 -0.0436295 0
    outer loop
      vertex 2.98858 -10.7615 2.5
      vertex 3 -10.5 0
      vertex 3 -10.5 2.5
    endloop
  endfacet
  facet normal 0.999048 -0.0436295 0
    outer loop
      vertex 3 -10.5 0
      vertex 2.98858 -10.7615 2.5
      vertex 2.98858 -10.7615 0
    endloop
  endfacet
  facet normal -0.737183 -0.675693 0
    outer loop
      vertex -2.12132 -12.6213 0
      vertex -2.29813 -12.4284 2.5
      vertex -2.29813 -12.4284 0
    endloop
  endfacet
  facet normal -0.737183 -0.675693 0
    outer loop
      vertex -2.29813 -12.4284 2.5
      vertex -2.12132 -12.6213 0
      vertex -2.12132 -12.6213 2.5
    endloop
  endfacet
  facet normal 0.976316 0.216348 0
    outer loop
      vertex 2.95442 11.0209 2.5
      vertex 2.89778 11.2765 0
      vertex 2.89778 11.2765 2.5
    endloop
  endfacet
  facet normal 0.976316 0.216348 0
    outer loop
      vertex 2.89778 11.2765 0
      vertex 2.95442 11.0209 2.5
      vertex 2.95442 11.0209 0
    endloop
  endfacet
  facet normal 0.99144 0.130561 0
    outer loop
      vertex 2.98858 10.7615 2.5
      vertex 2.95442 11.0209 0
      vertex 2.95442 11.0209 2.5
    endloop
  endfacet
  facet normal 0.99144 0.130561 0
    outer loop
      vertex 2.95442 11.0209 0
      vertex 2.98858 10.7615 2.5
      vertex 2.98858 10.7615 0
    endloop
  endfacet
  facet normal 0.923875 0.382694 0
    outer loop
      vertex 2.81908 11.5261 2.5
      vertex 2.71892 11.7679 0
      vertex 2.71892 11.7679 2.5
    endloop
  endfacet
  facet normal 0.923875 0.382694 0
    outer loop
      vertex 2.71892 11.7679 0
      vertex 2.81908 11.5261 2.5
      vertex 2.81908 11.5261 0
    endloop
  endfacet
  facet normal 0.953715 0.300711 0
    outer loop
      vertex 2.89778 11.2765 2.5
      vertex 2.81908 11.5261 0
      vertex 2.81908 11.5261 2.5
    endloop
  endfacet
  facet normal 0.953715 0.300711 0
    outer loop
      vertex 2.81908 11.5261 0
      vertex 2.89778 11.2765 2.5
      vertex 2.89778 11.2765 0
    endloop
  endfacet
  facet normal 0.843359 0.53735 0
    outer loop
      vertex 2.59808 12 2.5
      vertex 2.45746 12.2207 0
      vertex 2.45746 12.2207 2.5
    endloop
  endfacet
  facet normal 0.843359 0.53735 0
    outer loop
      vertex 2.45746 12.2207 0
      vertex 2.59808 12 2.5
      vertex 2.59808 12 0
    endloop
  endfacet
  facet normal 0.737183 0.675693 0
    outer loop
      vertex 2.29813 12.4284 2.5
      vertex 2.12132 12.6213 0
      vertex 2.12132 12.6213 2.5
    endloop
  endfacet
  facet normal 0.737183 0.675693 0
    outer loop
      vertex 2.12132 12.6213 0
      vertex 2.29813 12.4284 2.5
      vertex 2.29813 12.4284 0
    endloop
  endfacet
  facet normal 0.382838 0.923816 -0
    outer loop
      vertex 1.26785 13.2189 0
      vertex 1.02606 13.3191 2.5
      vertex 1.26785 13.2189 2.5
    endloop
  endfacet
  facet normal 0.382838 0.923816 0
    outer loop
      vertex 1.02606 13.3191 2.5
      vertex 1.26785 13.2189 0
      vertex 1.02606 13.3191 0
    endloop
  endfacet
  facet normal 0.537244 0.843427 -0
    outer loop
      vertex 1.72073 12.9575 0
      vertex 1.5 13.0981 2.5
      vertex 1.72073 12.9575 2.5
    endloop
  endfacet
  facet normal 0.537244 0.843427 0
    outer loop
      vertex 1.5 13.0981 2.5
      vertex 1.72073 12.9575 0
      vertex 1.5 13.0981 0
    endloop
  endfacet
  facet normal 0.675559 0.737306 -0
    outer loop
      vertex 2.12132 12.6213 0
      vertex 1.92836 12.7981 2.5
      vertex 2.12132 12.6213 2.5
    endloop
  endfacet
  facet normal 0.675559 0.737306 0
    outer loop
      vertex 1.92836 12.7981 2.5
      vertex 2.12132 12.6213 0
      vertex 1.92836 12.7981 0
    endloop
  endfacet
  facet normal 0.461599 0.887089 -0
    outer loop
      vertex 1.5 13.0981 0
      vertex 1.26785 13.2189 2.5
      vertex 1.5 13.0981 2.5
    endloop
  endfacet
  facet normal 0.461599 0.887089 0
    outer loop
      vertex 1.26785 13.2189 2.5
      vertex 1.5 13.0981 0
      vertex 1.26785 13.2189 0
    endloop
  endfacet
  facet normal -0.886985 0.461798 0
    outer loop
      vertex -2.71892 11.7679 0
      vertex -2.59808 12 2.5
      vertex -2.59808 12 0
    endloop
  endfacet
  facet normal -0.886985 0.461798 0
    outer loop
      vertex -2.59808 12 2.5
      vertex -2.71892 11.7679 0
      vertex -2.71892 11.7679 2.5
    endloop
  endfacet
  facet normal -0.608954 0.793206 0
    outer loop
      vertex -1.72073 12.9575 0
      vertex -1.92836 12.7981 2.5
      vertex -1.72073 12.9575 2.5
    endloop
  endfacet
  facet normal -0.608954 0.793206 0
    outer loop
      vertex -1.92836 12.7981 2.5
      vertex -1.72073 12.9575 0
      vertex -1.92836 12.7981 0
    endloop
  endfacet
  facet normal -0.675559 0.737306 0
    outer loop
      vertex -1.92836 12.7981 0
      vertex -2.12132 12.6213 2.5
      vertex -1.92836 12.7981 2.5
    endloop
  endfacet
  facet normal -0.675559 0.737306 0
    outer loop
      vertex -2.12132 12.6213 2.5
      vertex -1.92836 12.7981 0
      vertex -2.12132 12.6213 0
    endloop
  endfacet
  facet normal -0.737183 0.675693 0
    outer loop
      vertex -2.29813 12.4284 0
      vertex -2.12132 12.6213 2.5
      vertex -2.12132 12.6213 0
    endloop
  endfacet
  facet normal -0.737183 0.675693 0
    outer loop
      vertex -2.12132 12.6213 2.5
      vertex -2.29813 12.4284 0
      vertex -2.29813 12.4284 2.5
    endloop
  endfacet
  facet normal -0.843359 0.53735 0
    outer loop
      vertex -2.59808 12 0
      vertex -2.45746 12.2207 2.5
      vertex -2.45746 12.2207 0
    endloop
  endfacet
  facet normal -0.843359 0.53735 0
    outer loop
      vertex -2.45746 12.2207 2.5
      vertex -2.59808 12 0
      vertex -2.59808 12 2.5
    endloop
  endfacet
  facet normal -0.923875 0.382694 0
    outer loop
      vertex -2.81908 11.5261 0
      vertex -2.71892 11.7679 2.5
      vertex -2.71892 11.7679 0
    endloop
  endfacet
  facet normal -0.923875 0.382694 0
    outer loop
      vertex -2.71892 11.7679 2.5
      vertex -2.81908 11.5261 0
      vertex -2.81908 11.5261 2.5
    endloop
  endfacet
  facet normal -0.537244 0.843427 0
    outer loop
      vertex -1.5 13.0981 0
      vertex -1.72073 12.9575 2.5
      vertex -1.5 13.0981 2.5
    endloop
  endfacet
  facet normal -0.537244 0.843427 0
    outer loop
      vertex -1.72073 12.9575 2.5
      vertex -1.5 13.0981 0
      vertex -1.72073 12.9575 0
    endloop
  endfacet
  facet normal -0.300707 0.953716 0
    outer loop
      vertex -0.776457 13.3978 0
      vertex -1.02606 13.3191 2.5
      vertex -0.776457 13.3978 2.5
    endloop
  endfacet
  facet normal -0.300707 0.953716 0
    outer loop
      vertex -1.02606 13.3191 2.5
      vertex -0.776457 13.3978 0
      vertex -1.02606 13.3191 0
    endloop
  endfacet
  facet normal -0.216273 0.976333 0
    outer loop
      vertex -0.520944 13.4544 0
      vertex -0.776457 13.3978 2.5
      vertex -0.520944 13.4544 2.5
    endloop
  endfacet
  facet normal -0.216273 0.976333 0
    outer loop
      vertex -0.776457 13.3978 2.5
      vertex -0.520944 13.4544 0
      vertex -0.776457 13.3978 0
    endloop
  endfacet
  facet normal -0.130673 0.991425 0
    outer loop
      vertex -0.261467 13.4886 0
      vertex -0.520944 13.4544 2.5
      vertex -0.261467 13.4886 2.5
    endloop
  endfacet
  facet normal -0.130673 0.991425 0
    outer loop
      vertex -0.520944 13.4544 2.5
      vertex -0.261467 13.4886 0
      vertex -0.520944 13.4544 0
    endloop
  endfacet
  facet normal 0.0435588 0.999051 -0
    outer loop
      vertex 0.261467 13.4886 0
      vertex 0 13.5 2.5
      vertex 0.261467 13.4886 2.5
    endloop
  endfacet
  facet normal 0.0435588 0.999051 0
    outer loop
      vertex 0 13.5 2.5
      vertex 0.261467 13.4886 0
      vertex 0 13.5 0
    endloop
  endfacet
  facet normal 0.0435588 -0.999051 0
    outer loop
      vertex 0 -13.5 0
      vertex 0.261467 -13.4886 2.5
      vertex 0 -13.5 2.5
    endloop
  endfacet
  facet normal 0.0435588 -0.999051 0
    outer loop
      vertex 0.261467 -13.4886 2.5
      vertex 0 -13.5 0
      vertex 0.261467 -13.4886 0
    endloop
  endfacet
  facet normal 0.216273 -0.976333 0
    outer loop
      vertex 0.520944 -13.4544 0
      vertex 0.776457 -13.3978 2.5
      vertex 0.520944 -13.4544 2.5
    endloop
  endfacet
  facet normal 0.216273 -0.976333 0
    outer loop
      vertex 0.776457 -13.3978 2.5
      vertex 0.520944 -13.4544 0
      vertex 0.776457 -13.3978 0
    endloop
  endfacet
  facet normal 0.537244 -0.843427 0
    outer loop
      vertex 1.5 -13.0981 0
      vertex 1.72073 -12.9575 2.5
      vertex 1.5 -13.0981 2.5
    endloop
  endfacet
  facet normal 0.537244 -0.843427 0
    outer loop
      vertex 1.72073 -12.9575 2.5
      vertex 1.5 -13.0981 0
      vertex 1.72073 -12.9575 0
    endloop
  endfacet
  facet normal 0.608954 -0.793206 0
    outer loop
      vertex 1.72073 -12.9575 0
      vertex 1.92836 -12.7981 2.5
      vertex 1.72073 -12.9575 2.5
    endloop
  endfacet
  facet normal 0.608954 -0.793206 0
    outer loop
      vertex 1.92836 -12.7981 2.5
      vertex 1.72073 -12.9575 0
      vertex 1.92836 -12.7981 0
    endloop
  endfacet
  facet normal 0.737183 -0.675693 0
    outer loop
      vertex 2.12132 -12.6213 2.5
      vertex 2.29813 -12.4284 0
      vertex 2.29813 -12.4284 2.5
    endloop
  endfacet
  facet normal 0.737183 -0.675693 0
    outer loop
      vertex 2.29813 -12.4284 0
      vertex 2.12132 -12.6213 2.5
      vertex 2.12132 -12.6213 0
    endloop
  endfacet
  facet normal 0.843359 -0.53735 0
    outer loop
      vertex 2.45746 -12.2207 2.5
      vertex 2.59808 -12 0
      vertex 2.59808 -12 2.5
    endloop
  endfacet
  facet normal 0.843359 -0.53735 0
    outer loop
      vertex 2.59808 -12 0
      vertex 2.45746 -12.2207 2.5
      vertex 2.45746 -12.2207 0
    endloop
  endfacet
  facet normal -0.608954 -0.793206 0
    outer loop
      vertex -1.92836 -12.7981 0
      vertex -1.72073 -12.9575 2.5
      vertex -1.92836 -12.7981 2.5
    endloop
  endfacet
  facet normal -0.608954 -0.793206 -0
    outer loop
      vertex -1.72073 -12.9575 2.5
      vertex -1.92836 -12.7981 0
      vertex -1.72073 -12.9575 0
    endloop
  endfacet
  facet normal -0.461599 -0.887089 0
    outer loop
      vertex -1.5 -13.0981 0
      vertex -1.26785 -13.2189 2.5
      vertex -1.5 -13.0981 2.5
    endloop
  endfacet
  facet normal -0.461599 -0.887089 -0
    outer loop
      vertex -1.26785 -13.2189 2.5
      vertex -1.5 -13.0981 0
      vertex -1.26785 -13.2189 0
    endloop
  endfacet
  facet normal -0.300707 -0.953716 0
    outer loop
      vertex -1.02606 -13.3191 0
      vertex -0.776457 -13.3978 2.5
      vertex -1.02606 -13.3191 2.5
    endloop
  endfacet
  facet normal -0.300707 -0.953716 -0
    outer loop
      vertex -0.776457 -13.3978 2.5
      vertex -1.02606 -13.3191 0
      vertex -0.776457 -13.3978 0
    endloop
  endfacet
  facet normal -0.843359 -0.53735 0
    outer loop
      vertex -2.45746 -12.2207 0
      vertex -2.59808 -12 2.5
      vertex -2.59808 -12 0
    endloop
  endfacet
  facet normal -0.843359 -0.53735 0
    outer loop
      vertex -2.59808 -12 2.5
      vertex -2.45746 -12.2207 0
      vertex -2.45746 -12.2207 2.5
    endloop
  endfacet
  facet normal -0.976316 -0.216348 0
    outer loop
      vertex -2.89778 -11.2765 0
      vertex -2.95442 -11.0209 2.5
      vertex -2.95442 -11.0209 0
    endloop
  endfacet
  facet normal -0.976316 -0.216348 0
    outer loop
      vertex -2.95442 -11.0209 2.5
      vertex -2.89778 -11.2765 0
      vertex -2.89778 -11.2765 2.5
    endloop
  endfacet
  facet normal 0.793434 0.608656 0
    outer loop
      vertex 2.45746 12.2207 2.5
      vertex 2.29813 12.4284 0
      vertex 2.29813 12.4284 2.5
    endloop
  endfacet
  facet normal 0.793434 0.608656 0
    outer loop
      vertex 2.29813 12.4284 0
      vertex 2.45746 12.2207 2.5
      vertex 2.45746 12.2207 0
    endloop
  endfacet
  facet normal 0.300707 -0.953716 0
    outer loop
      vertex 0.776457 -13.3978 0
      vertex 1.02606 -13.3191 2.5
      vertex 0.776457 -13.3978 2.5
    endloop
  endfacet
  facet normal 0.300707 -0.953716 0
    outer loop
      vertex 1.02606 -13.3191 2.5
      vertex 0.776457 -13.3978 0
      vertex 1.02606 -13.3191 0
    endloop
  endfacet
  facet normal 0.461599 -0.887089 0
    outer loop
      vertex 1.26785 -13.2189 0
      vertex 1.5 -13.0981 2.5
      vertex 1.26785 -13.2189 2.5
    endloop
  endfacet
  facet normal 0.461599 -0.887089 0
    outer loop
      vertex 1.5 -13.0981 2.5
      vertex 1.26785 -13.2189 0
      vertex 1.5 -13.0981 0
    endloop
  endfacet
  facet normal 0.675559 -0.737306 0
    outer loop
      vertex 1.92836 -12.7981 0
      vertex 2.12132 -12.6213 2.5
      vertex 1.92836 -12.7981 2.5
    endloop
  endfacet
  facet normal 0.675559 -0.737306 0
    outer loop
      vertex 2.12132 -12.6213 2.5
      vertex 1.92836 -12.7981 0
      vertex 2.12132 -12.6213 0
    endloop
  endfacet
  facet normal 0.793434 -0.608656 0
    outer loop
      vertex 2.29813 -12.4284 2.5
      vertex 2.45746 -12.2207 0
      vertex 2.45746 -12.2207 2.5
    endloop
  endfacet
  facet normal 0.793434 -0.608656 0
    outer loop
      vertex 2.45746 -12.2207 0
      vertex 2.29813 -12.4284 2.5
      vertex 2.29813 -12.4284 0
    endloop
  endfacet
  facet normal 0.886985 -0.461798 0
    outer loop
      vertex 2.59808 -12 2.5
      vertex 2.71892 -11.7679 0
      vertex 2.71892 -11.7679 2.5
    endloop
  endfacet
  facet normal 0.886985 -0.461798 0
    outer loop
      vertex 2.71892 -11.7679 0
      vertex 2.59808 -12 2.5
      vertex 2.59808 -12 0
    endloop
  endfacet
  facet normal -0.0435588 -0.999051 0
    outer loop
      vertex -0.261467 -13.4886 0
      vertex 0 -13.5 2.5
      vertex -0.261467 -13.4886 2.5
    endloop
  endfacet
  facet normal -0.0435588 -0.999051 -0
    outer loop
      vertex 0 -13.5 2.5
      vertex -0.261467 -13.4886 0
      vertex 0 -13.5 0
    endloop
  endfacet
  facet normal -0.537244 -0.843427 0
    outer loop
      vertex -1.72073 -12.9575 0
      vertex -1.5 -13.0981 2.5
      vertex -1.72073 -12.9575 2.5
    endloop
  endfacet
  facet normal -0.537244 -0.843427 -0
    outer loop
      vertex -1.5 -13.0981 2.5
      vertex -1.72073 -12.9575 0
      vertex -1.5 -13.0981 0
    endloop
  endfacet
  facet normal -0.382838 -0.923816 0
    outer loop
      vertex -1.26785 -13.2189 0
      vertex -1.02606 -13.3191 2.5
      vertex -1.26785 -13.2189 2.5
    endloop
  endfacet
  facet normal -0.382838 -0.923816 -0
    outer loop
      vertex -1.02606 -13.3191 2.5
      vertex -1.26785 -13.2189 0
      vertex -1.02606 -13.3191 0
    endloop
  endfacet
  facet normal -0.216273 -0.976333 0
    outer loop
      vertex -0.776457 -13.3978 0
      vertex -0.520944 -13.4544 2.5
      vertex -0.776457 -13.3978 2.5
    endloop
  endfacet
  facet normal -0.216273 -0.976333 -0
    outer loop
      vertex -0.520944 -13.4544 2.5
      vertex -0.776457 -13.3978 0
      vertex -0.520944 -13.4544 0
    endloop
  endfacet
  facet normal -0.675559 -0.737306 0
    outer loop
      vertex -2.12132 -12.6213 0
      vertex -1.92836 -12.7981 2.5
      vertex -2.12132 -12.6213 2.5
    endloop
  endfacet
  facet normal -0.675559 -0.737306 -0
    outer loop
      vertex -1.92836 -12.7981 2.5
      vertex -2.12132 -12.6213 0
      vertex -1.92836 -12.7981 0
    endloop
  endfacet
  facet normal -0.793434 -0.608656 0
    outer loop
      vertex -2.29813 -12.4284 0
      vertex -2.45746 -12.2207 2.5
      vertex -2.45746 -12.2207 0
    endloop
  endfacet
  facet normal -0.793434 -0.608656 0
    outer loop
      vertex -2.45746 -12.2207 2.5
      vertex -2.29813 -12.4284 0
      vertex -2.29813 -12.4284 2.5
    endloop
  endfacet
  facet normal -0.886985 -0.461798 0
    outer loop
      vertex -2.59808 -12 0
      vertex -2.71892 -11.7679 2.5
      vertex -2.71892 -11.7679 0
    endloop
  endfacet
  facet normal -0.886985 -0.461798 0
    outer loop
      vertex -2.71892 -11.7679 2.5
      vertex -2.59808 -12 0
      vertex -2.59808 -12 2.5
    endloop
  endfacet
  facet normal -0.953715 -0.300711 0
    outer loop
      vertex -2.81908 -11.5261 0
      vertex -2.89778 -11.2765 2.5
      vertex -2.89778 -11.2765 0
    endloop
  endfacet
  facet normal -0.953715 -0.300711 0
    outer loop
      vertex -2.89778 -11.2765 2.5
      vertex -2.81908 -11.5261 0
      vertex -2.81908 -11.5261 2.5
    endloop
  endfacet
  facet normal 0.130673 -0.991425 0
    outer loop
      vertex 0.261467 -13.4886 0
      vertex 0.520944 -13.4544 2.5
      vertex 0.261467 -13.4886 2.5
    endloop
  endfacet
  facet normal 0.130673 -0.991425 0
    outer loop
      vertex 0.520944 -13.4544 2.5
      vertex 0.261467 -13.4886 0
      vertex 0.520944 -13.4544 0
    endloop
  endfacet
endsolid OpenSCAD_Model
